<svg width="40" height="40" viewBox="0 0 40 40" fill="none" xmlns="http://www.w3.org/2000/svg">
<path fill-rule="evenodd" clip-rule="evenodd" d="M17.6951 0.146171C1.33928 2.14747 -5.81981 21.9188 5.51361 33.788C16.7295 45.534 36.5216 39.7418 39.6324 23.8031C42.1986 10.6545 30.9501 -1.47563 17.6951 0.146171ZM22.9189 2.00221C44.7657 5.87156 42.1541 38.2281 19.9951 38.2281C-2.97773 38.2281 -4.49124 4.57569 18.3578 1.82318C19.1375 1.72922 22.0157 1.8422 22.9189 2.00221ZM19.4026 6.95268L19.1375 7.21779V13.7638V20.3098L19.3628 20.6139C19.4866 20.7811 21.6375 22.9619 24.1424 25.46L28.6968 30.0021H29.108C29.6951 30.0021 29.975 29.722 29.975 29.135V28.7237L25.4139 24.1559L20.8528 19.5882V13.403V7.21779L20.5877 6.95268C20.3704 6.73536 20.2636 6.68756 19.9951 6.68756C19.7267 6.68756 19.6199 6.73536 19.4026 6.95268Z" fill="black"/>
</svg>
