<svg width="40" height="40" viewBox="0 0 40 40" fill="none" xmlns="http://www.w3.org/2000/svg">
<path fill-rule="evenodd" clip-rule="evenodd" d="M15.7479 0.150972C9.78271 1.41238 6.88131 8.48245 10.2662 13.5086L10.4826 13.8299L10.2853 14.016C8.86895 15.3509 9.58343 18.9955 11.4374 19.893C11.8241 20.0802 11.8334 20.093 12.0467 20.7332C12.6751 22.6188 13.952 24.3866 15.527 25.5514L16.0825 25.9621V26.9706V27.9791L14.8374 27.9798C9.84117 27.9823 6.15963 30.1686 4.10142 34.3554C3.09449 36.4037 2.64183 39.6829 3.32887 39.9515C3.39706 39.9781 10.9259 40 20.0595 40H36.6662L36.8329 39.8194C37.1262 39.5011 37.0211 37.8137 36.6137 36.3005C35.5762 32.4478 32.5326 29.382 28.7468 28.3764C27.6825 28.0936 27.2566 28.0427 25.6024 28.0003L23.9742 27.9585V26.9304V25.9023L24.4511 25.5597C26.2827 24.2437 27.7146 22.0548 28.2566 19.742C28.3387 19.3919 28.3859 19.3295 28.6961 19.1618C30.7711 18.0404 31.0942 13.4442 29.1332 12.9428C28.9089 12.8854 28.9093 12.8249 29.1356 12.5493C32.3271 8.66183 29.5897 2.76348 24.5783 2.72968L23.6116 2.7232L23.1711 2.31309C21.222 0.498172 18.2286 -0.373654 15.7479 0.150972ZM18.7753 1.598C20.2047 1.89478 21.2989 2.49613 22.491 3.64007L23.1462 4.26874L23.5028 4.21645C26.5018 3.77659 28.8891 5.57808 29.0808 8.4257C29.1531 9.4997 28.2965 12.0863 28.0109 11.6567C27.1809 10.4084 25.9655 9.19145 24.2488 7.88984C23.2732 7.15008 23.2816 7.14891 21.8602 8.24383C21.2378 8.72334 20.2778 9.46262 19.7272 9.88655C17.9422 11.2606 16.5029 11.8364 14.5136 11.972C13.1702 12.0637 12.5683 12.3166 12.0622 13.0021L11.8449 13.2963L11.5438 12.8679C7.86364 7.63209 12.5631 0.308258 18.7753 1.598ZM24.1822 9.64684C25.7194 10.902 26.5377 11.8301 26.9512 12.7873C27.3424 13.6931 27.1666 18.7169 26.6927 20.1734C25.6621 23.3409 21.9078 26.3683 19.6101 25.8848C15.2853 24.9748 12.8645 21.5366 12.8645 16.3044C12.8645 13.6812 12.9753 13.5042 14.6991 13.3735C17.2539 13.1796 18.4737 12.6361 21.3621 10.4042C22.3984 9.60344 23.2709 8.95361 23.301 8.96016C23.3312 8.96672 23.7277 9.27575 24.1822 9.64684ZM29.0033 14.7654C29.2026 15.2451 29.0675 16.3033 28.7218 16.9693L28.5781 17.2462L28.5747 15.7315L28.5714 14.2168L28.7352 14.3655C28.8253 14.4473 28.9459 14.6272 29.0033 14.7654ZM11.4787 16.4851L11.4722 18.0268L11.2479 17.5372C10.8284 16.6216 10.7893 15.6808 11.1504 15.1972C11.4656 14.7751 11.4857 14.8537 11.4787 16.4851ZM21.7733 30.199L20.9478 31.3289L20.0113 31.3323L19.0747 31.3356L18.2682 30.2455L17.4616 29.1555V27.9428C17.4616 27.2175 17.4913 26.7302 17.5354 26.7302C17.576 26.7302 17.7879 26.8019 18.0064 26.8897C19.4526 27.4704 20.5497 27.4555 22.1737 26.8329L22.5568 26.6861L22.5778 27.8776L22.599 29.069L21.7733 30.199ZM16.0825 29.5141C16.0825 29.5855 16.4807 30.1845 16.9676 30.8452C17.4544 31.5059 17.8722 32.0984 17.896 32.1617C17.9199 32.225 17.6868 33.6984 17.378 35.4359L16.8166 38.595H10.6022H4.3879L4.44046 38.1461C4.93986 33.88 8.12138 30.4144 12.2994 29.5854C13.5124 29.3447 16.0825 29.2963 16.0825 29.5141ZM27.8435 29.6083C32.007 30.5591 35.0789 33.9658 35.5772 38.1852L35.6256 38.595H29.422C23.5799 38.595 23.2161 38.587 23.1789 38.4584C23.1572 38.3833 22.8951 36.945 22.5964 35.2621L22.0533 32.2026L22.9684 30.9554C23.4718 30.2694 23.9077 29.6307 23.9373 29.5359C24.0108 29.2997 26.711 29.3497 27.8435 29.6083ZM20.7562 32.8019C20.7562 32.8356 20.9803 34.1159 21.2542 35.647C21.5282 37.1781 21.7523 38.4677 21.7523 38.5128C21.7523 38.568 21.1691 38.595 19.9818 38.595H18.2112L18.2526 38.4193C18.2754 38.3227 18.5047 37.0494 18.7622 35.5897C19.0197 34.1301 19.2451 32.8919 19.263 32.8382C19.2996 32.7289 20.7562 32.6934 20.7562 32.8019Z" fill="black"/>
</svg>
