<svg width="40" height="40" viewBox="0 0 40 40" fill="none" xmlns="http://www.w3.org/2000/svg">
<path fill-rule="evenodd" clip-rule="evenodd" d="M9.60385 0.161554C8.55336 0.396795 7.72118 0.799443 6.71283 1.56011C6.37476 1.81517 5.91684 2.09101 5.69522 2.17302C3.13342 3.12132 2.3699 5.5787 3.75904 8.40449C4.46203 9.8343 4.42479 9.70806 4.14386 9.71096C3.56715 9.71685 2.77833 10.4045 2.5962 11.0601C2.25998 12.2701 3.11609 13.5657 4.25693 13.5734L4.59154 13.5757L4.76795 14.1563C5.21668 15.6329 6.1516 16.8848 7.45072 17.7483L7.75567 17.951L7.73278 18.7517L7.70998 19.5524L4.66995 20.8213C0.991084 22.3569 0.86496 22.4359 0.278182 23.5736L0.0538987 24.0085L0.031414 28.9405C0.00377153 34.9866 -0.403693 34.1995 2.75367 34.1995H5.17138V36.9386C5.17138 39.5704 5.17767 39.684 5.33256 39.8389C5.49254 39.9988 5.60117 40 20 40C34.3988 40 34.5075 39.9988 34.6674 39.8389C34.8223 39.684 34.8286 39.5704 34.8286 36.9386V34.1995H37.2463C40.4037 34.1995 39.9962 34.9866 39.9686 28.9405L39.9461 24.0085L39.7043 23.5294C39.152 22.4352 39.0553 22.3757 35.2316 20.7807L32.29 19.5535L32.2684 18.7599L32.2469 17.9663L32.9069 17.4829C33.9968 16.6846 34.8229 15.5026 35.2321 14.1563L35.4085 13.5757L35.7431 13.575C37.1412 13.5717 37.9642 11.6597 37.088 10.4506C36.846 10.1166 36.149 9.70871 35.8202 9.70871C35.5795 9.70871 35.5751 9.73304 35.9952 8.73794C37.1901 5.90828 36.5225 3.23177 34.2642 1.79736C30.8051 -0.399641 27.5122 -0.500504 24.8354 1.50863C24.4587 1.7914 23.9691 2.09013 23.7474 2.17246C21.8055 2.89397 20.758 4.85195 21.1808 6.9696L21.221 7.17101H20.1069C19.494 7.17101 18.8838 7.1955 18.7508 7.22539L18.5091 7.27969L18.5061 6.17808C18.4959 2.44347 13.7465 -0.766278 9.60385 0.161554ZM12.1645 1.5324C14.0629 1.97976 16.1804 3.29549 16.7222 4.36423C17.3321 5.56734 17.3021 7.53676 16.6672 7.98235C16.5721 8.04905 16.1861 8.33062 15.8093 8.60791C15.4325 8.88529 14.943 9.17982 14.7213 9.26248C12.1278 10.2298 11.3822 12.7059 12.8204 15.5757C13.1346 16.2026 13.3916 16.734 13.3916 16.7568C13.3916 16.7796 13.1729 16.7982 12.9055 16.7982C11.748 16.7982 10.9774 17.5708 10.9774 18.7316C10.9774 19.9406 11.7423 20.6651 13.0185 20.6651H13.6176L13.7945 21.2472C14.2145 22.6292 15.1394 23.8979 16.3158 24.7053L16.7821 25.0254L16.7591 25.8047L16.7361 26.5841L11.9383 27.9168C8.57036 28.8523 7.02472 29.3173 6.75216 29.477C5.7551 30.0611 5.22884 30.963 5.18379 32.1654L5.15583 32.9105H3.22481H1.29378L1.3186 28.7415C1.35205 23.1063 0.819588 23.9283 5.77323 21.8642C9.39851 20.3536 9.03972 20.6899 9.03972 18.8034C9.03972 17.0001 9.07889 17.1243 8.36534 16.6672C7.02794 15.8106 6.22285 14.6447 5.93852 13.1528C5.79684 12.4095 5.67443 12.2867 5.07572 12.2867C4.22404 12.2867 3.85615 11.9963 3.99694 11.4355C4.06464 11.1658 4.46823 10.9977 5.04792 10.9977C6.09181 10.9977 6.1433 10.1181 5.20878 8.25287C3.93481 5.7101 4.26563 4.1799 6.24452 3.46185C6.54916 3.35132 7.04035 3.06017 7.47288 2.7339C9.03593 1.55439 10.5801 1.15899 12.1645 1.5324ZM30.2168 1.5324C34.5135 2.54506 36.1063 5.07865 34.5935 8.49448C33.8347 10.208 33.9478 10.9977 34.9521 10.9977C35.5318 10.9977 35.9354 11.1658 36.0031 11.4355C36.1438 11.9963 35.776 12.2867 34.9243 12.2867C34.3232 12.2867 34.212 12.401 34.0495 13.1857C33.7315 14.7221 33.0078 15.7652 31.6339 16.6682C31.2206 16.9399 30.9882 17.1487 30.9514 17.2815C30.8581 17.6191 30.872 19.9746 30.969 20.2527C31.08 20.5709 30.9162 20.4903 34.3451 21.9141C39.1524 23.9102 38.648 23.1161 38.6814 28.7415L38.7062 32.9105H36.7752H34.8442L34.8162 32.1654C34.7711 30.9621 34.1607 29.937 33.1847 29.4252C33.0028 29.3299 30.6963 28.6512 28.059 27.9168L23.2639 26.5816L23.2409 25.8035L23.2179 25.0254L23.6842 24.7053C24.8606 23.8979 25.7855 22.6292 26.2055 21.2472L26.3823 20.6651H26.9815C28.2577 20.6651 29.0226 19.9406 29.0226 18.7316C29.0226 17.5708 28.252 16.7982 27.0945 16.7982C26.5144 16.7982 26.5249 16.8794 26.9691 15.8274C28.4041 12.429 27.3267 9.73707 23.9218 8.21364C21.7625 7.24754 21.9953 4.29696 24.2968 3.46185C24.6014 3.35132 25.0926 3.06017 25.5251 2.7339C27.0882 1.55439 28.6323 1.15899 30.2168 1.5324ZM21.2967 8.65472C24.8682 9.57844 26.7332 11.758 26.0841 14.2494C25.8277 15.2332 25.7914 15.2413 25.3728 14.4082C25.1707 14.006 24.946 13.6541 24.8735 13.6263C24.493 13.4803 24.2229 13.5783 23.4631 14.1378C21.0528 15.9129 18.9472 15.9129 16.5369 14.1378C15.3896 13.2929 15.1541 13.3314 14.604 14.4541C14.1711 15.3377 14.2101 15.3321 13.851 14.5626C12.2485 11.129 16.3406 8.75228 18.6317 11.7859L18.8314 12.0505L19.3754 11.6835C20.0201 11.2486 20.0074 11.3113 19.5653 10.7483C19.0971 10.1522 18.6199 9.7709 17.9491 9.45719L17.3983 9.19948L17.7806 9.00524C18.7548 8.51035 20.1866 8.36759 21.2967 8.65472ZM17.1374 16.1594C19.2663 17.205 22.0094 16.9692 23.8467 15.5826L24.2684 15.2644L24.7244 16.1723L25.1803 17.0801L25.1315 18.6108C24.877 26.5917 15.1133 26.5917 14.867 18.6108L14.8197 17.0801L15.276 16.1715L15.7323 15.2629L16.1117 15.5524C16.3202 15.7116 16.7818 15.9847 17.1374 16.1594ZM13.5528 18.7316V19.3761H13.2681C12.8373 19.3761 12.4391 19.1802 12.3783 18.9384C12.2498 18.4263 12.5883 18.0972 13.2506 18.0903L13.5528 18.0872V18.7316ZM27.2932 18.2027C28.038 18.5138 27.6255 19.3761 26.7319 19.3761H26.4472V18.7316V18.0872H26.7319C26.8885 18.0872 27.141 18.1391 27.2932 18.2027ZM18.7106 25.7355C19.4248 25.8963 21.0714 25.8299 21.7931 25.6112C21.9185 25.5733 21.9342 25.6341 21.9342 26.1593V26.7501L20.9671 27.7143L20 28.6786L19.0329 27.7143L18.0658 26.7501V26.1593C18.0658 25.6341 18.0815 25.5733 18.2069 25.6112C18.2845 25.6348 18.5111 25.6907 18.7106 25.7355ZM18.4311 29.1241C20.0837 30.7637 19.9157 30.7644 21.5814 29.1117L22.812 27.8909L26.9466 29.0364C32.572 30.595 32.4377 30.553 32.8068 30.8689C33.4965 31.4591 33.4955 31.4526 33.5245 35.3073L33.5501 38.711H31.6105H29.6708V36.133V33.555H29.0261H28.3814V36.133V38.711H20H11.6186V36.133V33.555H10.9739H10.3292V36.133V38.711H8.38952H6.44987L6.4755 35.3073C6.50805 30.9847 6.54658 30.878 8.25606 30.3782C9.77003 29.9356 16.982 27.9341 17.0955 27.9251C17.1602 27.9199 17.7612 28.4595 18.4311 29.1241Z" fill="black"/>
</svg>
