<svg width="40" height="40" viewBox="0 0 40 40" fill="none" xmlns="http://www.w3.org/2000/svg">
<path d="M18.2328 3.28962C19.1619 2.20623 20.8381 2.20623 21.7672 3.28962C22.8599 4.56371 24.6413 5.0028 26.2009 4.38242C27.527 3.8549 29.0113 4.63391 29.3305 6.02497C29.7059 7.66089 31.0792 8.87756 32.7485 9.05302C34.1679 9.20221 35.1201 10.5818 34.7563 11.9618C34.3284 13.5848 34.979 15.3003 36.3755 16.2314C37.563 17.0232 37.7651 18.6872 36.8016 19.7401C35.6685 20.9784 35.4473 22.7998 36.2511 24.2732C36.9347 25.5261 36.3403 27.0934 34.9978 27.578C33.4191 28.1478 32.3768 29.6578 32.4038 31.336C32.4268 32.763 31.1721 33.8746 29.7582 33.6798C28.0955 33.4507 26.4709 34.3033 25.7149 35.8019C25.0721 37.0761 23.4445 37.4773 22.2832 36.6477C20.9174 35.6722 19.0826 35.6722 17.7168 36.6477C16.5555 37.4773 14.9279 37.0761 14.2851 35.8019C13.5291 34.3033 11.9045 33.4507 10.2418 33.6798C8.82791 33.8746 7.5732 32.763 7.59618 31.336C7.6232 29.6578 6.58094 28.1478 5.00219 27.578C3.65975 27.0934 3.06533 25.5261 3.74886 24.2732C4.55269 22.7998 4.33154 20.9784 3.19844 19.7401C2.23494 18.6872 2.437 17.0232 3.62448 16.2314C5.02098 15.3003 5.67159 13.5848 5.24373 11.9618C4.8799 10.5818 5.83214 9.20222 7.25153 9.05302C8.92077 8.87756 10.2941 7.66089 10.6695 6.02497C10.9887 4.63391 12.473 3.8549 13.7991 4.38242C15.3587 5.0028 17.1401 4.56371 18.2328 3.28962Z" stroke="black" stroke-width="1.6"/>
<path d="M25.6577 12.755L14.3423 27.245" stroke="black" stroke-width="1.6" stroke-linecap="round" stroke-linejoin="round"/>
<circle cx="24.2042" cy="24.9823" r="2.7" transform="rotate(-7.68672 24.2042 24.9823)" stroke="black" stroke-width="1.6"/>
<circle cx="15.7958" cy="15.0175" r="2.7" transform="rotate(-7.68672 15.7958 15.0175)" stroke="black" stroke-width="1.6"/>
</svg>
