<svg width="13" height="7" viewBox="0 0 13 7" fill="none" xmlns="http://www.w3.org/2000/svg">
<path d="M11.717 1.10556L6.48788 5.5687L1.25876 1.10556C1.16534 1.02566 1.03992 0.980927 0.909319 0.980927C0.778719 0.980927 0.653301 1.02566 0.559874 1.10556C0.514637 1.14437 0.478698 1.19069 0.454164 1.24182C0.429629 1.29294 0.416992 1.34784 0.416992 1.40329C0.416992 1.45874 0.429629 1.51364 0.454164 1.56476C0.478698 1.61588 0.514637 1.66221 0.559874 1.70101L6.12275 6.44997C6.22044 6.53335 6.35146 6.58001 6.48788 6.58001C6.62431 6.58001 6.75533 6.53335 6.85302 6.44997L12.4159 1.70193C12.4615 1.66309 12.4977 1.61666 12.5224 1.56536C12.5471 1.51407 12.5598 1.45896 12.5598 1.40329C12.5598 1.34761 12.5471 1.2925 12.5224 1.24121C12.4977 1.18992 12.4615 1.14348 12.4159 1.10465C12.3225 1.02474 12.1971 0.980011 12.0665 0.980011C11.9359 0.980011 11.8104 1.02474 11.717 1.10465V1.10556Z" fill="#333333"/>
</svg>
