<svg width="12" height="21" viewBox="0 0 12 21" fill="none" xmlns="http://www.w3.org/2000/svg">
<path d="M0.878718 0.594501C0.726079 0.750772 0.640625 0.960554 0.640625 1.179C0.640625 1.39745 0.726079 1.60723 0.878718 1.7635L9.40647 10.5118L0.878718 19.2583C0.726079 19.4145 0.640625 19.6243 0.640625 19.8428C0.640625 20.0612 0.726079 20.271 0.878718 20.4273C0.952911 20.5035 1.04162 20.564 1.1396 20.6054C1.23759 20.6467 1.34286 20.668 1.44922 20.668C1.55557 20.668 1.66085 20.6467 1.75883 20.6054C1.85682 20.564 1.94552 20.5035 2.01972 20.4273L11.0882 11.1225C11.2475 10.9591 11.3366 10.7399 11.3366 10.5118C11.3366 10.2836 11.2475 10.0644 11.0882 9.901L2.01972 0.596252C1.94552 0.520051 1.85682 0.459485 1.75883 0.41813C1.66085 0.376775 1.55557 0.355469 1.44922 0.355469C1.34286 0.355469 1.23759 0.376775 1.1396 0.41813C1.04162 0.459485 0.952911 0.520051 0.878718 0.596252V0.594501Z" fill="white"/>
</svg>
