<svg width="18" height="16" viewBox="0 0 18 16" fill="none" xmlns="http://www.w3.org/2000/svg">
<path d="M0.5 4.09998C0.223858 4.09998 0 4.32383 0 4.59998C0 4.87612 0.223858 5.09998 0.5 5.09998V4.09998ZM17.8536 4.95353C18.0488 4.75827 18.0488 4.44168 17.8536 4.24642L14.6716 1.06444C14.4763 0.86918 14.1597 0.86918 13.9645 1.06444C13.7692 1.2597 13.7692 1.57629 13.9645 1.77155L16.7929 4.59998L13.9645 7.4284C13.7692 7.62366 13.7692 7.94025 13.9645 8.13551C14.1597 8.33077 14.4763 8.33077 14.6716 8.13551L17.8536 4.95353ZM17.5 11.9C17.7761 11.9 18 11.6761 18 11.4C18 11.1238 17.7761 10.9 17.5 10.9V11.9ZM0.146447 11.0464C-0.0488155 11.2417 -0.0488155 11.5583 0.146447 11.7535L3.32843 14.9355C3.52369 15.1308 3.84027 15.1308 4.03553 14.9355C4.2308 14.7402 4.2308 14.4237 4.03553 14.2284L1.20711 11.4L4.03553 8.57154C4.2308 8.37628 4.2308 8.0597 4.03553 7.86444C3.84027 7.66917 3.52369 7.66917 3.32843 7.86444L0.146447 11.0464ZM0.5 5.09998H17.5V4.09998H0.5V5.09998ZM17.5 10.9H0.5V11.9H17.5V10.9Z" fill="#333333"/>
</svg>
