<svg xmlns="http://www.w3.org/2000/svg" width="20" height="20" viewBox="0 0 20 20" fill="none">
<path d="M15.7153 6.42857C15.7153 6.61825 15.6399 6.80016 15.5058 6.93429L8.36296 14.0771C8.29661 14.1436 8.21778 14.1964 8.13101 14.2324C8.04423 14.2684 7.9512 14.287 7.85724 14.287C7.76329 14.287 7.67026 14.2684 7.58348 14.2324C7.4967 14.1964 7.41788 14.1436 7.35153 14.0771L4.49439 11.22C4.36026 11.0858 4.28491 10.9039 4.28491 10.7142C4.28491 10.5246 4.36026 10.3427 4.49439 10.2085C4.62851 10.0744 4.81042 9.9991 5.0001 9.9991C5.18978 9.9991 5.37169 10.0744 5.50581 10.2085L7.85724 12.5614L14.4944 5.92286C14.6285 5.78873 14.8104 5.71338 15.0001 5.71338C15.1898 5.71338 15.3717 5.78873 15.5058 5.92286C15.6399 6.05698 15.7153 6.23889 15.7153 6.42857Z" fill="#ffffff"/>
</svg>