<svg width="20" height="20" viewBox="0 0 20 20" fill="none" xmlns="http://www.w3.org/2000/svg">
<path fill-rule="evenodd" clip-rule="evenodd" d="M8.74927 0.0843788C0.628511 1.14972 -2.88019 10.9903 2.75587 16.8935C8.3639 22.7674 18.2602 19.8709 19.8156 11.9003C21.1074 5.28076 15.4209 -0.790868 8.74927 0.0843788ZM11.1273 1.3767C16.9862 2.11391 20.445 8.57169 17.8055 13.8452C14.5801 20.2892 5.47315 20.3277 2.22303 13.9111C-0.91513 7.71543 4.20645 0.505859 11.1273 1.3767ZM9.6918 4.03075C9.62058 4.06584 9.51969 4.15728 9.46764 4.23386L9.37302 4.37315V7.51391C9.37302 10.355 9.37911 10.6638 9.43673 10.751C9.56518 10.9454 13.9193 15.2808 14.0594 15.3538C14.4934 15.58 14.9868 15.2899 14.9868 14.8085C14.9868 14.503 15.0213 14.5421 12.7477 12.2708L10.6205 10.1459V7.26478C10.6205 4.40575 10.6199 4.38274 10.5386 4.25122C10.3799 3.99433 9.97799 3.88967 9.6918 4.03075Z" fill="#828282"/>
</svg>
