<svg width="20" height="20" viewBox="0 0 20 20" fill="none" xmlns="http://www.w3.org/2000/svg">
<path d="M20 13.4375C20 15.3359 18.9459 16.875 16.875 16.875H3.125C1.05406 16.875 0 15.3359 0 13.4375V6.5625C0 4.66406 1.05406 3.125 3.125 3.125H16.875C18.9459 3.125 20 4.66406 20 6.5625V13.4375Z" fill="#EC1C24"/>
<path d="M4.05363 5.20501L4.72207 6.56251L6.22051 6.7797L5.13707 7.83439L5.39238 9.32814L4.05363 8.62345L2.71457 9.32814L2.9702 7.83439L1.8877 6.7797L3.38363 6.56251L4.05363 5.20501ZM6.40863 4.06064L6.59395 4.4372L7.01082 4.49751L6.70988 4.79095L6.7802 5.20501L6.40863 5.00939L6.03738 5.20501L6.1077 4.79095L5.80707 4.49751L6.22301 4.4372L6.40863 4.06064ZM7.61207 5.41501L7.7977 5.79126L8.2127 5.85189L7.91301 6.14595L7.98363 6.55939L7.61207 6.36408L7.24082 6.55939L7.31113 6.14595L7.01082 5.85189L7.42613 5.79126L7.61207 5.41501ZM7.61207 7.58876L7.7977 7.96595L8.2127 8.02626L7.91301 8.3197L7.98363 8.73376L7.61207 8.53876L7.24082 8.73376L7.31113 8.3197L7.01082 8.02626L7.42613 7.96595L7.61207 7.58876ZM6.40863 9.11564L6.59395 9.4922L7.01082 9.5522L6.70988 9.84533L6.7802 10.26L6.40863 10.0656L6.03738 10.26L6.1077 9.84533L5.80707 9.5522L6.22301 9.4922L6.40863 9.11564Z" fill="#F9CB38"/>
</svg>
