<svg width="37" height="37" viewBox="0 0 37 37" fill="none" xmlns="http://www.w3.org/2000/svg">
<path d="M19.9386 37.0002C19.0478 37.0002 18.157 37.0002 17.2655 37.0002C17.1743 36.9771 17.0853 36.9452 16.9926 36.9322C16.3862 36.8488 15.7733 36.8025 15.1741 36.6837C11.8866 36.0317 8.9247 34.6706 6.3514 32.5104C2.92208 29.6317 0.89081 25.9597 0.21782 21.5337C0.13749 21.0027 0.07236 20.4695 0 19.9371C0 18.9729 0 18.0087 0 17.0446C0.0948 16.3694 0.17512 15.6914 0.28801 15.0184C0.8691 11.5551 2.30626 8.4873 4.7652 5.9816C8.9812 1.68446 14.1118 -0.351089 20.155 0.0495011C22.4084 0.198731 24.5613 0.762311 26.5933 1.74459C30.637 3.69974 33.5243 6.7893 35.3494 10.8713C36.7583 14.0231 37.322 17.3264 36.8198 20.7629C36.3285 24.1255 35.1098 27.2144 33.0952 29.9613C30.2375 33.8585 26.3827 36.0984 21.6138 36.7844C21.0566 36.8648 20.4973 36.9293 19.9386 37.0002ZM5.1791 29.5209C5.2971 29.4086 5.376 29.3354 5.4519 29.2601C6.5208 28.1923 7.7003 27.2644 9.0043 26.5023C9.2496 26.3589 9.2858 26.2162 9.2221 25.9561C8.7047 23.8481 8.4225 21.7075 8.3784 19.5358C8.3755 19.3974 8.3603 19.2591 8.3501 19.1185C5.9534 19.1185 3.60086 19.1185 1.21428 19.1185C1.40098 23.0281 2.69847 26.4769 5.1791 29.5209ZM8.348 17.8675C8.3596 17.7653 8.3719 17.7059 8.3726 17.6465C8.4102 15.3785 8.6917 13.1415 9.2453 10.9408C9.3046 10.7054 9.2084 10.6032 9.0195 10.4931C7.7032 9.7267 6.515 8.7915 5.4411 7.7114C5.3608 7.631 5.2761 7.5542 5.1777 7.4608C2.70209 10.5178 1.39591 13.9615 1.21645 17.8675C3.61461 17.8675 5.9672 17.8675 8.348 17.8675ZM35.7756 17.8878C35.5817 13.9528 34.2834 10.5033 31.8339 7.4941C31.7825 7.5115 31.7536 7.513 31.7391 7.5282C30.5769 8.7104 29.2823 9.7216 27.8669 10.583C27.7865 10.6322 27.7352 10.8307 27.7612 10.9379C28.2859 13.0966 28.5789 15.2843 28.6101 17.5053C28.6144 17.8363 28.7367 17.8972 29.037 17.895C31.0589 17.8827 33.0807 17.8885 35.1026 17.8885C35.3052 17.8878 35.5078 17.8878 35.7756 17.8878ZM35.7705 19.1142C35.6193 19.1055 35.5136 19.0939 35.4073 19.0939C33.2768 19.0932 31.1472 19.1004 29.0167 19.0852C28.6875 19.083 28.6151 19.1953 28.6101 19.4967C28.5746 21.7053 28.2888 23.8821 27.7525 26.0249C27.6946 26.256 27.7858 26.3545 27.9646 26.4827C28.9219 27.1673 29.8743 27.8598 30.8092 28.5748C31.166 28.8479 31.4706 29.1898 31.8136 29.5143C34.2849 26.4653 35.5896 23.0201 35.7705 19.1142ZM17.8712 1.25417C17.7641 1.26359 17.6931 1.26649 17.6237 1.27735C17.5527 1.28749 17.4826 1.30271 17.4124 1.31937C16.049 1.64752 14.9831 2.44436 14.0655 3.46503C12.7839 4.8906 11.9293 6.5669 11.2621 8.3467C11.0537 8.9031 10.8771 9.4717 10.6839 10.0411C12.9735 11.1893 15.3442 11.7978 17.8712 11.8992C17.8712 8.3489 17.8712 4.824 17.8712 1.25417ZM19.1144 35.7376C20.2483 35.5906 21.1753 35.1052 21.9909 34.4076C24.2971 32.4329 25.4058 29.7628 26.3031 26.9398C24.0279 25.7931 21.65 25.1832 19.1151 25.0817C19.1144 28.64 19.1144 32.1642 19.1144 35.7376ZM26.2929 10.0469C25.7292 8.1497 25.0092 6.3757 23.9266 4.7646C23.0973 3.53095 22.1153 2.45377 20.7708 1.76197C20.2577 1.49829 19.7237 1.29619 19.1223 1.25417C19.1223 4.816 19.1223 8.3496 19.1223 11.8985C21.6536 11.7883 24.0279 11.1864 26.2929 10.0469ZM17.8603 35.7362C17.8603 32.1584 17.8603 28.6269 17.8603 25.0803C15.3261 25.1991 12.9518 25.7938 10.6304 26.9703C11.0841 28.096 11.4886 29.2246 11.9872 30.3104C12.7116 31.8875 13.666 33.3145 15.0236 34.4315C15.8428 35.1052 16.7517 35.592 17.8603 35.7362ZM17.8675 13.2103C16.557 12.9887 15.274 12.8503 14.0344 12.541C12.7977 12.2331 11.6029 11.7543 10.3604 11.3414C9.8684 13.445 9.5934 15.6342 9.5789 17.8653C12.3657 17.8653 15.1054 17.8653 17.8683 17.8653C17.8675 16.2818 17.8675 14.7214 17.8675 13.2103ZM10.3829 25.7381C12.7036 24.6348 15.0902 24.0009 17.6085 23.8959C17.8567 23.8858 17.8958 23.767 17.895 23.5525C17.8878 22.1907 17.8827 20.8295 17.8979 19.4677C17.9015 19.1613 17.8053 19.0859 17.5101 19.0874C14.9816 19.0982 12.4539 19.0932 9.9255 19.0946C9.8119 19.0946 9.6983 19.1069 9.5731 19.1142C9.6021 21.367 9.8676 23.5424 10.3829 25.7381ZM26.6027 11.2429C24.2168 12.3881 21.7333 13.0082 19.0963 13.1082C19.0963 13.2748 19.0963 13.3929 19.0963 13.511C19.0963 14.8366 19.1057 16.1623 19.0891 17.4872C19.0854 17.7987 19.16 17.8972 19.4871 17.8957C22.0032 17.882 24.5193 17.8885 27.0354 17.887C27.1526 17.887 27.2691 17.8776 27.4146 17.8711C27.3828 15.6262 27.1222 13.4421 26.6027 11.2429ZM27.4131 19.1149C27.3169 19.1055 27.259 19.0946 27.2011 19.0946C24.6003 19.0939 22.0003 19.0975 19.3995 19.0881C19.1216 19.0874 19.0912 19.2098 19.0927 19.4365C19.0999 20.7499 19.0963 22.0632 19.0963 23.3765C19.0963 23.8778 19.0963 23.8807 19.6007 23.9061C21.8838 24.0212 24.0562 24.5834 26.1366 25.5193C26.2843 25.5859 26.4312 25.654 26.6056 25.7344C27.1186 23.5388 27.3849 21.3634 27.4131 19.1149ZM27.3581 27.5273C26.4225 30.4111 25.1698 33.0733 22.9439 35.1784C26.0664 34.3511 28.7352 32.7654 30.9952 30.4314C29.9054 29.2883 28.7157 28.3314 27.3581 27.5273ZM5.9932 6.5495C7.0845 7.6897 8.2749 8.6568 9.5377 9.3935C10.1549 8.0164 10.7129 6.6509 11.3714 5.3369C12.0378 4.0076 12.9525 2.8406 14.0373 1.80906C10.914 2.63487 8.251 4.217 5.9932 6.5495ZM22.9548 1.80254C25.1677 3.91053 26.4232 6.5669 27.3581 9.4485C28.72 8.6365 29.9119 7.6796 30.9945 6.5408C28.7352 4.217 26.073 2.63197 22.9548 1.80254ZM9.631 27.5382C8.2669 28.3379 7.0715 29.3028 5.9932 30.4423C8.2582 32.7647 10.9169 34.3511 14.0286 35.1755C11.8179 33.0704 10.566 30.4198 9.631 27.5382Z" fill="black"/>
</svg>
