<svg width="37" height="37" viewBox="0 0 37 37" fill="none" xmlns="http://www.w3.org/2000/svg">
<path d="M18.7438 0C19.6433 0.4587 20.5413 0.92037 21.4431 1.37535C22.7284 2.02363 24.016 2.66819 25.3035 3.3113C26.6349 3.9759 27.9678 4.6361 29.2992 5.3007C30.502 5.9006 31.7041 6.5013 32.9062 7.1035C34.1342 7.7191 35.3593 8.3384 36.5882 8.9524C36.8654 9.0907 36.9978 9.3115 36.9978 9.6148C36.9985 15.3861 36.9978 21.1574 36.9993 26.9287C36.9993 27.2848 36.8268 27.5301 36.5265 27.6885C35.0731 28.4512 33.6168 29.2081 32.1628 29.9679C30.4634 30.8563 28.7655 31.7469 27.0653 32.6331C25.6864 33.352 24.3051 34.0649 22.9261 34.7846C21.5977 35.4774 20.27 36.1726 18.946 36.8736C18.6702 37.0193 18.3878 37.0468 18.1238 36.9115C16.9865 36.3272 15.8587 35.7235 14.7251 35.1303C13.3728 34.4225 12.0176 33.72 10.6647 33.0137C9.3615 32.3327 8.0606 31.6488 6.7574 30.9678C5.2179 30.1634 3.6776 29.3605 2.13725 28.5583C1.57079 28.2632 0.997633 27.9784 0.437123 27.6729C0.127123 27.5041 2.72132e-06 27.2261 0.00149272 26.864C0.00967272 24.7014 0.00521253 22.538 0.00521253 20.3746C0.00521253 16.8336 0.00892261 13.2919 2.6052e-06 9.7509C-0.000737395 9.3256 0.156113 9.0625 0.541933 8.8736C2.58997 7.8685 4.6298 6.8485 6.6712 5.83C9.1132 4.6115 11.5553 3.393 13.9951 2.17009C15.4261 1.45044 16.8541 0.72336 18.2844 0C18.4376 0 18.5907 0 18.7438 0ZM1.58714 10.9077C1.57896 11.0467 1.5693 11.1381 1.5693 11.2303C1.56856 16.2255 1.57004 21.2213 1.56409 26.2165C1.56409 26.4298 1.63843 26.5414 1.82428 26.6358C2.98843 27.229 4.1496 27.8305 5.3078 28.4356C7.1678 29.408 9.024 30.3871 10.884 31.3603C12.8361 32.3818 14.7897 33.3995 16.7441 34.4173C17.0496 34.5764 17.3604 34.7251 17.6934 34.8916C17.6994 34.7823 17.7038 34.7355 17.7038 34.6879C17.7046 29.53 17.7031 24.372 17.709 19.2133C17.709 19.0304 17.6429 18.9353 17.4897 18.8617C16.9478 18.6015 16.4074 18.339 15.8699 18.0699C14.0694 17.1681 12.2711 16.2619 10.4706 15.3601C8.943 14.5951 7.4123 13.8361 5.8847 13.0703C4.4685 12.3626 3.0553 11.6474 1.58714 10.9077ZM19.3014 34.8953C19.4813 34.8098 19.6017 34.7578 19.7184 34.6968C21.2401 33.8991 22.7604 33.0977 24.2836 32.303C26.1703 31.3187 28.0607 30.3411 29.9482 29.3575C31.6736 28.4587 33.3953 27.5502 35.1259 26.6603C35.3556 26.5421 35.4344 26.4142 35.4337 26.157C35.4255 21.1909 35.4277 16.2247 35.4277 11.2578C35.4277 11.156 35.4277 11.0541 35.4277 10.9211C35.3437 10.953 35.2991 10.9649 35.2597 10.985C33.1269 12.0533 30.9971 13.1276 28.8584 14.1832C28.6012 14.3104 28.5268 14.4539 28.5283 14.7282C28.5387 17.1875 28.5365 19.6467 28.5298 22.106C28.5291 22.3016 28.5023 22.5127 28.4243 22.6889C28.1871 23.2264 27.4222 23.2918 27.1129 22.7944C27.0051 22.6205 26.9657 22.3789 26.9642 22.1685C26.9538 19.9486 26.9575 17.7287 26.9575 15.5088C26.9575 15.401 26.9575 15.2925 26.9575 15.169C26.8788 15.1891 26.8498 15.1913 26.8252 15.2032C25.8194 15.711 24.8166 16.2232 23.8085 16.7265C22.3991 17.4313 20.9889 18.1331 19.5742 18.826C19.3653 18.9278 19.2947 19.0535 19.2947 19.2869C19.3021 24.3683 19.2999 29.4489 19.2999 34.5303C19.3014 34.6351 19.3014 34.7392 19.3014 34.8953ZM25.9488 13.8844C25.8737 13.8264 25.8335 13.7848 25.7852 13.7602C25.2314 13.4814 24.6768 13.2056 24.1223 12.9283C21.6906 11.7106 19.2605 10.4906 16.8281 9.2751C14.6255 8.1748 12.4213 7.0797 10.2142 5.9884C10.1257 5.9445 9.9845 5.9281 9.8997 5.9675C9.3295 6.233 8.7668 6.5155 8.2033 6.7965C6.7515 7.5198 5.3004 8.2439 3.85 8.9703C3.436 9.1777 3.0256 9.394 2.5699 9.629C2.69107 9.7011 2.7669 9.7531 2.84793 9.7933C3.6671 10.2022 4.4886 10.6066 5.3071 11.017C7.089 11.9106 8.8672 12.8101 10.6498 13.7022C13.2086 14.9832 15.7688 16.2611 18.3327 17.5324C18.4227 17.577 18.5736 17.5741 18.6643 17.5287C20.8365 16.4544 23.0049 15.3713 25.1727 14.2881C25.4247 14.1624 25.6737 14.0279 25.9488 13.8844ZM34.4137 9.6476C34.3528 9.5948 34.3283 9.5635 34.2963 9.5479C33.1626 8.9785 32.029 8.409 30.8938 7.841C28.3336 6.5608 25.7718 5.2828 23.2124 4.0027C21.6936 3.2429 20.1771 2.47935 18.6554 1.72551C18.5773 1.68685 18.4524 1.69057 18.3684 1.72328C18.1655 1.80357 17.9737 1.9136 17.7774 2.01173C16.3189 2.7403 14.8589 3.4674 13.4011 4.1982C12.8763 4.4614 12.3566 4.7327 11.8035 5.016C13.0896 5.6598 14.3355 6.282 15.5807 6.9058C16.9381 7.586 18.2941 8.2685 19.6508 8.948C20.8878 9.5673 22.1255 10.1851 23.3633 10.8036C24.7631 11.5032 26.1614 12.2072 27.5656 12.8971C27.666 12.9462 27.8295 12.9387 27.9351 12.8919C28.3269 12.7179 28.7075 12.5172 29.0911 12.3254C30.6358 11.5537 32.1799 10.782 33.7239 10.0096C33.9484 9.8973 34.1699 9.7762 34.4137 9.6476Z" fill="black"/>
</svg>
