<svg width="40" height="40" viewBox="0 0 40 40" fill="none" xmlns="http://www.w3.org/2000/svg">
<path d="M11.7922 33.2472H29.071C38.0704 33.2472 37.3505 20 29.071 20H11.2165M11.2165 20H25.9033M11.2165 20C2.21711 20 2.93706 6.75293 11.2165 6.75293H28.2791" stroke="black" stroke-width="1.6" stroke-linecap="round" stroke-linejoin="round"/>
<circle cx="33.3911" cy="6.60889" r="4.52764" stroke="black" stroke-width="1.6"/>
<circle cx="6.60889" cy="33.3911" r="4.52764" stroke="black" stroke-width="1.6"/>
<path fill-rule="evenodd" clip-rule="evenodd" d="M33.3911 10.3365C35.4498 10.3365 37.1188 8.66762 37.1188 6.60889C37.1188 4.55017 35.4498 2.88125 33.3911 2.88125C31.3324 2.88125 29.6635 4.55017 29.6635 6.60889C29.6635 8.66762 31.3324 10.3365 33.3911 10.3365ZM33.3911 11.9365C36.3335 11.9365 38.7188 9.55127 38.7188 6.60889C38.7188 3.66652 36.3335 1.28125 33.3911 1.28125C30.6709 1.28125 28.4268 3.32 28.1035 5.95288H11.2165C6.53195 5.95288 4.03572 9.73048 3.93724 13.3547C3.88774 15.1762 4.43051 17.0357 5.64919 18.4519C6.88231 19.885 8.75347 20.8 11.2165 20.8H25.9033H29.071C32.6659 20.8 34.6694 23.646 34.7509 26.6453C34.7914 28.1356 34.3442 29.5878 33.4256 30.6554C32.5213 31.7063 31.1077 32.4471 29.071 32.4471H11.8532C11.4076 29.955 9.22913 28.0635 6.60889 28.0635C3.66652 28.0635 1.28125 30.4487 1.28125 33.3911C1.28125 36.3335 3.66652 38.7188 6.60889 38.7188C9.32916 38.7188 11.5733 36.68 11.8966 34.0471H29.071C31.5341 34.0471 33.4052 33.1321 34.6384 31.6991C35.857 30.2828 36.3998 28.4233 36.3503 26.6018C36.2518 22.9776 33.7556 19.2 29.071 19.2H25.9033H11.2165C9.17985 19.2 7.76622 18.4592 6.86198 17.4083C5.94331 16.3407 5.49615 14.8885 5.53665 13.3982C5.61815 10.3988 7.62162 7.55288 11.2165 7.55288H28.1469C28.5924 10.045 30.7709 11.9365 33.3911 11.9365ZM10.3365 33.3911C10.3365 35.4498 8.66762 37.1188 6.60889 37.1188C4.55017 37.1188 2.88125 35.4498 2.88125 33.3911C2.88125 31.3324 4.55017 29.6635 6.60889 29.6635C8.66762 29.6635 10.3365 31.3324 10.3365 33.3911Z" fill="black"/>
</svg>
