<svg width="16" height="16" viewBox="0 0 16 16" fill="none" xmlns="http://www.w3.org/2000/svg">
<mask id="path-1-inside-1_345_80" fill="white">
<path d="M6.18322 0.642853C7.32494 0.642711 8.44334 0.966075 9.40882 1.57548C10.3743 2.18488 11.1473 3.05537 11.6383 4.08608C12.1293 5.11679 12.3182 6.26553 12.1831 7.39919C12.0479 8.53284 11.5943 9.605 10.8748 10.4914L14.9581 14.5745C15.0702 14.6859 15.1359 14.8356 15.1421 14.9935C15.1483 15.1514 15.0944 15.3058 14.9913 15.4256C14.8882 15.5453 14.7436 15.6216 14.5865 15.639C14.4294 15.6565 14.2716 15.6137 14.1447 15.5195L14.0747 15.4586L9.99065 11.3755C9.23973 11.9848 8.35354 12.4049 7.40655 12.6005C6.45956 12.7962 5.47944 12.7616 4.54856 12.4999C3.61768 12.2381 2.76323 11.7567 2.05703 11.0962C1.35083 10.4356 0.81351 9.61522 0.490221 8.70391C0.166933 7.7926 0.0671245 6.81701 0.199183 5.85912C0.331242 4.90123 0.69131 3.98903 1.24913 3.19918C1.80694 2.40933 2.54621 1.76491 3.4048 1.32008C4.2634 0.87525 5.21622 0.643001 6.18322 0.642853ZM6.18322 1.89278C5.55398 1.89278 4.9309 2.01671 4.34956 2.2575C3.76821 2.49829 3.23999 2.85122 2.79505 3.29614C2.35011 3.74106 1.99717 4.26926 1.75637 4.85058C1.51557 5.43189 1.39163 6.05495 1.39163 6.68416C1.39163 7.31337 1.51557 7.93642 1.75637 8.51774C1.99717 9.09906 2.35011 9.62726 2.79505 10.0722C3.23999 10.5171 3.76821 10.87 4.34956 11.1108C4.9309 11.3516 5.55398 11.4755 6.18322 11.4755C7.45402 11.4755 8.67278 10.9707 9.57138 10.0722C10.47 9.17362 10.9748 7.95491 10.9748 6.68416C10.9748 5.41341 10.47 4.1947 9.57138 3.29614C8.67278 2.39758 7.45402 1.89278 6.18322 1.89278Z"/>
</mask>
<path d="M6.18322 0.642853C7.32494 0.642711 8.44334 0.966075 9.40882 1.57548C10.3743 2.18488 11.1473 3.05537 11.6383 4.08608C12.1293 5.11679 12.3182 6.26553 12.1831 7.39919C12.0479 8.53284 11.5943 9.605 10.8748 10.4914L14.9581 14.5745C15.0702 14.6859 15.1359 14.8356 15.1421 14.9935C15.1483 15.1514 15.0944 15.3058 14.9913 15.4256C14.8882 15.5453 14.7436 15.6216 14.5865 15.639C14.4294 15.6565 14.2716 15.6137 14.1447 15.5195L14.0747 15.4586L9.99065 11.3755C9.23973 11.9848 8.35354 12.4049 7.40655 12.6005C6.45956 12.7962 5.47944 12.7616 4.54856 12.4999C3.61768 12.2381 2.76323 11.7567 2.05703 11.0962C1.35083 10.4356 0.81351 9.61522 0.490221 8.70391C0.166933 7.7926 0.0671245 6.81701 0.199183 5.85912C0.331242 4.90123 0.69131 3.98903 1.24913 3.19918C1.80694 2.40933 2.54621 1.76491 3.4048 1.32008C4.2634 0.87525 5.21622 0.643001 6.18322 0.642853ZM6.18322 1.89278C5.55398 1.89278 4.9309 2.01671 4.34956 2.2575C3.76821 2.49829 3.23999 2.85122 2.79505 3.29614C2.35011 3.74106 1.99717 4.26926 1.75637 4.85058C1.51557 5.43189 1.39163 6.05495 1.39163 6.68416C1.39163 7.31337 1.51557 7.93642 1.75637 8.51774C1.99717 9.09906 2.35011 9.62726 2.79505 10.0722C3.23999 10.5171 3.76821 10.87 4.34956 11.1108C4.9309 11.3516 5.55398 11.4755 6.18322 11.4755C7.45402 11.4755 8.67278 10.9707 9.57138 10.0722C10.47 9.17362 10.9748 7.95491 10.9748 6.68416C10.9748 5.41341 10.47 4.1947 9.57138 3.29614C8.67278 2.39758 7.45402 1.89278 6.18322 1.89278Z" fill="#828282"/>
<path d="M10.8748 10.4914L9.32197 9.23099L8.18571 10.6308L9.46062 11.9057L10.8748 10.4914ZM14.9581 14.5745L13.5439 15.9888L13.5485 15.9934L14.9581 14.5745ZM14.1447 15.5195L12.8329 17.0291L12.8905 17.0791L12.9517 17.1246L14.1447 15.5195ZM14.0747 15.4586L12.6607 16.873L12.7101 16.9224L12.7629 16.9683L14.0747 15.4586ZM9.99065 11.3755L11.4047 9.96116L10.1301 8.68693L8.73058 9.82242L9.99065 11.3755ZM1.39163 6.68416H-0.608369H1.39163ZM6.18322 11.4755V9.47554V11.4755ZM6.18347 2.64285C6.94725 2.64276 7.69543 2.85908 8.34129 3.26675L10.4763 -0.115794C9.19125 -0.92693 7.70263 -1.35734 6.18297 -1.35715L6.18347 2.64285ZM8.34129 3.26675C8.98716 3.67442 9.50427 4.25673 9.83272 4.94622L13.4439 3.22595C12.7904 1.85401 11.7614 0.695342 10.4763 -0.115794L8.34129 3.26675ZM9.83272 4.94622C10.1612 5.6357 10.2875 6.40413 10.1971 7.16246L14.169 7.63591C14.3489 6.12694 14.0975 4.59789 13.4439 3.22595L9.83272 4.94622ZM10.1971 7.16246C10.1067 7.9208 9.8033 8.63801 9.32197 9.23099L12.4276 11.7519C13.3854 10.572 13.9891 9.14488 14.169 7.63591L10.1971 7.16246ZM9.46062 11.9057L13.5439 15.9888L16.3723 13.1603L12.289 9.07719L9.46062 11.9057ZM13.5485 15.9934C13.3019 15.7484 13.1572 15.419 13.1436 15.0715L17.1406 14.9155C17.1147 14.2522 16.8385 13.6234 16.3676 13.1556L13.5485 15.9934ZM13.1436 15.0715C13.1301 14.7241 13.2486 14.3844 13.4754 14.1209L16.5071 16.7303C16.9401 16.2272 17.1665 15.5788 17.1406 14.9155L13.1436 15.0715ZM13.4754 14.1209C13.7023 13.8574 14.0205 13.6896 14.366 13.6512L14.807 17.6269C15.4666 17.5537 16.0741 17.2333 16.5071 16.7303L13.4754 14.1209ZM14.366 13.6512C14.7115 13.6129 15.0588 13.7069 15.3378 13.9143L12.9517 17.1246C13.4844 17.5206 14.1473 17.7 14.807 17.6269L14.366 13.6512ZM15.4566 14.0098L15.3866 13.949L12.7629 16.9683L12.8329 17.0291L15.4566 14.0098ZM15.4888 14.0442L11.4047 9.96116L8.57661 12.7899L12.6607 16.873L15.4888 14.0442ZM8.73058 9.82242C8.22824 10.23 7.63541 10.511 7.0019 10.6419L7.8112 14.5591C9.07167 14.2987 10.2512 13.7396 11.2507 12.9287L8.73058 9.82242ZM7.0019 10.6419C6.36839 10.7728 5.71271 10.7497 5.08998 10.5745L4.00713 14.4252C5.24616 14.7736 6.55073 14.8196 7.8112 14.5591L7.0019 10.6419ZM5.08998 10.5745C4.46725 10.3994 3.89566 10.0774 3.42324 9.63552L0.690823 12.5568C1.63081 13.436 2.7681 14.0768 4.00713 14.4252L5.08998 10.5745ZM3.42324 9.63552C2.95082 9.19365 2.59139 8.64485 2.37513 8.03524L-1.39469 9.37259C-0.964369 10.5856 -0.249161 11.6776 0.690823 12.5568L3.42324 9.63552ZM2.37513 8.03524C2.15887 7.42563 2.09211 6.77303 2.18044 6.13226L-1.78208 5.58597C-1.95786 6.86099 -1.825 8.15957 -1.39469 9.37259L2.37513 8.03524ZM2.18044 6.13226C2.26878 5.4915 2.50964 4.88129 2.88279 4.35293L-0.384537 2.04543C-1.12702 3.09676 -1.6063 4.31095 -1.78208 5.58597L2.18044 6.13226ZM2.88279 4.35293C3.25594 3.82456 3.75048 3.39348 4.32485 3.0959L2.48476 -0.455734C1.34195 0.136353 0.357948 0.9941 -0.384537 2.04543L2.88279 4.35293ZM4.32485 3.0959C4.89921 2.79832 5.53663 2.64295 6.18352 2.64285L6.18291 -1.35715C4.89582 -1.35695 3.62758 -1.04782 2.48476 -0.455734L4.32485 3.0959ZM6.18322 -0.107222C5.29134 -0.107222 4.4082 0.0684377 3.58422 0.40973L5.11489 4.10527C5.45359 3.96498 5.81661 3.89278 6.18322 3.89278V-0.107222ZM3.58422 0.40973C2.76023 0.751022 2.01153 1.25126 1.38087 1.8819L4.20924 4.71038C4.46846 4.45118 4.7762 4.24556 5.11489 4.10527L3.58422 0.40973ZM1.38087 1.8819C0.75021 2.51253 0.249937 3.26121 -0.0913788 4.08518L3.60412 5.61597C3.7444 5.27731 3.95002 4.96959 4.20924 4.71038L1.38087 1.8819ZM-0.0913788 4.08518C-0.432695 4.90916 -0.608369 5.79229 -0.608369 6.68416H3.39163C3.39163 6.3176 3.46383 5.95463 3.60412 5.61597L-0.0913788 4.08518ZM-0.608369 6.68416C-0.608369 7.57603 -0.432695 8.45916 -0.0913788 9.28314L3.60412 7.75235C3.46383 7.41369 3.39163 7.05072 3.39163 6.68416H-0.608369ZM-0.0913788 9.28314C0.249937 10.1071 0.75021 10.8558 1.38087 11.4864L4.20924 8.65793C3.95002 8.39872 3.7444 8.09101 3.60412 7.75235L-0.0913788 9.28314ZM1.38087 11.4864C2.01153 12.1171 2.76023 12.6173 3.58422 12.9586L5.11489 9.26305C4.7762 9.12276 4.46846 8.91714 4.20924 8.65793L1.38087 11.4864ZM3.58422 12.9586C4.4082 13.2999 5.29134 13.4755 6.18322 13.4755V9.47554C5.81661 9.47554 5.45359 9.40333 5.11489 9.26305L3.58422 12.9586ZM6.18322 13.4755C7.98443 13.4755 9.71189 12.76 10.9856 11.4864L8.15719 8.65793C7.63368 9.18143 6.92362 9.47554 6.18322 9.47554V13.4755ZM10.9856 11.4864C12.2592 10.2128 12.9748 8.48537 12.9748 6.68416H8.9748C8.9748 7.42445 8.68071 8.13444 8.15719 8.65793L10.9856 11.4864ZM12.9748 6.68416C12.9748 4.88295 12.2592 3.15552 10.9856 1.8819L8.15719 4.71038C8.68071 5.23388 8.9748 5.94387 8.9748 6.68416H12.9748ZM10.9856 1.8819C9.71189 0.608276 7.98443 -0.107222 6.18322 -0.107222V3.89278C6.92362 3.89278 7.63368 4.18689 8.15719 4.71038L10.9856 1.8819Z" fill="#828282" mask="url(#path-1-inside-1_345_80)"/>
</svg>
