<svg width="21" height="22" viewBox="0 0 21 22" fill="none" xmlns="http://www.w3.org/2000/svg">
<path d="M8.45689 0.537109C10.0553 0.53691 11.6211 0.989621 12.9727 1.84278C14.3244 2.69595 15.4066 3.91463 16.094 5.35763C16.7814 6.80063 17.0459 8.40886 16.8567 9.99598C16.6675 11.5831 16.0324 13.0841 15.0251 14.3251L20.7417 20.0414C20.8986 20.1974 20.9907 20.407 20.9993 20.628C21.008 20.8491 20.9325 21.0652 20.7882 21.2329C20.6439 21.4006 20.4414 21.5074 20.2215 21.5318C20.0016 21.5562 19.7806 21.4963 19.603 21.3644L19.505 21.2792L13.7873 15.5629C12.736 16.4158 11.4953 17.0039 10.1696 17.2778C8.84377 17.5517 7.4716 17.5034 6.16837 17.1369C4.86514 16.7704 3.66891 16.0965 2.68023 15.1717C1.69156 14.247 0.939304 13.0984 0.486701 11.8226C0.034097 10.5468 -0.105635 9.18093 0.0792474 7.83988C0.26413 6.49883 0.768225 5.22175 1.54917 4.11597C2.33011 3.01018 3.36509 2.108 4.56712 1.48523C5.76915 0.862466 7.1031 0.537317 8.45689 0.537109ZM8.45689 2.28701C7.57596 2.28701 6.70365 2.46051 5.88977 2.79762C5.07589 3.13472 4.33638 3.62882 3.71347 4.25171C3.09055 4.8746 2.59643 5.61408 2.25931 6.42792C1.92219 7.24177 1.74867 8.11404 1.74867 8.99494C1.74867 9.87584 1.92219 10.7481 2.25931 11.562C2.59643 12.3758 3.09055 13.1153 3.71347 13.7382C4.33638 14.3611 5.07589 14.8552 5.88977 15.1923C6.70365 15.5294 7.57596 15.7029 8.45689 15.7029C10.236 15.7029 11.9423 14.9961 13.2003 13.7382C14.4584 12.4802 15.1651 10.774 15.1651 8.99494C15.1651 7.21588 14.4584 5.50969 13.2003 4.25171C11.9423 2.99373 10.236 2.28701 8.45689 2.28701Z" fill="#333333"/>
</svg>
