<svg width="513" height="54" viewBox="0 0 513 54" fill="none" xmlns="http://www.w3.org/2000/svg">
<g clip-path="url(#clip0_114_1053)">
<path d="M67.6602 44.2921V53.7765H66.7227V43.398H71.9105V44.2921H67.6602Z" fill="#2386C3"/>
<path d="M81.5052 46.4317C81.5052 46.8149 81.4427 47.1981 81.349 47.5813C81.2552 47.9645 81.0677 48.2838 80.8489 48.5393C80.6302 48.8267 80.3177 49.0503 79.9739 49.2099C79.5989 49.3696 79.1613 49.4654 78.6613 49.4654H76.6924V53.7765H75.7549V43.398H78.6301C79.5676 43.398 80.2864 43.6535 80.7864 44.1644C81.2552 44.6434 81.5052 45.4098 81.5052 46.4317ZM80.5677 46.4317C80.5677 45.7611 80.4114 45.2501 80.0989 44.8669C79.7864 44.4837 79.2864 44.2921 78.5988 44.2921H76.7237V48.5713H78.6301C79.0051 48.5713 79.3176 48.5074 79.5676 48.4116C79.8176 48.2838 80.0364 48.1561 80.1614 47.9645C80.3177 47.7729 80.4114 47.5494 80.5052 47.2939C80.5364 47.0065 80.5677 46.7191 80.5677 46.4317Z" fill="#2386C3"/>
<path d="M89.4427 47.4855C89.0052 48.8587 88.5676 50.1999 88.1301 51.573C87.9738 52.052 87.8176 52.4672 87.6613 52.7546C87.5051 53.042 87.3488 53.2974 87.1613 53.4571C86.9738 53.6168 86.8175 53.7445 86.5988 53.7765C86.4112 53.8403 86.1925 53.8723 86.005 53.8723H85.3799V53.01H85.9112C86.1612 53.01 86.38 52.9142 86.5675 52.7546C86.755 52.5949 86.9425 52.2756 87.0988 51.8285C87.13 51.7327 87.1613 51.6369 87.1925 51.5411C87.2238 51.4453 87.2551 51.3495 87.2551 51.2537C86.8175 49.9444 86.38 48.6032 85.9425 47.3258C85.5049 46.0165 85.0674 44.7073 84.6299 43.398H85.5987C85.6612 43.6534 85.7862 43.9409 85.88 44.2921C86.005 44.6434 86.13 45.0266 86.255 45.4417C86.38 45.8569 86.5362 46.272 86.6613 46.7191C86.8175 47.1662 86.9425 47.5813 87.0675 47.9964C87.1925 48.4116 87.3176 48.7948 87.4113 49.1141C87.5051 49.4654 87.5988 49.7528 87.6926 49.9444H87.7238C87.7863 49.7528 87.8801 49.4654 87.9738 49.1461C88.0676 48.7948 88.1926 48.4116 88.3176 47.9964C88.4426 47.5813 88.5676 47.1342 88.7239 46.6872C88.8489 46.2401 89.0052 45.793 89.1302 45.3779C89.2552 44.9627 89.3802 44.5795 89.4739 44.2283C89.5677 43.877 89.6614 43.5896 89.7239 43.398H90.6615C90.3177 44.7711 89.8802 46.1443 89.4427 47.4855Z" fill="#2386C3"/>
<path d="M99.3499 53.7765V44.2602H95.5059V53.7765H94.5996V43.398H100.319V53.7765H99.3499Z" fill="#2386C3"/>
<path d="M109.631 53.7765V44.2602H105.787V53.7765H104.881V43.398H110.6V53.7765H109.631Z" fill="#2386C3"/>
<path d="M120.195 53.7765L119.507 51.2856H115.976L115.288 53.7765H114.319L117.288 43.398H118.195L121.164 53.7765H120.195ZM118.413 47.23L117.788 44.8031H117.726C117.695 44.8669 117.663 45.0266 117.601 45.2501C117.538 45.4737 117.476 45.7291 117.413 45.9846C117.351 46.2401 117.288 46.4956 117.226 46.751C117.163 46.9746 117.132 47.1342 117.101 47.1981C117.07 47.3258 117.007 47.5174 116.913 47.8368C116.819 48.1561 116.726 48.4755 116.632 48.7948C116.538 49.1461 116.444 49.4654 116.351 49.7528C116.257 50.0721 116.194 50.2637 116.163 50.3915H119.288L118.413 47.23Z" fill="#2386C3"/>
<path d="M129.945 53.7765V43.4299H130.883V48.0284H132.227C132.383 48.0284 132.57 47.9965 132.727 47.9645C132.914 47.9326 133.071 47.8368 133.227 47.741C133.383 47.6452 133.539 47.4855 133.664 47.262C133.821 47.0384 133.914 46.783 134.008 46.4636L134.852 43.4299H135.727L134.946 46.4317C134.821 46.9426 134.633 47.3578 134.414 47.7091C134.196 48.0603 133.914 48.2839 133.571 48.3797C134.008 48.5074 134.321 48.7629 134.539 49.1141C134.758 49.4654 134.914 49.9125 135.039 50.4234L135.914 53.7765H134.946L134.133 50.5512C134.039 50.1999 133.946 49.9125 133.821 49.689C133.696 49.4654 133.539 49.3057 133.383 49.178C133.227 49.0503 133.039 48.9864 132.883 48.9545C132.695 48.9225 132.508 48.8906 132.32 48.8906H130.852V53.7765H129.945Z" fill="#2386C3"/>
<path d="M145.353 50.8066C145.353 51.2537 145.29 51.6688 145.134 52.052C144.978 52.4352 144.79 52.7546 144.54 53.01C144.29 53.2655 143.978 53.4891 143.634 53.6487C143.29 53.8084 142.884 53.8723 142.446 53.8723C141.946 53.8723 141.509 53.7765 141.134 53.6168C140.759 53.4571 140.446 53.2336 140.228 52.9462C139.978 52.6588 139.79 52.3075 139.696 51.9243C139.571 51.5411 139.509 51.126 139.509 50.6789V46.304C139.509 45.9208 139.571 45.5695 139.696 45.1863C139.821 44.835 139.978 44.5157 140.228 44.2283C140.478 43.9409 140.759 43.7173 141.134 43.5577C141.509 43.398 141.946 43.3022 142.478 43.3022C142.946 43.3022 143.384 43.398 143.728 43.5577C144.103 43.7173 144.384 43.9409 144.634 44.2283C144.884 44.5157 145.072 44.835 145.197 45.1863C145.322 45.5375 145.384 45.9208 145.384 46.3359V50.8066H145.353ZM144.384 46.3359C144.384 46.1124 144.353 45.8569 144.259 45.6333C144.197 45.3779 144.072 45.1543 143.915 44.9627C143.759 44.7711 143.572 44.5795 143.322 44.4518C143.072 44.3241 142.759 44.2602 142.415 44.2602C142.071 44.2602 141.759 44.3241 141.509 44.4518C141.259 44.5795 141.04 44.7392 140.884 44.9308C140.728 45.1224 140.603 45.3459 140.509 45.6014C140.415 45.8569 140.384 46.1124 140.384 46.3678V50.7427C140.384 51.0621 140.415 51.3814 140.509 51.6688C140.603 51.9562 140.728 52.1798 140.884 52.4033C141.04 52.5949 141.259 52.7546 141.509 52.8823C141.759 53.01 142.071 53.042 142.415 53.042C142.696 53.042 142.947 52.9781 143.197 52.8823C143.447 52.7865 143.634 52.6268 143.822 52.4352C144.009 52.2436 144.134 52.0201 144.228 51.7646C144.322 51.5092 144.384 51.2218 144.384 50.9344V46.3359Z" fill="#2386C3"/>
<path d="M156.322 53.7765V45.7611H156.29L155.134 48.6032L153.79 51.7646H153.134C153.071 51.6369 153.009 51.4134 152.884 51.126C152.759 50.8386 152.634 50.5192 152.478 50.1679C152.321 49.8486 152.196 49.5293 152.071 49.2099C151.946 48.9225 151.853 48.699 151.79 48.5713L150.665 45.793H150.603V53.7765H149.696V43.398H150.634C150.665 43.4938 150.728 43.6534 150.821 43.877C150.915 44.0686 151.009 44.3241 151.103 44.5795C151.196 44.835 151.321 45.0905 151.446 45.3779C151.571 45.6653 151.696 45.9208 151.79 46.1762C151.884 46.4317 152.009 46.6552 152.071 46.8788C152.165 47.0704 152.228 47.23 152.29 47.3578L153.478 50.2637H153.509L154.728 47.3258L156.384 43.4299H157.29V53.8084H156.322V53.7765Z" fill="#2386C3"/>
<path d="M166.51 53.7765V44.2602H162.666V53.7765H161.76V43.398H167.479V53.7765H166.51Z" fill="#2386C3"/>
<path d="M177.073 53.7765L176.385 51.2856H172.854L172.166 53.7765H171.197L174.166 43.398H175.073L178.041 53.7765H177.073ZM175.291 47.23L174.666 44.8031H174.604C174.572 44.8669 174.541 45.0266 174.479 45.2501C174.416 45.4737 174.354 45.7291 174.291 45.9846C174.229 46.2401 174.166 46.4956 174.104 46.751C174.041 46.9746 174.01 47.1342 173.979 47.1981C173.947 47.3258 173.885 47.5174 173.791 47.8368C173.697 48.1561 173.604 48.4755 173.51 48.7948C173.416 49.1461 173.322 49.4654 173.229 49.7528C173.135 50.0721 173.072 50.2637 173.041 50.3915H176.166L175.291 47.23Z" fill="#2386C3"/>
<path d="M186.636 53.7765V48.9225H182.73V53.7765H181.823V43.398H182.73V48.0603H186.636V43.398H187.605V53.7765H186.636Z" fill="#2386C3"/>
<path d="M192.137 53.7765V43.398H193.043V51.9562H193.106L197.418 43.3661H198.293V53.7445H197.387V45.1543H197.356L193.043 53.7445H192.137V53.7765Z" fill="#2386C3"/>
<path d="M202.824 53.7765V43.398H203.731V51.9562H203.793L208.106 43.3661H208.981V53.7445H208.075V45.1544H208.043L203.731 53.7445H202.824V53.7765ZM204.824 40.9391C204.856 41.1946 204.981 41.4181 205.168 41.6416C205.387 41.8652 205.637 41.961 205.949 41.961C206.293 41.961 206.543 41.8652 206.762 41.6416C206.981 41.4181 207.074 41.1946 207.106 40.9391H207.856C207.825 41.1307 207.793 41.3542 207.7 41.5458C207.637 41.7694 207.512 41.929 207.356 42.1206C207.199 42.2803 207.012 42.44 206.793 42.5358C206.574 42.6635 206.262 42.6955 205.949 42.6955C205.606 42.6955 205.324 42.6316 205.074 42.5358C204.824 42.408 204.637 42.2803 204.481 42.0887C204.324 41.929 204.231 41.7374 204.137 41.5139C204.074 41.2904 204.012 41.0988 204.012 40.9072H204.824V40.9391Z" fill="#2386C3"/>
<path d="M223.294 53.7765V44.2602H219.45V53.7765H218.544V43.398H224.263V53.7765H223.294Z" fill="#2386C3"/>
<path d="M233.764 44.2602H230.42V48.9225C230.42 49.7847 230.389 50.5192 230.295 51.126C230.201 51.7008 230.076 52.1798 229.889 52.563C229.701 52.9462 229.483 53.2336 229.201 53.4571C228.92 53.6807 228.576 53.8403 228.201 54C228.139 53.8723 228.076 53.7765 228.014 53.6487C227.951 53.521 227.889 53.3933 227.857 53.2655C228.107 53.1058 228.357 52.9462 228.576 52.7865C228.795 52.6268 228.951 52.3714 229.107 52.084C229.264 51.7966 229.358 51.4134 229.42 50.9344C229.483 50.4553 229.545 49.8486 229.545 49.1141V43.398H234.67V53.7765H233.764V44.2602Z" fill="#2386C3"/>
<path d="M239.265 53.7765V43.4299H240.202V48.0284H241.546C241.702 48.0284 241.89 47.9965 242.046 47.9645C242.202 47.9326 242.39 47.8368 242.546 47.741C242.702 47.6452 242.859 47.4855 242.984 47.262C243.14 47.0384 243.234 46.783 243.327 46.4636L244.171 43.4299H245.046L244.265 46.4317C244.14 46.9426 243.952 47.3578 243.734 47.7091C243.515 48.0603 243.234 48.2839 242.89 48.3797C243.327 48.5074 243.64 48.7629 243.859 49.1141C244.077 49.4654 244.234 49.9125 244.359 50.4234L245.234 53.7765H244.265L243.452 50.5512C243.359 50.1999 243.265 49.9125 243.14 49.689C243.015 49.4654 242.859 49.3057 242.702 49.178C242.546 49.0503 242.359 48.9864 242.202 48.9545C242.015 48.9225 241.827 48.8906 241.64 48.8906H240.171V53.7765H239.265Z" fill="#2386C3"/>
<path d="M73.1293 25.3554V7.56831H69.9103V25.3235H66.7227V4.47073H76.2857V25.3554H73.1293Z" fill="#2386C3"/>
<path d="M84.724 15.1685L87.1616 4.34299H90.1306L86.0053 20.5015C85.7241 21.6511 85.4115 22.5452 85.0678 23.2158C84.724 23.8864 84.349 24.3655 83.9739 24.7167C83.5989 25.068 83.1926 25.2915 82.7551 25.3873C82.3176 25.4831 81.8801 25.547 81.4113 25.5789H80.255V22.9604H80.9738C81.4738 22.9604 81.8488 22.8007 82.1613 22.4494C82.4738 22.1301 82.7239 21.6192 82.9426 20.9166C82.9739 20.8847 82.9739 20.8527 83.0051 20.725C83.0364 20.6292 83.0364 20.5334 83.0676 20.4057C83.0989 20.3099 83.1301 20.1821 83.1614 20.0863C83.1926 19.9905 83.2239 19.9267 83.2239 19.8628L78.9111 4.37492H82.0051L84.5365 15.1685H84.724Z" fill="#2386C3"/>
<path d="M103.413 4.34299V25.2277H100.225V7.37669H97.1312V15.424C97.1312 17.1165 97.0687 18.5216 96.9437 19.6712C96.8187 20.8208 96.5999 21.7788 96.2874 22.5452C95.9749 23.3116 95.5686 23.9503 95.0373 24.4613C94.506 24.9403 93.8185 25.3873 92.9747 25.7705L91.7559 23.3755C92.2559 23.0881 92.6934 22.7368 93.0059 22.3856C93.3185 22.0343 93.5997 21.5872 93.7872 21.0763C93.9747 20.5653 94.0997 19.9267 94.1935 19.1603C94.256 18.4258 94.2873 17.4678 94.2873 16.3501V4.34299H103.413Z" fill="#2386C3"/>
<path d="M107.976 25.2277V4.34299H111.163V13.1567H111.82C112.538 13.1567 113.101 12.9332 113.538 12.518C113.976 12.1029 114.32 11.3365 114.57 10.2507C114.601 10.0591 114.695 9.70786 114.82 9.13305C114.945 8.55824 115.07 7.9515 115.195 7.31283C115.32 6.67415 115.445 6.06741 115.57 5.4926C115.695 4.9178 115.757 4.53459 115.82 4.37492H118.789C118.57 5.42874 118.351 6.48255 118.132 7.50443C117.914 8.52631 117.695 9.58013 117.476 10.602C117.257 11.6239 116.945 12.4542 116.507 13.0928C116.07 13.7315 115.57 14.1467 115.007 14.4021V14.466C115.757 14.7534 116.32 15.2005 116.726 15.8072C117.132 16.414 117.445 17.2442 117.664 18.2661C117.914 19.4477 118.164 20.5973 118.382 21.7788C118.601 22.9284 118.851 24.0781 119.101 25.2596H115.914C115.726 24.2377 115.507 23.2158 115.32 22.194C115.132 21.1721 114.914 20.1502 114.695 19.1283C114.476 18.0106 114.163 17.2123 113.726 16.7972C113.288 16.3501 112.726 16.1265 112.007 16.1265H111.163V25.2277H107.976Z" fill="#2386C3"/>
<path d="M132.039 19.8947C132.039 21.715 131.632 23.0881 130.851 24.0142C130.039 24.9403 128.788 25.4193 127.07 25.4193C125.351 25.4193 124.101 24.9722 123.319 24.0781C122.538 23.1839 122.163 21.9066 122.163 20.2141V9.70787C122.163 8.87759 122.257 8.14312 122.444 7.47251C122.632 6.8019 122.913 6.19516 123.319 5.71615C123.726 5.23715 124.226 4.85394 124.851 4.56654C125.476 4.31107 126.257 4.1514 127.132 4.1514C128.07 4.1514 128.851 4.27913 129.476 4.5346C130.101 4.79007 130.632 5.14134 131.007 5.62035C131.382 6.09936 131.664 6.67417 131.82 7.37671C131.976 8.04732 132.07 8.81373 132.07 9.67594V19.8947H132.039ZM128.851 9.4524C128.851 8.8776 128.726 8.36666 128.476 7.88765C128.226 7.44058 127.757 7.18511 127.07 7.18511C126.695 7.18511 126.382 7.28091 126.163 7.44058C125.913 7.60024 125.757 7.82378 125.632 8.07925C125.507 8.33472 125.413 8.62213 125.382 8.90953C125.32 9.22887 125.32 9.51627 125.32 9.77174V20.278C125.32 20.8208 125.445 21.2998 125.726 21.7469C125.976 22.162 126.445 22.3856 127.101 22.3856C127.757 22.3856 128.195 22.162 128.476 21.715C128.757 21.2679 128.882 20.725 128.882 20.0863V9.4524H128.851Z" fill="#2386C3"/>
<path d="M143.821 14.3063C144.727 14.5937 145.352 15.1685 145.665 16.0307C146.008 16.861 146.165 17.819 146.165 18.9048C146.165 21.0763 145.696 22.673 144.79 23.6948C143.915 24.7167 142.508 25.2277 140.633 25.2277H136.414V4.34299H140.883C142.696 4.34299 143.977 4.82199 144.79 5.81194C145.602 6.76995 146.008 8.17504 146.008 10.0272C146.008 10.9852 145.852 11.8155 145.508 12.55C145.196 13.2844 144.633 13.7954 143.821 14.1786V14.3063ZM142.977 10.0911C142.977 9.13305 142.789 8.43051 142.414 8.01537C142.039 7.60023 141.414 7.37669 140.571 7.37669H139.571V12.7735H140.602C141.414 12.7735 142.039 12.55 142.414 12.071C142.789 11.6239 142.977 10.9533 142.977 10.0911ZM143.164 18.6174C143.164 17.6274 142.977 16.893 142.633 16.414C142.289 15.9349 141.664 15.6795 140.789 15.6795H139.571V22.162H140.821C141.321 22.162 141.727 22.0662 142.039 21.8746C142.352 21.683 142.571 21.4276 142.758 21.1082C142.914 20.7889 143.039 20.4057 143.071 19.9586C143.133 19.5754 143.164 19.1283 143.164 18.6174Z" fill="#2386C3"/>
<path d="M155.259 4.1514C156.103 4.1514 156.822 4.27913 157.447 4.50267C158.041 4.72621 158.572 5.07748 158.947 5.49262C159.353 5.90776 159.634 6.4187 159.822 7.02544C160.009 7.60024 160.103 8.27085 160.103 8.94146L157.009 9.73981C157.009 8.9734 156.853 8.36666 156.572 7.88765C156.29 7.40864 155.853 7.15317 155.228 7.15317C154.853 7.15317 154.572 7.24897 154.322 7.40864C154.103 7.56831 153.915 7.75991 153.79 8.01538C153.665 8.27085 153.571 8.52632 153.54 8.81373C153.478 9.10113 153.478 9.38854 153.478 9.64401V20.246C153.478 20.4376 153.509 20.6612 153.54 20.9166C153.571 21.1721 153.665 21.3956 153.79 21.5872C153.915 21.8108 154.103 21.9704 154.322 22.0982C154.54 22.2259 154.822 22.3217 155.197 22.3217C156.353 22.3217 156.947 21.4595 156.978 19.7351C157.509 19.8309 158.041 19.9267 158.572 19.9905C159.103 20.0544 159.634 20.1502 160.166 20.2141C160.134 21.8108 159.697 23.0562 158.884 23.9503C158.072 24.8764 156.884 25.3235 155.29 25.3235C153.603 25.3235 152.353 24.8764 151.571 24.0142C150.759 23.152 150.353 21.8746 150.353 20.1821V9.86754C150.353 9.10113 150.446 8.36665 150.603 7.66411C150.759 6.96157 151.04 6.35483 151.446 5.84389C151.853 5.33295 152.353 4.91781 152.978 4.59847C153.571 4.31107 154.353 4.1514 155.259 4.1514Z" fill="#2386C3"/>
<path d="M163.854 25.2277V4.34299H167.041V13.1567H167.697C168.416 13.1567 168.979 12.9332 169.416 12.518C169.854 12.1029 170.198 11.3365 170.448 10.2507C170.479 10.0591 170.573 9.70786 170.698 9.13305C170.823 8.55824 170.948 7.9515 171.073 7.31283C171.198 6.67415 171.323 6.06741 171.448 5.4926C171.573 4.9178 171.635 4.53459 171.698 4.37492H174.667C174.448 5.42874 174.229 6.48255 174.01 7.50443C173.792 8.52631 173.573 9.58013 173.354 10.602C173.135 11.6239 172.823 12.4542 172.385 13.0928C171.948 13.7315 171.448 14.1467 170.885 14.4021V14.466C171.635 14.7534 172.198 15.2005 172.604 15.8072C173.01 16.414 173.323 17.2442 173.542 18.2661C173.792 19.4477 174.042 20.5973 174.26 21.7788C174.479 22.9284 174.729 24.0781 174.979 25.2596H171.792C171.604 24.2377 171.385 23.2158 171.198 22.194C171.01 21.1721 170.791 20.1502 170.573 19.1283C170.354 18.0106 170.041 17.2123 169.604 16.7972C169.166 16.3501 168.604 16.1265 167.885 16.1265H167.041V25.2277H163.854Z" fill="#2386C3"/>
<path d="M185.574 25.2277L184.792 20.8847H181.042C180.917 21.6192 180.761 22.3217 180.636 23.0562C180.511 23.7907 180.386 24.5251 180.261 25.2277H177.042C177.73 21.715 178.417 18.2342 179.105 14.7853C179.792 11.3365 180.48 7.8557 181.167 4.34299H184.699L188.793 25.2277H185.574ZM182.792 9.16499C182.605 10.602 182.386 12.039 182.167 13.476C181.949 14.9131 181.73 16.3501 181.449 17.851H184.23L182.917 9.16499H182.792Z" fill="#2386C3"/>
<path d="M191.293 25.2277L192.449 18.5855C192.574 17.8829 192.793 17.2443 193.106 16.6694C193.387 16.0946 193.824 15.6476 194.324 15.3282C193.387 14.9131 192.731 14.3383 192.387 13.508C192.043 12.7097 191.856 11.7197 191.856 10.5701C191.856 8.52633 192.356 6.96158 193.324 5.87583C194.293 4.82202 195.606 4.27914 197.293 4.27914H201.95V25.2277H198.762V16.3182H197.95C197.387 16.3182 196.887 16.5417 196.45 16.9888C195.981 17.4359 195.668 18.2023 195.481 19.3199L194.512 25.2277H191.293ZM197.575 7.37672C196.606 7.37672 195.95 7.66412 195.574 8.27087C195.199 8.84567 195.012 9.64402 195.012 10.602C195.012 11.6239 195.262 12.3265 195.731 12.7097C196.2 13.0929 196.825 13.2845 197.575 13.2845H198.825V7.37672H197.575Z" fill="#2386C3"/>
<path d="M223.795 4.34299V25.2277H220.607V7.37669H217.513V15.424C217.513 17.1165 217.451 18.5216 217.326 19.6712C217.201 20.8208 216.982 21.7788 216.669 22.5452C216.357 23.3116 215.95 23.9503 215.419 24.4613C214.888 24.9403 214.2 25.3873 213.357 25.7705L212.138 23.3755C212.638 23.0881 213.075 22.7368 213.388 22.3856C213.7 22.0343 213.982 21.5872 214.169 21.0763C214.357 20.5653 214.482 19.9267 214.575 19.1603C214.638 18.4258 214.669 17.4678 214.669 16.3501V4.34299H223.795Z" fill="#2386C3"/>
<path d="M238.046 19.8947C238.046 21.715 237.639 23.0881 236.858 24.0142C236.045 24.9403 234.795 25.4193 233.076 25.4193C231.358 25.4193 230.108 24.9722 229.326 24.0781C228.545 23.1839 228.17 21.9066 228.17 20.2141V9.70787C228.17 8.87759 228.264 8.14312 228.451 7.47251C228.639 6.8019 228.92 6.19516 229.326 5.71615C229.733 5.23715 230.233 4.85394 230.858 4.56654C231.483 4.31107 232.264 4.1514 233.139 4.1514C234.077 4.1514 234.858 4.27913 235.483 4.5346C236.108 4.79007 236.639 5.14134 237.014 5.62035C237.389 6.09936 237.671 6.67417 237.827 7.37671C237.983 8.04732 238.077 8.81373 238.077 9.67594V19.8947H238.046ZM234.889 9.4524C234.889 8.8776 234.764 8.36666 234.514 7.88765C234.264 7.44058 233.795 7.18511 233.108 7.18511C232.733 7.18511 232.42 7.28091 232.201 7.44058C231.951 7.60024 231.795 7.82378 231.67 8.07925C231.545 8.33472 231.451 8.62213 231.42 8.90953C231.358 9.22887 231.358 9.51627 231.358 9.77174V20.278C231.358 20.8208 231.483 21.2998 231.764 21.7469C232.014 22.162 232.483 22.3856 233.139 22.3856C233.795 22.3856 234.233 22.162 234.514 21.715C234.795 21.2679 234.92 20.725 234.92 20.0863V9.4524H234.889Z" fill="#2386C3"/>
<path d="M245.577 7.37669V25.2277H242.39V4.34299H251.265V7.37669H245.577Z" fill="#2386C3"/>
<path d="M262.141 12.1348L257.86 25.2277H254.797V4.34299H257.891V17.5955H258.016L262.266 4.34299H265.36V25.2277H262.235V12.1348H262.141Z" fill="#2386C3"/>
<path d="M274.517 4.1514C275.361 4.1514 276.08 4.27913 276.705 4.50267C277.298 4.72621 277.83 5.07748 278.205 5.49262C278.611 5.90776 278.892 6.4187 279.08 7.02544C279.267 7.60024 279.361 8.27085 279.361 8.94146L276.267 9.73981C276.267 8.9734 276.111 8.36666 275.829 7.88765C275.548 7.40864 275.111 7.15317 274.486 7.15317C274.111 7.15317 273.829 7.24897 273.579 7.40864C273.361 7.56831 273.173 7.75991 273.048 8.01538C272.923 8.27085 272.829 8.52632 272.798 8.81373C272.736 9.10113 272.736 9.38854 272.736 9.64401V20.246C272.736 20.4376 272.767 20.6612 272.798 20.9166C272.829 21.1721 272.923 21.3956 273.048 21.5872C273.173 21.8108 273.361 21.9704 273.579 22.0982C273.798 22.2259 274.079 22.3217 274.423 22.3217C275.579 22.3217 276.173 21.4595 276.205 19.7351C276.736 19.8309 277.267 19.9267 277.798 19.9905C278.33 20.0544 278.861 20.1502 279.392 20.2141C279.361 21.8108 278.923 23.0562 278.111 23.9503C277.298 24.8764 276.111 25.3235 274.517 25.3235C272.829 25.3235 271.579 24.8764 270.798 24.0142C269.985 23.152 269.579 21.8746 269.579 20.1821V9.86754C269.579 9.10113 269.673 8.36665 269.829 7.66411C269.985 6.96157 270.267 6.35483 270.673 5.84389C271.079 5.33295 271.579 4.91781 272.204 4.59847C272.829 4.31107 273.611 4.1514 274.517 4.1514Z" fill="#2386C3"/>
<path d="M288.142 7.37669V25.2277H284.954V7.37669H281.673V4.34299H291.423V7.37669H288.142Z" fill="#2386C3"/>
<path d="M301.799 12.1348L297.518 25.2277H294.455V4.34299H297.549V17.5955H297.674L301.893 4.34299H304.987V25.2277H301.862V12.1348H301.799Z" fill="#2386C3"/>
<path d="M312.206 4.34299V11.9752C312.206 12.8693 312.362 13.4441 312.706 13.7315C313.05 14.0189 313.519 14.1786 314.144 14.1786C314.363 14.1786 314.644 14.1467 314.925 14.0828C315.206 14.0189 315.488 13.9231 315.769 13.8273V4.34299H318.957V25.2277H315.769V16.7014C315.363 16.8291 314.988 16.893 314.581 16.9568C314.175 17.0207 313.8 17.0207 313.456 17.0207C312.769 17.0207 312.144 16.9249 311.612 16.7652C311.081 16.6056 310.612 16.3501 310.237 15.9669C309.862 15.5837 309.55 15.1047 309.362 14.5299C309.144 13.9551 309.05 13.2206 309.05 12.3584V4.34299H312.206Z" fill="#2386C3"/>
<path d="M323.426 25.2277V4.34299H332.489V7.37669H326.582V13.0928H331.708V16.1904H326.582V22.2259H332.489V25.2277H323.426Z" fill="#2386C3"/>
<path d="M340.833 4.1514C341.677 4.1514 342.396 4.27913 343.021 4.50267C343.615 4.72621 344.146 5.07748 344.521 5.49262C344.927 5.90776 345.209 6.4187 345.396 7.02544C345.584 7.60024 345.677 8.27085 345.677 8.94146L342.583 9.73981C342.583 8.9734 342.427 8.36666 342.146 7.88765C341.865 7.40864 341.427 7.15317 340.802 7.15317C340.427 7.15317 340.146 7.24897 339.896 7.40864C339.677 7.56831 339.489 7.75991 339.364 8.01538C339.239 8.27085 339.146 8.52632 339.114 8.81373C339.083 9.10113 339.052 9.38854 339.052 9.64401V20.246C339.052 20.4376 339.083 20.6612 339.114 20.9166C339.146 21.1721 339.239 21.3956 339.364 21.5872C339.489 21.8108 339.677 21.9704 339.896 22.0982C340.114 22.2259 340.396 22.3217 340.74 22.3217C341.896 22.3217 342.49 21.4595 342.521 19.7351C343.052 19.8309 343.583 19.9267 344.115 19.9905C344.646 20.0544 345.177 20.1502 345.709 20.2141C345.677 21.8108 345.24 23.0562 344.427 23.9503C343.615 24.8764 342.427 25.3235 340.833 25.3235C339.146 25.3235 337.896 24.8764 337.114 24.0142C336.302 23.152 335.896 21.8746 335.896 20.1821V9.86754C335.896 9.10113 335.989 8.36665 336.146 7.66411C336.302 6.96157 336.583 6.35483 336.989 5.84389C337.396 5.33295 337.896 4.91781 338.521 4.59847C339.146 4.31107 339.927 4.1514 340.833 4.1514Z" fill="#2386C3"/>
<path d="M349.428 25.2277V4.34299H352.615V13.1567H353.272C353.991 13.1567 354.553 12.9332 354.991 12.518C355.428 12.1029 355.772 11.3365 356.022 10.2507C356.053 10.0591 356.147 9.70786 356.272 9.13305C356.397 8.55824 356.522 7.9515 356.647 7.31283C356.772 6.67415 356.897 6.06741 357.022 5.4926C357.147 4.9178 357.209 4.53459 357.272 4.37492H360.241C360.022 5.42874 359.803 6.48255 359.585 7.50443C359.366 8.52631 359.147 9.58013 358.928 10.602C358.71 11.6239 358.397 12.4542 357.96 13.0928C357.522 13.7315 357.022 14.1467 356.459 14.4021V14.466C357.209 14.7534 357.772 15.2005 358.178 15.8072C358.585 16.414 358.897 17.2442 359.116 18.2661C359.366 19.4477 359.616 20.5973 359.835 21.7788C360.053 22.9284 360.303 24.0781 360.553 25.2596H357.366C357.178 24.2377 356.959 23.2158 356.772 22.194C356.584 21.1721 356.366 20.1502 356.147 19.1283C355.928 18.0106 355.616 17.2123 355.178 16.7972C354.741 16.3501 354.178 16.1265 353.459 16.1265H352.615V25.2277H349.428Z" fill="#2386C3"/>
<path d="M371.116 25.2277L370.334 20.8847H366.584C366.459 21.6192 366.303 22.3217 366.178 23.0562C366.053 23.7907 365.928 24.5251 365.803 25.2277H362.584C363.272 21.715 363.959 18.2342 364.647 14.7853C365.334 11.3365 366.022 7.8557 366.709 4.34299H370.241L374.397 25.2277H371.116ZM368.366 9.16499C368.178 10.602 367.959 12.039 367.741 13.476C367.522 14.9131 367.303 16.3501 367.022 17.851H369.803L368.491 9.16499H368.366Z" fill="#2386C3"/>
<path d="M376.866 25.2277L378.023 18.5855C378.148 17.8829 378.366 17.2443 378.679 16.6694C378.96 16.0946 379.398 15.6476 379.898 15.3282C378.96 14.9131 378.304 14.3383 377.96 13.508C377.616 12.7097 377.429 11.7197 377.429 10.5701C377.429 8.52633 377.929 6.96158 378.898 5.87583C379.866 4.82202 381.179 4.27914 382.867 4.27914H387.523V25.2277H384.335V16.3182H383.523C382.96 16.3182 382.46 16.5417 382.023 16.9888C381.554 17.4359 381.241 18.2023 381.054 19.3199L380.085 25.2277H376.866ZM383.117 7.37672C382.148 7.37672 381.491 7.66412 381.116 8.27087C380.741 8.84567 380.554 9.64402 380.554 10.602C380.554 11.6239 380.804 12.3265 381.273 12.7097C381.741 13.0929 382.367 13.2845 383.117 13.2845H384.367V7.37672H383.117Z" fill="#2386C3"/>
<path d="M399.118 25.2277V4.34299H402.306V13.1567H402.962C403.681 13.1567 404.243 12.9332 404.681 12.518C405.119 12.1029 405.462 11.3365 405.712 10.2507C405.744 10.0591 405.837 9.70786 405.962 9.13305C406.087 8.55824 406.212 7.9515 406.337 7.31283C406.462 6.67415 406.587 6.06741 406.712 5.4926C406.837 4.9178 406.9 4.53459 406.962 4.37492H409.931C409.713 5.42874 409.494 6.48255 409.275 7.50443C409.056 8.52631 408.838 9.58013 408.619 10.602C408.4 11.6239 408.087 12.4542 407.65 13.0928C407.212 13.7315 406.712 14.1467 406.15 14.4021V14.466C406.9 14.7534 407.462 15.2005 407.869 15.8072C408.275 16.414 408.587 17.2442 408.806 18.2661C409.056 19.4477 409.306 20.5973 409.525 21.7788C409.744 22.9284 409.994 24.0781 410.244 25.2596H407.056C406.869 24.2377 406.65 23.2158 406.462 22.194C406.275 21.1721 406.056 20.1502 405.837 19.1283C405.619 18.0106 405.306 17.2123 404.869 16.7972C404.431 16.3501 403.868 16.1265 403.15 16.1265H402.306V25.2277H399.118Z" fill="#2386C3"/>
<path d="M423.213 19.8947C423.213 21.715 422.807 23.0881 422.026 24.0142C421.213 24.9403 419.963 25.4193 418.244 25.4193C416.526 25.4193 415.276 24.9722 414.494 24.0781C413.713 23.1839 413.338 21.9066 413.338 20.2141V9.70787C413.338 8.87759 413.432 8.14312 413.619 7.47251C413.807 6.8019 414.088 6.19516 414.494 5.71615C414.901 5.23715 415.401 4.85394 416.026 4.56654C416.651 4.31107 417.432 4.1514 418.307 4.1514C419.245 4.1514 420.026 4.27913 420.651 4.5346C421.276 4.79007 421.807 5.14134 422.182 5.62035C422.557 6.09936 422.838 6.67417 422.995 7.37671C423.151 8.04732 423.245 8.81373 423.245 9.67594V19.8947H423.213ZM420.026 9.4524C420.026 8.8776 419.901 8.36666 419.651 7.88765C419.401 7.44058 418.932 7.18511 418.244 7.18511C417.869 7.18511 417.557 7.28091 417.338 7.44058C417.088 7.60024 416.932 7.82378 416.807 8.07925C416.682 8.33472 416.588 8.62213 416.557 8.90953C416.494 9.22887 416.494 9.51627 416.494 9.77174V20.278C416.494 20.8208 416.619 21.2998 416.901 21.7469C417.151 22.162 417.619 22.3856 418.276 22.3856C418.932 22.3856 419.37 22.162 419.651 21.715C419.932 21.2679 420.057 20.725 420.057 20.0863V9.4524H420.026Z" fill="#2386C3"/>
<path d="M433.526 20.6611L432.057 16.7972L430.807 13.1248H430.651V25.2277H427.463V4.34299H430.557L432.776 10.2827L434.37 14.8173H434.526L436.182 10.1549L438.37 4.34299H441.432V25.2277H438.245V13.1886H438.12L436.838 16.9249L435.401 20.6611H433.526Z" fill="#2386C3"/>
<path d="M452.246 25.2277V7.4725H449.028V25.2277H445.84V4.34299H455.403V25.2277H452.246Z" fill="#2386C3"/>
<path d="M467.278 25.2277L466.497 20.8847H462.746C462.621 21.6192 462.465 22.3217 462.34 23.0562C462.215 23.7907 462.09 24.5251 461.965 25.2277H458.746C459.434 21.715 460.121 18.2342 460.809 14.7853C461.496 11.3365 462.184 7.8557 462.871 4.34299H466.403L470.559 25.2277H467.278ZM464.528 9.16499C464.34 10.602 464.121 12.039 463.903 13.476C463.684 14.9131 463.465 16.3501 463.184 17.851H465.965L464.653 9.16499H464.528Z" fill="#2386C3"/>
<path d="M480.622 25.2277V16.1265H476.966V25.2277H473.778V4.34299H476.966V13.0928H480.622V4.34299H483.81V25.2277H480.622Z" fill="#2386C3"/>
<path d="M495.498 12.1348L491.217 25.2277H488.154V4.34299H491.248V17.5955H491.373L495.624 4.34299H498.717V25.2277H495.592V12.1348H495.498Z" fill="#2386C3"/>
<path d="M502.312 25.2277L503.468 18.5855C503.593 17.8829 503.812 17.2443 504.124 16.6694C504.405 16.0946 504.843 15.6476 505.343 15.3282C504.405 14.9131 503.749 14.3383 503.405 13.508C503.062 12.7097 502.874 11.7197 502.874 10.5701C502.874 8.52633 503.374 6.96158 504.343 5.87583C505.312 4.82202 506.624 4.27914 508.312 4.27914H512.968V25.2277H509.781V16.3182H508.968C508.406 16.3182 507.906 16.5417 507.468 16.9888C506.999 17.4359 506.687 18.2023 506.499 19.3199L505.53 25.2277H502.312ZM508.593 7.37672C507.624 7.37672 506.968 7.66412 506.593 8.27087C506.218 8.84567 506.03 9.64402 506.03 10.602C506.03 11.6239 506.28 12.3265 506.749 12.7097C507.218 13.0929 507.843 13.2845 508.593 13.2845H509.843V7.37672H508.593Z" fill="#2386C3"/>
<path d="M513 33.0834H66.7227V35.3826H513V33.0834Z" fill="#2386C3"/>
<path d="M26.7516 4.43881C26.7516 4.72621 26.7516 5.01361 26.7516 5.30102C26.7516 5.39682 26.7516 5.49262 26.7516 5.58842C26.7516 5.68422 26.7516 5.81196 26.7516 5.90776L33.2208 11.8794V12.6777L26.6579 9.13307C26.6266 9.54821 26.6266 9.96335 26.5954 10.3785C26.5329 11.3684 26.4704 12.3264 26.4079 13.1887C26.4079 13.3164 26.3766 13.4441 26.3766 13.5399C26.3454 13.7954 26.3454 14.0189 26.3141 14.2425C26.2829 14.5618 26.2516 14.8811 26.2204 15.1366L28.8768 16.893V17.1165L26.0641 16.0308C26.0641 16.0946 26.0328 16.1585 26.0328 16.1904C26.0016 16.3182 25.9391 16.414 25.8766 16.414C25.8141 16.414 25.7516 16.2862 25.6891 16.0308L22.8764 17.1165V16.893L25.5328 15.1366C25.3453 13.6996 25.1578 11.3046 25.064 9.10114L18.5011 12.6777V11.8794L24.9703 5.87583C24.9703 5.65229 24.9703 5.42875 24.9703 5.23715C24.9703 4.94975 24.9703 4.66234 24.9703 4.37494H0V39.4063C24.9078 39.3743 25.8453 18.6493 25.8453 18.6493C25.8453 18.6493 26.7829 39.3743 51.6907 39.4063V4.43881H26.7516Z" fill="#2386C3"/>
<path d="M25.8465 0C25.815 0 25.7835 0 25.752 0.0319338C25.7835 0 25.815 0 25.8465 0Z" fill="white"/>
<path d="M25.752 0.0319214C25.6582 0.0957889 25.5645 0.223524 25.502 0.415127C25.5645 0.223524 25.6582 0.0957889 25.752 0.0319214Z" fill="white"/>
<path d="M24.9076 5.33295C24.9076 5.52455 24.9076 5.71615 24.9076 5.97162L18.4697 11.9432V12.7416L25.0326 9.165C25.1264 11.3684 25.3139 13.7635 25.5014 15.2005L22.845 16.9249V17.1484L25.6577 16.0627C25.7202 16.3182 25.7827 16.4459 25.8452 16.4459C25.9077 16.4459 25.9389 16.382 26.0014 16.2224C26.0014 16.1904 26.0327 16.1266 26.0327 16.0627L28.8454 17.1484V16.9249L26.1889 15.1685C26.2202 14.9131 26.2515 14.5937 26.2827 14.2744C26.314 14.0509 26.314 13.8273 26.3452 13.5719C26.3452 13.4441 26.3765 13.3164 26.3765 13.2206C26.439 12.3584 26.5015 11.3684 26.564 10.4104C26.5952 9.99528 26.5952 9.58014 26.6265 9.165L33.1894 12.7096V11.9113L26.7515 5.93969C26.7515 5.81195 26.7515 5.71615 26.7515 5.62035C26.7515 5.52455 26.7515 5.42875 26.7515 5.33295C26.7515 5.04554 26.7515 4.75814 26.7515 4.47073H24.9389C24.9389 4.7262 24.9076 5.01361 24.9076 5.33295Z" fill="white"/>
<path d="M26.7521 4.47073C26.7521 4.43879 26.7521 4.43879 26.7521 4.47073C26.7208 3.51271 26.6583 2.6505 26.5645 1.94796C26.502 1.43702 26.4083 0.989947 26.2833 0.638675C26.1583 0.223536 26.002 0 25.8458 0C25.8145 0 25.7833 0 25.752 0.0319338C25.6582 0.0958013 25.5645 0.223536 25.502 0.415139C25.2207 1.11768 25.002 2.61857 24.9707 4.43879H26.7521V4.47073Z" fill="#2386C3"/>
<path d="M51.6907 41.6736H0V53.7764H51.6907V41.6736Z" fill="#EA6261"/>
<path d="M3.4376 46.1762H5.21896V51.0621H6.8128V44.6115H1.8125V51.0621H3.4376V46.1762Z" fill="white"/>
<path d="M10.5627 48.1242L10.6564 46.1762H11.8127V51.094H13.4066V44.6434H9.21884L9.06258 46.8149C8.96882 48.2519 9.06258 49.657 7.75 49.5931V51.126C9.84388 51.2856 10.5002 49.6251 10.5627 48.1242Z" fill="white"/>
<path d="M16.3761 48.8267L16.4386 48.7629L18.0637 51.0621H20.0638L17.5636 47.8049L20.0638 44.6115H18.0949L16.3761 47.0065V44.6115H14.751V51.0621H16.3761V48.8267Z" fill="white"/>
<path d="M24.0323 48.8267L24.0636 48.7629L25.6887 51.0621H27.5638L27.6263 50.9344L25.2199 47.8049L27.7201 44.6115H25.7199L24.0323 47.0065V44.6115H22.4072V51.0621H24.0323V48.8267Z" fill="white"/>
<path d="M28.3457 51.0621H29.9083L30.3146 49.7528H32.0022L32.4085 51.0621H34.1273L31.8772 44.6115H30.4083L28.252 50.9344L28.2207 51.0621H28.3457ZM31.1271 46.4317H31.1584L31.5959 48.3158H30.6583L31.1271 46.4317Z" fill="white"/>
<path d="M36.4395 49.178H37.3771C38.9085 49.178 39.6897 48.0284 39.6897 46.8788C39.6897 45.7292 38.9085 44.6115 37.3771 44.6115H34.8457V51.0621H36.4395V49.178ZM36.4395 46.1443H37.3771C38.3459 46.1443 38.3459 47.741 37.3771 47.741H36.4395V46.1443Z" fill="white"/>
<path d="M41.9708 46.1762H44.2834V44.6115H40.3457V51.0621H41.9708V46.1762Z" fill="white"/>
<path d="M47.6281 51.1579C48.9407 51.1579 50.2533 50.4234 50.2533 48.9545V46.751C50.2533 45.2821 48.9407 44.5476 47.6281 44.5476C46.3155 44.5476 45.0029 45.2821 45.0029 46.751V48.9545C45.0029 50.4234 46.3155 51.1579 47.6281 51.1579ZM46.628 46.751C46.628 46.272 47.1281 46.0166 47.6281 46.0166C48.1594 46.0166 48.6594 46.2401 48.6594 46.751V48.9545C48.6594 49.4335 48.1594 49.657 47.6281 49.657C47.1281 49.657 46.5968 49.4335 46.5968 48.9545V46.751H46.628Z" fill="white"/>
</g>
<defs>
<clipPath id="clip0_114_1053">
<rect width="513" height="54" fill="white"/>
</clipPath>
</defs>
</svg>
