<svg width="20" height="25" viewBox="0 0 20 25" fill="none" xmlns="http://www.w3.org/2000/svg">
<path d="M10 0.75C12.5859 0.75 15.0658 1.77723 16.8943 3.60571C18.7228 5.43419 19.75 7.91414 19.75 10.5C19.75 14.62 16.855 19.11 11.14 24.018C10.8222 24.291 10.4171 24.4409 9.99813 24.4405C9.5792 24.4402 9.1743 24.2895 8.857 24.016L8.479 23.688C3.017 18.908 0.25 14.528 0.25 10.5C0.25 7.91414 1.27723 5.43419 3.10571 3.60571C4.93419 1.77723 7.41414 0.75 10 0.75ZM10 2.25C7.81196 2.25 5.71354 3.11919 4.16637 4.66637C2.61919 6.21354 1.75 8.31196 1.75 10.5C1.75 14.002 4.298 18.037 9.464 22.557L9.837 22.88C9.88235 22.919 9.94019 22.9404 10 22.9404C10.0598 22.9404 10.1176 22.919 10.163 22.88C15.579 18.228 18.25 14.085 18.25 10.5C18.25 9.41659 18.0366 8.3438 17.622 7.34286C17.2074 6.34193 16.5997 5.43245 15.8336 4.66637C15.0675 3.90029 14.1581 3.2926 13.1571 2.87799C12.1562 2.46339 11.0834 2.25 10 2.25ZM10 6.75C10.9946 6.75 11.9484 7.14509 12.6517 7.84835C13.3549 8.55161 13.75 9.50544 13.75 10.5C13.75 11.4946 13.3549 12.4484 12.6517 13.1517C11.9484 13.8549 10.9946 14.25 10 14.25C9.00544 14.25 8.05161 13.8549 7.34835 13.1517C6.64509 12.4484 6.25 11.4946 6.25 10.5C6.25 9.50544 6.64509 8.55161 7.34835 7.84835C8.05161 7.14509 9.00544 6.75 10 6.75ZM10 8.25C9.40326 8.25 8.83097 8.48705 8.40901 8.90901C7.98705 9.33097 7.75 9.90326 7.75 10.5C7.75 11.0967 7.98705 11.669 8.40901 12.091C8.83097 12.5129 9.40326 12.75 10 12.75C10.5967 12.75 11.169 12.5129 11.591 12.091C12.0129 11.669 12.25 11.0967 12.25 10.5C12.25 9.90326 12.0129 9.33097 11.591 8.90901C11.169 8.48705 10.5967 8.25 10 8.25Z" fill="black"/>
</svg>
