<svg width="40" height="40" viewBox="0 0 40 40" fill="none" xmlns="http://www.w3.org/2000/svg">
<g clip-path="url(#clip0_870_3200)">
<path fill-rule="evenodd" clip-rule="evenodd" d="M11.8819 0.0549742C11.0013 0.225734 10.2167 0.843782 9.77672 1.71331L9.48231 2.29516L9.45987 7.88867L9.43751 13.4823L6.09827 13.5059C2.89514 13.5284 2.74465 13.536 2.40333 13.6902C1.86891 13.9318 1.47013 14.3157 1.22247 14.827L1.00029 15.2859L1.00021 21.3626C1.00013 28.1923 0.972379 27.8524 1.58419 28.5171C1.76853 28.7174 2.0907 28.9668 2.30013 29.0712L2.68093 29.2612L6.06208 29.2834L9.44322 29.3055V32.7668C9.44322 34.7578 9.47645 36.3994 9.52147 36.6312C9.63624 37.2225 9.89641 37.6844 10.3813 38.1581C10.8663 38.6319 11.3392 38.886 11.9444 38.9981C12.2084 39.047 16.6004 39.0746 24.1347 39.0746C36.942 39.0746 36.4004 39.0919 37.1569 38.6583C37.6535 38.3735 38.1335 37.8552 38.3979 37.3181L38.6422 36.8217L38.6626 23.8269L38.6831 10.8321L38.4672 10.577C38.2243 10.29 28.4832 0.402755 28.209 0.164944C28.0355 0.014499 27.9137 0.0120553 20.1257 0.000981861C15.7767 -0.00528033 12.0671 0.0190811 11.8819 0.0549742ZM26.4076 6.50229V11.5032L26.6357 11.7526L26.8637 12.002L32.0312 12.0232L37.1988 12.0444L37.1778 24.2481L37.1569 36.4518L36.9223 36.8218C36.7679 37.0652 36.5695 37.2527 36.3419 37.3702L35.9959 37.5486L23.99 37.5288L11.984 37.509L11.7297 37.3318C11.5899 37.2344 11.3788 37.0309 11.2607 36.8797L11.0458 36.6047L11.0241 32.952L11.0024 29.2994H17.6745C24.9916 29.2994 24.7906 29.3113 25.4433 28.8424C25.9026 28.5124 26.2236 27.9855 26.328 27.3902C26.3881 27.0469 26.4078 25.1032 26.3917 21.0898L26.3685 15.2859L26.1666 14.8654C25.9104 14.3319 25.5469 13.9769 25.0009 13.7266L24.5704 13.5294L17.7886 13.5082L11.0068 13.4872V8.05951C11.0068 2.12944 10.9885 2.37649 11.4599 1.93715C11.9546 1.47611 11.4834 1.50238 19.2739 1.50185L26.4076 1.50139V6.50229ZM31.6947 5.83529C33.7535 7.92487 35.6275 9.83224 35.8592 10.0737L36.2805 10.5128H32.0867H27.8929V6.2744C27.8929 3.94326 27.9061 2.03597 27.9222 2.03597C27.9382 2.03597 29.6358 3.7457 31.6947 5.83529ZM24.4418 15.1274C24.5603 15.1873 24.6993 15.3263 24.7506 15.4365C24.8204 15.5861 24.844 17.0949 24.844 21.4027C24.844 27.588 24.8502 27.4881 24.4575 27.6934C24.3564 27.7462 20.8164 27.7721 13.6712 27.7721H3.03523L2.7799 27.5492L2.52458 27.3265L2.50113 21.7261C2.48815 18.6461 2.49995 15.9742 2.52731 15.7889C2.56046 15.5644 2.65115 15.3796 2.7989 15.2352L3.02069 15.0186H13.6236C22.6474 15.0186 24.2585 15.0348 24.4418 15.1274ZM13.5295 18.3017C12.4314 18.5294 11.5664 19.3422 11.2804 20.415C11.1283 20.9851 11.1304 22.1186 11.2844 22.6966C11.6716 24.1489 12.849 24.93 14.5417 24.8574C15.15 24.8313 15.3515 24.7878 15.7873 24.5884C16.5697 24.2306 17.1173 23.6215 17.352 22.8484C17.6032 22.0208 17.5617 20.8242 17.2541 20.0198C17.0124 19.3879 16.309 18.7 15.6583 18.459C15.1333 18.2647 14.0827 18.187 13.5295 18.3017ZM20.5443 18.3439C19.2524 18.6944 18.4811 19.7681 18.38 21.3571C18.3113 22.4383 18.5969 23.3276 19.2277 23.996C19.8451 24.6504 20.5543 24.9095 21.5791 24.855C22.825 24.7887 23.4947 24.3042 24.0097 23.0962L24.1311 22.8114L23.6081 22.6549C23.3204 22.5688 23.0301 22.4818 22.9629 22.4617C22.8745 22.4352 22.7915 22.5411 22.6627 22.8447C22.3752 23.5222 21.7763 23.8736 21.1099 23.7558C20.1744 23.5903 19.7626 22.915 19.7626 21.5463C19.7626 20.7844 19.8828 20.2774 20.1507 19.9099C20.7257 19.1211 22.2293 19.2099 22.6288 20.0563C22.7172 20.2436 22.8262 20.3611 22.9126 20.3624C23.1977 20.3664 24.0623 20.1137 24.0623 20.0264C24.0623 19.8208 23.6411 19.1323 23.3765 18.9054C22.6814 18.3091 21.5207 18.079 20.5443 18.3439ZM4.75262 21.5438V24.8066L6.45296 24.778C8.33249 24.7464 8.64081 24.6826 9.27178 24.1944C9.61325 23.9303 10.0011 23.2623 10.1433 22.6936C10.2615 22.2206 10.2649 20.9877 10.1495 20.4877C9.92557 19.5188 9.33627 18.7985 8.54106 18.5219C8.14033 18.3824 7.84255 18.3542 6.41387 18.3203L4.75262 18.2809V21.5438ZM15.3582 19.6462C15.5233 19.7759 15.7354 19.9927 15.8296 20.128C16.2167 20.6832 16.2694 22.0515 15.9309 22.755C15.3397 23.9837 13.6739 24.1302 12.9113 23.0207C12.4657 22.3724 12.3863 21.1558 12.7381 20.3653C13.0659 19.6287 13.5469 19.3557 14.4591 19.3887C14.9948 19.408 15.0898 19.4352 15.3582 19.6462ZM7.88758 19.5347C8.5943 19.7654 8.85689 20.3213 8.85689 21.5862C8.85689 23.317 8.44514 23.7245 6.6964 23.7245H6.08162V21.5862V19.4479H6.85174C7.2753 19.4479 7.74139 19.4869 7.88758 19.5347Z" fill="black"/>
</g>
<defs>
<clipPath id="clip0_870_3200">
<rect width="40" height="39.0746" fill="white"/>
</clipPath>
</defs>
</svg>
