<svg width="61" height="38" viewBox="0 0 61 38" fill="none" xmlns="http://www.w3.org/2000/svg">
<path fill-rule="evenodd" clip-rule="evenodd" d="M6.95365 14.7996C7.6591 14.5427 8.58587 14.4659 16.9498 13.9713L25.7456 13.4512L32.4185 7.07152C36.0886 3.56258 39.2208 0.619797 39.379 0.531851C39.5534 0.434722 40.6615 0.423075 42.2 0.502003C44.8729 0.639082 45.2294 0.74396 45.2872 1.41C45.3065 1.63356 44.372 3.36443 42.29 6.96134C40.626 9.83594 39.2072 12.3025 39.1369 12.4427C39.0241 12.6678 39.6577 12.6589 44.5771 12.3674L50.145 12.0375L52.2439 7.60379C53.7906 4.3365 54.4247 3.12378 54.6542 2.99387C54.9878 2.80503 59.0245 2.40616 59.5093 2.51414C59.6693 2.54973 59.8704 2.70312 59.9564 2.85504C60.0482 3.01722 60.0857 5.80073 60.0473 9.59788C59.9742 16.8147 59.8959 17.4629 58.9627 18.5741C57.592 20.2063 54.7061 21.7404 51.2163 22.692C47.7478 23.6379 42.4632 24.1769 37.9115 24.0488C36.9611 24.0221 36.1957 24.0214 36.2103 24.0472C36.2249 24.073 37.9757 26.4715 40.101 29.3772C42.2264 32.283 44.046 34.8356 44.1444 35.0499C44.2665 35.3154 44.2691 35.5618 44.1524 35.8247L43.9812 36.2103L41.7809 36.6202C40.5706 36.8457 39.39 37.0476 39.1573 37.069C38.7714 37.1043 37.965 36.5659 30.0206 30.9689L21.3071 24.83L18.1262 25.02C13.264 25.3107 9.61538 25.2349 5.79603 24.7642C2.71595 24.3847 1.91657 24.0552 1.26757 22.8975C0.68497 21.8586 0.938861 20.6972 2.12964 18.953C3.34119 17.1783 5.481 15.336 6.95365 14.7996ZM4.95378 18.2828C4.10009 19.1027 2.99179 20.6416 2.78137 21.2993C2.54934 22.0247 2.87939 22.4497 3.85427 22.681C7.1234 23.4569 13.3137 23.6678 19.3709 23.2096C20.5549 23.1201 21.624 23.0746 21.7467 23.1083C21.8693 23.1422 25.8475 25.9003 30.5871 29.2377L39.2044 35.3056L40.4843 35.0836C41.1882 34.9616 41.7757 34.8204 41.7897 34.7699C41.8037 34.7194 40.0414 32.2505 37.8735 29.2834C35.7056 26.3163 33.8165 23.7029 33.6757 23.4759C33.4799 23.1602 33.4523 22.9805 33.5582 22.7126C33.6343 22.5198 33.7811 22.3144 33.8842 22.256C33.9873 22.1976 34.9029 22.1886 35.9189 22.236C42.3284 22.5348 48.1138 21.9357 52.4074 20.5284C53.1816 20.2746 54.0034 19.8819 55.3462 19.1234C57.1638 18.0971 57.2216 18.0544 57.6579 17.4169C57.9041 17.0573 58.1348 16.5371 58.1708 16.2607C58.2812 15.4118 58.3626 4.33714 58.2586 4.3084C58.1073 4.26679 55.8098 4.50437 55.686 4.57447C55.6255 4.60871 54.6684 6.55686 53.5592 8.9037C52.4499 11.2506 51.4398 13.2956 51.3145 13.4483C51.0528 13.7669 53.2519 13.6204 20.5188 15.5004C10.8297 16.0569 8.57583 16.2027 8.02491 16.3085C7.33706 16.4406 5.93014 17.3452 4.95378 18.2828ZM34.1021 7.86828C31.016 10.8209 28.5501 13.2518 28.6224 13.2704C28.6947 13.2889 30.5888 13.188 32.8315 13.0462L36.9091 12.7883L39.0909 9.02141C40.2908 6.94953 41.6574 4.58351 42.1278 3.76352L42.9829 2.27273L41.535 2.20524C40.5697 2.1603 40.0248 2.1982 39.9002 2.31893C39.7974 2.41843 37.1882 4.91576 34.1021 7.86828Z" fill="black"/>
</svg>
