<svg width="16" height="16" viewBox="0 0 16 16" fill="none" xmlns="http://www.w3.org/2000/svg">
<circle cx="8" cy="8" r="8" fill="#EA6261"/>
<path d="M8.38177 9.94758H7.23645C7.24056 9.56048 7.27545 9.24395 7.34113 8.99798C7.41092 8.74798 7.52381 8.52016 7.6798 8.31452C7.8358 8.10887 8.0431 7.875 8.30172 7.6129C8.49056 7.42339 8.66297 7.24597 8.81897 7.08065C8.97906 6.91129 9.10837 6.72984 9.2069 6.53629C9.30542 6.33871 9.35468 6.10282 9.35468 5.82863C9.35468 5.5504 9.30337 5.31048 9.20074 5.10887C9.10222 4.90726 8.95443 4.75202 8.75739 4.64315C8.56445 4.53427 8.3243 4.47984 8.03695 4.47984C7.79885 4.47984 7.57307 4.52218 7.35961 4.60685C7.14614 4.69153 6.97373 4.82258 6.84236 5C6.711 5.17339 6.64327 5.40121 6.63916 5.68347H5.5C5.50821 5.22782 5.62315 4.83669 5.84483 4.51008C6.07061 4.18347 6.37438 3.93347 6.75616 3.76008C7.13793 3.58669 7.56486 3.5 8.03695 3.5C8.55829 3.5 9.00164 3.59274 9.36699 3.77823C9.73645 3.96371 10.0177 4.22984 10.2106 4.57661C10.4035 4.91935 10.5 5.32661 10.5 5.79839C10.5 6.16129 10.4241 6.49597 10.2722 6.80242C10.1244 7.10484 9.9335 7.38911 9.69951 7.65524C9.46552 7.92137 9.21716 8.1754 8.95443 8.41734C8.72865 8.62298 8.57677 8.85484 8.49877 9.1129C8.42077 9.37097 8.38177 9.64919 8.38177 9.94758ZM7.18719 11.8649C7.18719 11.6835 7.24466 11.5302 7.35961 11.4052C7.47455 11.2802 7.6408 11.2177 7.85837 11.2177C8.08005 11.2177 8.24836 11.2802 8.3633 11.4052C8.47824 11.5302 8.53571 11.6835 8.53571 11.8649C8.53571 12.0383 8.47824 12.1875 8.3633 12.3125C8.24836 12.4375 8.08005 12.5 7.85837 12.5C7.6408 12.5 7.47455 12.4375 7.35961 12.3125C7.24466 12.1875 7.18719 12.0383 7.18719 11.8649Z" fill="white"/>
</svg>
