<svg width="40" height="41" viewBox="0 0 40 41" fill="none" xmlns="http://www.w3.org/2000/svg">
<g clip-path="url(#clip0_5434_651)">
<path fill-rule="evenodd" clip-rule="evenodd" d="M9.78128 4.87158C4.53151 7.54416 0.184196 9.80104 0.120569 9.88697C0.0190574 10.0241 0.00461066 11.2345 0.00245902 19.7849L0 29.5267L0.1729 29.7232C0.495031 30.0895 19.3004 40.0042 19.6729 40.0042C20.0474 40.0042 38.851 30.0908 39.1714 29.7245L39.3443 29.5267V19.78V10.0334L39.1329 9.83104C38.9799 9.68452 38.625 4.06666 33.1875 1.37916C29.9112 -0.284634 24.5902 2.37247 24.5902 2.37247C21.8418 1.00818 19.773 0.00677386 19.6531 0.00830253C19.3786 0.0118182 17.8005 0.78924 9.78128 4.87158ZM28.6629 18.6917L23.5909 16.9547L21.7188 13.5354L21.0551 9.73065L12.6022 5.43432L16.1564 3.62424L19.7106 1.81424L23.3125 3.62424C23.3125 3.62424 26.1849 1.00451 29.5569 0.891066C32.7234 0.784534 36.3722 3.15225 37.25 4.06666C39.0625 5.95483 38.9375 11.0354 38.9375 11.0354L37.6537 14.7903L38.625 13.2229L37.25 15.4417L35.375 17.5979L32.0625 19.0267L28.6629 18.6917ZM19.0957 10.6876L20.7188 11.6604C21.9299 13.3673 23.5909 17.0237 23.5909 17.0356C23.5909 17.0137 23.5909 17.0574 23.5909 17.0356L19.6715 19.0267L11.2188 14.7305L2.76616 10.4343L6.70451 8.42658C8.87067 7.32244 10.6515 6.41705 10.6621 6.41471C10.6726 6.41236 14.4677 8.33518 19.0957 10.6876ZM10.2973 16.2152L18.8268 20.5512V29.1417V37.7321L17.6895 37.1299C17.0639 36.7986 13.2082 34.7522 9.12134 32.5823L1.69073 28.637L1.69065 20.2581C1.69057 15.6496 1.70794 11.8792 1.72915 11.8792C1.75036 11.8792 5.60602 13.8303 10.2973 16.2152ZM37.6537 20.2594V28.6396L30.2986 32.5446C26.2533 34.6923 22.3976 36.739 21.7305 37.0928L20.5174 37.7362V29.1438V20.5513L24.5902 18.4807L28.6629 18.6917V20.3985C28.6629 25.1032 28.6447 25.0042 29.5082 25.0042C30.3796 25.0042 30.3535 25.1596 30.3535 19.9692L28.6629 18.6917L32.0625 19.0267L35.375 17.5979C37.7247 15.5433 39.1329 15.4193 37.6537 14.7903C37.6537 18.3828 37.6537 15.6503 37.6537 20.2594Z" fill="black"/>
<path d="M39.2 10.0042C39.2 15.0852 35.081 19.2042 30 19.2042C24.919 19.2042 20.8 15.0852 20.8 10.0042C20.8 4.92313 24.919 0.80415 30 0.80415C35.081 0.80415 39.2 4.92313 39.2 10.0042Z" stroke="black" stroke-width="1.6"/>
<path d="M29.059 7.90895L30 5.01281L30.941 7.90896C31.0481 8.23857 31.3553 8.46174 31.7019 8.46174H34.747L32.2834 10.2517L32.5773 10.6562L32.2834 10.2517C32.0031 10.4554 31.8857 10.8165 31.9928 11.1461L32.9338 14.0422L30.4702 12.2523C30.1898 12.0486 29.8102 12.0486 29.5298 12.2523L27.0662 14.0422L28.0072 11.1461L27.5316 10.9916L28.0072 11.1461C28.1143 10.8165 27.997 10.4554 27.7166 10.2517L25.253 8.46174H28.2981C28.6447 8.46174 28.9519 8.23857 29.059 7.90895Z" fill="black" stroke="black"/>
</g>
<defs>
<clipPath id="clip0_5434_651">
<rect width="40" height="40" fill="white" transform="translate(0 0.00415039)"/>
</clipPath>
</defs>
</svg>
