<svg width="40" height="39" viewBox="0 0 40 39" fill="none" xmlns="http://www.w3.org/2000/svg">
<path d="M10.2 26.7542C10.2 27.196 10.5582 27.5542 11 27.5542C11.4418 27.5542 11.8 27.196 11.8 26.7542V18.9292H19.8125C19.923 18.9292 20.0125 19.0187 20.0125 19.1292V37.0042C20.0125 37.1146 19.923 37.2042 19.8125 37.2042H1.9375C1.82704 37.2042 1.7375 37.1146 1.7375 37.0042V19.1292C1.7375 19.0187 1.82704 18.9292 1.9375 18.9292H10.2V26.7542Z" stroke="black" stroke-width="1.6" stroke-linecap="round"/>
<path d="M28.45 26.7542C28.45 27.196 28.8082 27.5542 29.25 27.5542C29.6918 27.5542 30.05 27.196 30.05 26.7542V18.9292H38.0625C38.173 18.9292 38.2625 19.0187 38.2625 19.1292V37.0042C38.2625 37.1146 38.173 37.2042 38.0625 37.2042H20.1875C20.077 37.2042 19.9875 37.1146 19.9875 37.0042V19.1292C19.9875 19.0187 20.077 18.9292 20.1875 18.9292H28.45V26.7542Z" stroke="black" stroke-width="1.6" stroke-linecap="round"/>
<path d="M10.2 8.75415C10.2 9.19598 10.5582 9.55415 11 9.55415C11.4418 9.55415 11.8 9.19598 11.8 8.75415V0.92915H19.8125C19.923 0.92915 20.0125 1.01869 20.0125 1.12915V19.0042C20.0125 19.1146 19.923 19.2042 19.8125 19.2042H1.9375C1.82704 19.2042 1.7375 19.1146 1.7375 19.0042V1.12915C1.7375 1.01869 1.82704 0.92915 1.9375 0.92915H10.2V8.75415Z" stroke="black" stroke-width="1.6" stroke-linecap="round"/>
<path d="M28.45 8.75415C28.45 9.19598 28.8082 9.55415 29.25 9.55415C29.6918 9.55415 30.05 9.19598 30.05 8.75415V0.92915H38.0625C38.173 0.92915 38.2625 1.01869 38.2625 1.12915V19.0042C38.2625 19.1146 38.173 19.2042 38.0625 19.2042H20.1875C20.077 19.2042 19.9875 19.1146 19.9875 19.0042V1.12915C19.9875 1.01869 20.077 0.92915 20.1875 0.92915H28.45V8.75415Z" stroke="black" stroke-width="1.6" stroke-linecap="round"/>
</svg>
