<svg width="40" height="41" viewBox="0 0 40 41" fill="none" xmlns="http://www.w3.org/2000/svg">
<path fill-rule="evenodd" clip-rule="evenodd" d="M19.3781 10.388C19.3781 10.795 19.7081 11.125 20.1152 11.125C20.5222 11.125 20.8522 10.795 20.8522 10.388V3.91575H27.6814V19.2556H20.1727C20.1137 19.2556 20.056 19.2611 20 19.2718C19.944 19.2611 19.8863 19.2556 19.8273 19.2556H12.4452H12.3186V3.91575H19.3781V10.388ZM10.8445 19.2556V3.36296C10.8445 2.85414 11.257 2.44165 11.7658 2.44165H19.3781H20.1152H20.8522H28.2342C28.743 2.44165 29.1555 2.85414 29.1555 3.36296V19.2556H29.2592H36.6412C37.15 19.2556 37.5625 19.6681 37.5625 20.1769V36.6453C37.5625 37.1542 37.15 37.5667 36.6412 37.5667H20.1727C20.1137 37.5667 20.056 37.5611 20 37.5505C19.9441 37.5611 19.8863 37.5667 19.8273 37.5667H3.35881C2.84999 37.5667 2.4375 37.1542 2.4375 36.6453V20.1769C2.4375 19.6681 2.84999 19.2556 3.35881 19.2556H10.8445ZM12.4452 20.7527V27.2019C12.4452 27.609 12.1153 27.9389 11.7082 27.9389C11.3011 27.9389 10.9711 27.609 10.9711 27.2019V20.7297H3.9116V36.0926H19.2514V20.7527H12.4452ZM20.7486 20.7527V36.0926H36.0884V20.7297H29.2592V27.2019C29.2592 27.609 28.9292 27.9389 28.5221 27.9389C28.1151 27.9389 27.7851 27.609 27.7851 27.2019V20.7527H20.7486Z" fill="black"/>
</svg>
