<svg width="40" height="41" viewBox="0 0 40 41" fill="none" xmlns="http://www.w3.org/2000/svg">
<g clip-path="url(#clip0_5434_633)">
<path fill-rule="evenodd" clip-rule="evenodd" d="M10.1091 4.87158C4.85936 7.54416 0.512046 9.80104 0.448419 9.88697C0.346908 10.0241 0.332461 11.2345 0.330309 19.7849L0.32785 29.5267L0.50075 29.7232C0.822881 30.0895 19.6282 40.0042 20.0008 40.0042C20.3753 40.0042 39.1789 30.0908 39.4992 29.7245L39.6721 29.5267V19.78V10.0334L39.4608 9.83104C39.0413 9.42932 20.3487 0.00361503 19.9809 0.00830253C19.7064 0.0118182 18.1284 0.78924 10.1091 4.87158ZM33.369 12.2304L26.4687 15.7854L17.9062 11.8835L9.54043 7.14938L16.4842 3.62424L20.0384 1.81424L28.4702 6.12408L36.9021 10.4338L33.369 12.2304ZM9.54043 7.14938C13.0503 9.40257 16.6269 10.8106 18.6786 12.1262C25.3415 16.3984 26.4687 15.7854 26.4687 15.7854C26.4687 15.7854 26.0744 15.9405 23.9187 17.0356L19.9994 19.0267L11.5467 14.7305L3.09401 10.4343L7.03236 8.42658C9.19852 7.32244 10.9794 6.41705 10.9899 6.41471C11.0004 6.41236 9.54043 7.14938 9.54043 7.14938ZM10.6251 16.2152L19.1547 20.5512V29.1417V37.7321L18.0173 37.1299C17.3917 36.7986 13.5361 34.7522 9.44919 32.5823L2.01858 28.637L2.0185 20.2581C2.01842 15.6496 2.03579 11.8792 2.057 11.8792C2.07821 11.8792 5.93387 13.8303 10.6251 16.2152ZM37.9815 20.2594V28.6396L30.6265 32.5446C26.5812 34.6923 22.7255 36.739 22.0583 37.0928L20.8453 37.7362V29.1438V20.5513L24.918 18.4807L28.9908 16.4101L30.6813 15.5513L34.2738 13.7196C36.2496 12.7121 37.8922 11.8858 37.9239 11.8835C37.9556 11.8811 37.9815 15.6503 37.9815 20.2594Z" fill="white"/>
<path d="M8.8125 7.00415L26.5625 16.2542V29.3167L29.9062 26.0354L32.5 26.8479V14.0042L14.0625 4.25415H13.0625" stroke="white" stroke-width="1.6" stroke-linecap="round" stroke-linejoin="round"/>
</g>
<defs>
<clipPath id="clip0_5434_633">
<rect width="40" height="40" fill="white" transform="translate(0 0.00415039)"/>
</clipPath>
</defs>
</svg>
