<svg width="40" height="41" viewBox="0 0 40 41" fill="none" xmlns="http://www.w3.org/2000/svg">
<g clip-path="url(#clip0_5434_737)">
<mask id="path-1-inside-1_5434_737" fill="white">
<path fill-rule="evenodd" clip-rule="evenodd" d="M-0.0187378 11.0078C-0.0187378 10.5659 0.339434 10.2078 0.781262 10.2078H5.34376V11.8078H1.58126V31.3953H5.28246C5.65981 29.2957 7.49591 27.7026 9.70409 27.7026C11.9123 27.7026 13.7484 29.2957 14.1257 31.3953H25.4813V15.9453V11.8078H22.7813V10.2078H26.2813C26.7231 10.2078 27.0813 10.5659 27.0813 11.0078V15.1453H33.0938C33.3548 15.1453 33.5994 15.2726 33.7491 15.4865L35.4746 17.9515L39.8476 23.5133C39.9585 23.6543 40.0188 23.8284 40.0188 24.0078V32.1953C40.0188 32.6371 39.6606 32.9953 39.2188 32.9953H37.0632C36.6859 35.0948 34.8498 36.6879 32.6416 36.6879C30.4334 36.6879 28.5973 35.0948 28.22 32.9953H26.2813H14.1257C13.7484 35.0948 11.9123 36.6879 9.70409 36.6879C7.49591 36.6879 5.65981 35.0948 5.28246 32.9953H0.781262C0.339434 32.9953 -0.0187378 32.6371 -0.0187378 32.1953V11.0078ZM28.22 31.3953C28.5973 29.2957 30.4334 27.7026 32.6416 27.7026C34.8498 27.7026 36.6859 29.2957 37.0632 31.3953H38.4188V24.8078H29.2813C28.8394 24.8078 28.4813 24.4496 28.4813 24.0078V18.4285C28.4813 17.9867 28.8394 17.6285 29.2813 17.6285H33.2955L32.6772 16.7453H27.0813V31.3953H28.22ZM34.4434 19.2285H30.0813V23.2078H37.5721L34.4434 19.2285ZM9.70409 35.0879C11.3017 35.0879 12.5967 33.7928 12.5967 32.1953C12.5967 30.5977 11.3017 29.3026 9.70409 29.3026C8.10652 29.3026 6.81144 30.5977 6.81144 32.1953C6.81144 33.7928 8.10652 35.0879 9.70409 35.0879ZM35.5342 32.1953C35.5342 33.7928 34.2392 35.0879 32.6416 35.0879C31.044 35.0879 29.7489 33.7928 29.7489 32.1953C29.7489 30.5977 31.044 29.3026 32.6416 29.3026C34.2392 29.3026 35.5342 30.5977 35.5342 32.1953Z"/>
</mask>
<path fill-rule="evenodd" clip-rule="evenodd" d="M-0.0187378 11.0078C-0.0187378 10.5659 0.339434 10.2078 0.781262 10.2078H5.34376V11.8078H1.58126V31.3953H5.28246C5.65981 29.2957 7.49591 27.7026 9.70409 27.7026C11.9123 27.7026 13.7484 29.2957 14.1257 31.3953H25.4813V15.9453V11.8078H22.7813V10.2078H26.2813C26.7231 10.2078 27.0813 10.5659 27.0813 11.0078V15.1453H33.0938C33.3548 15.1453 33.5994 15.2726 33.7491 15.4865L35.4746 17.9515L39.8476 23.5133C39.9585 23.6543 40.0188 23.8284 40.0188 24.0078V32.1953C40.0188 32.6371 39.6606 32.9953 39.2188 32.9953H37.0632C36.6859 35.0948 34.8498 36.6879 32.6416 36.6879C30.4334 36.6879 28.5973 35.0948 28.22 32.9953H26.2813H14.1257C13.7484 35.0948 11.9123 36.6879 9.70409 36.6879C7.49591 36.6879 5.65981 35.0948 5.28246 32.9953H0.781262C0.339434 32.9953 -0.0187378 32.6371 -0.0187378 32.1953V11.0078ZM28.22 31.3953C28.5973 29.2957 30.4334 27.7026 32.6416 27.7026C34.8498 27.7026 36.6859 29.2957 37.0632 31.3953H38.4188V24.8078H29.2813C28.8394 24.8078 28.4813 24.4496 28.4813 24.0078V18.4285C28.4813 17.9867 28.8394 17.6285 29.2813 17.6285H33.2955L32.6772 16.7453H27.0813V31.3953H28.22ZM34.4434 19.2285H30.0813V23.2078H37.5721L34.4434 19.2285ZM9.70409 35.0879C11.3017 35.0879 12.5967 33.7928 12.5967 32.1953C12.5967 30.5977 11.3017 29.3026 9.70409 29.3026C8.10652 29.3026 6.81144 30.5977 6.81144 32.1953C6.81144 33.7928 8.10652 35.0879 9.70409 35.0879ZM35.5342 32.1953C35.5342 33.7928 34.2392 35.0879 32.6416 35.0879C31.044 35.0879 29.7489 33.7928 29.7489 32.1953C29.7489 30.5977 31.044 29.3026 32.6416 29.3026C34.2392 29.3026 35.5342 30.5977 35.5342 32.1953Z" fill="#D9D9D9"/>
<path d="M5.34376 10.2078H6.94376V8.60776H5.34376V10.2078ZM5.34376 11.8078V13.4078H6.94376V11.8078H5.34376ZM1.58126 11.8078V10.2078H-0.0187378V11.8078H1.58126ZM1.58126 31.3953H-0.0187378V32.9953H1.58126V31.3953ZM5.28246 31.3953V32.9953H6.62052L6.85722 31.6783L5.28246 31.3953ZM14.1257 31.3953L12.5509 31.6783L12.7877 32.9953H14.1257V31.3953ZM25.4813 31.3953V32.9953H27.0813V31.3953H25.4813ZM25.4813 11.8078H27.0813V10.2078H25.4813V11.8078ZM22.7813 11.8078H21.1813V13.4078H22.7813V11.8078ZM22.7813 10.2078V8.60776H21.1813V10.2078H22.7813ZM27.0813 15.1453H25.4813V16.7453H27.0813V15.1453ZM33.7491 15.4865L32.4384 16.404L32.4384 16.404L33.7491 15.4865ZM35.4746 17.9515L34.1639 18.869L34.1894 18.9055L34.2169 18.9404L35.4746 17.9515ZM39.8476 23.5133L38.5899 24.5022L38.5899 24.5022L39.8476 23.5133ZM37.0632 32.9953V31.3953H35.7251L35.4884 32.7122L37.0632 32.9953ZM28.22 32.9953L29.7947 32.7122L29.558 31.3953H28.22V32.9953ZM14.1257 32.9953V31.3953H12.7877L12.5509 32.7122L14.1257 32.9953ZM5.28246 32.9953L6.85722 32.7122L6.62052 31.3953H5.28246V32.9953ZM28.22 31.3953V32.9953H29.558L29.7947 31.6783L28.22 31.3953ZM37.0632 31.3953L35.4884 31.6783L35.7251 32.9953H37.0632V31.3953ZM38.4188 31.3953V32.9953H40.0188V31.3953H38.4188ZM38.4188 24.8078H40.0188V23.2078H38.4188V24.8078ZM33.2955 17.6285V19.2285H36.3685L34.6063 16.7109L33.2955 17.6285ZM32.6772 16.7453L33.988 15.8277L33.5103 15.1453H32.6772V16.7453ZM27.0813 16.7453V15.1453H25.4813V16.7453H27.0813ZM27.0813 31.3953H25.4813V32.9953H27.0813V31.3953ZM30.0813 19.2285V17.6285H28.4813V19.2285H30.0813ZM34.4434 19.2285L35.7011 18.2395L35.2207 17.6285H34.4434V19.2285ZM30.0813 23.2078H28.4813V24.8078H30.0813V23.2078ZM37.5721 23.2078V24.8078H40.8654L38.8299 22.2188L37.5721 23.2078ZM0.781262 8.60776C-0.544221 8.60776 -1.61874 9.68228 -1.61874 11.0078H1.58126C1.58126 11.4496 1.22309 11.8078 0.781262 11.8078V8.60776ZM5.34376 8.60776H0.781262V11.8078H5.34376V8.60776ZM6.94376 11.8078V10.2078H3.74376V11.8078H6.94376ZM1.58126 13.4078H5.34376V10.2078H1.58126V13.4078ZM3.18126 31.3953V11.8078H-0.0187378V31.3953H3.18126ZM5.28246 29.7953H1.58126V32.9953H5.28246V29.7953ZM9.70409 26.1026C6.7078 26.1026 4.21962 28.2639 3.70769 31.1122L6.85722 31.6783C7.1 30.3275 8.28401 29.3026 9.70409 29.3026V26.1026ZM15.7005 31.1122C15.1885 28.2639 12.7004 26.1026 9.70409 26.1026V29.3026C11.1242 29.3026 12.3082 30.3275 12.5509 31.6783L15.7005 31.1122ZM25.4813 29.7953H14.1257V32.9953H25.4813V29.7953ZM23.8813 15.9453V31.3953H27.0813V15.9453H23.8813ZM23.8813 11.8078V15.9453H27.0813V11.8078H23.8813ZM22.7813 13.4078H25.4813V10.2078H22.7813V13.4078ZM21.1813 10.2078V11.8078H24.3813V10.2078H21.1813ZM26.2813 8.60776H22.7813V11.8078H26.2813V8.60776ZM28.6813 11.0078C28.6813 9.68228 27.6067 8.60776 26.2813 8.60776V11.8078C25.8394 11.8078 25.4813 11.4496 25.4813 11.0078H28.6813ZM28.6813 15.1453V11.0078H25.4813V15.1453H28.6813ZM33.0938 13.5453H27.0813V16.7453H33.0938V13.5453ZM35.0599 14.569C34.6108 13.9274 33.8769 13.5453 33.0938 13.5453V16.7453C32.8327 16.7453 32.5881 16.6179 32.4384 16.404L35.0599 14.569ZM36.7854 17.034L35.0599 14.569L32.4384 16.404L34.1639 18.869L36.7854 17.034ZM41.1054 22.5244L36.7324 16.9626L34.2169 18.9404L38.5899 24.5022L41.1054 22.5244ZM41.6188 24.0078C41.6188 23.4697 41.438 22.9473 41.1054 22.5243L38.5899 24.5022C38.479 24.3613 38.4188 24.1871 38.4188 24.0078H41.6188ZM41.6188 32.1953V24.0078H38.4188V32.1953H41.6188ZM39.2188 34.5953C40.5443 34.5953 41.6188 33.5207 41.6188 32.1953H38.4188C38.4188 31.7534 38.7769 31.3953 39.2188 31.3953V34.5953ZM37.0632 34.5953H39.2188V31.3953H37.0632V34.5953ZM32.6416 38.2879C35.6379 38.2879 38.126 36.1266 38.638 33.2783L35.4884 32.7122C35.2457 34.063 34.0617 35.0879 32.6416 35.0879V38.2879ZM26.6452 33.2783C27.1571 36.1266 29.6453 38.2879 32.6416 38.2879V35.0879C31.2215 35.0879 30.0375 34.063 29.7947 32.7122L26.6452 33.2783ZM26.2813 34.5953H28.22V31.3953H26.2813V34.5953ZM14.1257 34.5953H26.2813V31.3953H14.1257V34.5953ZM9.70409 38.2879C12.7004 38.2879 15.1885 36.1266 15.7005 33.2783L12.5509 32.7122C12.3082 34.063 11.1242 35.0879 9.70409 35.0879V38.2879ZM3.70769 33.2783C4.21962 36.1266 6.7078 38.2879 9.70409 38.2879V35.0879C8.28401 35.0879 7.1 34.063 6.85722 32.7122L3.70769 33.2783ZM0.781262 34.5953H5.28246V31.3953H0.781262V34.5953ZM-1.61874 32.1953C-1.61874 33.5207 -0.544219 34.5953 0.781262 34.5953V31.3953C1.22309 31.3953 1.58126 31.7534 1.58126 32.1953H-1.61874ZM-1.61874 11.0078V32.1953H1.58126V11.0078H-1.61874ZM32.6416 26.1026C29.6453 26.1026 27.1571 28.2639 26.6452 31.1122L29.7947 31.6783C30.0375 30.3275 31.2215 29.3026 32.6416 29.3026V26.1026ZM38.638 31.1122C38.126 28.2639 35.6379 26.1026 32.6416 26.1026V29.3026C34.0617 29.3026 35.2457 30.3275 35.4884 31.6783L38.638 31.1122ZM38.4188 29.7953H37.0632V32.9953H38.4188V29.7953ZM36.8188 24.8078V31.3953H40.0188V24.8078H36.8188ZM29.2813 26.4078H38.4188V23.2078H29.2813V26.4078ZM26.8813 24.0078C26.8813 25.3332 27.9558 26.4078 29.2813 26.4078V23.2078C29.7231 23.2078 30.0813 23.5659 30.0813 24.0078H26.8813ZM26.8813 18.4285V24.0078H30.0813V18.4285H26.8813ZM29.2813 16.0285C27.9558 16.0285 26.8813 17.103 26.8813 18.4285H30.0813C30.0813 18.8703 29.7231 19.2285 29.2813 19.2285V16.0285ZM33.2955 16.0285H29.2813V19.2285H33.2955V16.0285ZM31.3665 17.6628L31.9847 18.546L34.6063 16.7109L33.988 15.8277L31.3665 17.6628ZM27.0813 18.3453H32.6772V15.1453H27.0813V18.3453ZM28.6813 31.3953V16.7453H25.4813V31.3953H28.6813ZM28.22 29.7953H27.0813V32.9953H28.22V29.7953ZM30.0813 20.8285H34.4434V17.6285H30.0813V20.8285ZM31.6813 23.2078V19.2285H28.4813V23.2078H31.6813ZM37.5721 21.6078H30.0813V24.8078H37.5721V21.6078ZM33.1856 20.2174L36.3143 24.1967L38.8299 22.2188L35.7011 18.2395L33.1856 20.2174ZM10.9967 32.1953C10.9967 32.9092 10.418 33.4879 9.70409 33.4879V36.6879C12.1853 36.6879 14.1967 34.6765 14.1967 32.1953H10.9967ZM9.70409 30.9026C10.418 30.9026 10.9967 31.4814 10.9967 32.1953H14.1967C14.1967 29.714 12.1853 27.7026 9.70409 27.7026V30.9026ZM8.41144 32.1953C8.41144 31.4814 8.99018 30.9026 9.70409 30.9026V27.7026C7.22287 27.7026 5.21144 29.714 5.21144 32.1953H8.41144ZM9.70409 33.4879C8.99018 33.4879 8.41144 32.9092 8.41144 32.1953H5.21144C5.21144 34.6765 7.22287 36.6879 9.70409 36.6879V33.4879ZM32.6416 36.6879C35.1228 36.6879 37.1342 34.6765 37.1342 32.1953H33.9342C33.9342 32.9092 33.3555 33.4879 32.6416 33.4879V36.6879ZM28.1489 32.1953C28.1489 34.6765 30.1604 36.6879 32.6416 36.6879V33.4879C31.9277 33.4879 31.3489 32.9092 31.3489 32.1953H28.1489ZM32.6416 27.7026C30.1604 27.7026 28.1489 29.714 28.1489 32.1953H31.3489C31.3489 31.4814 31.9277 30.9026 32.6416 30.9026V27.7026ZM37.1342 32.1953C37.1342 29.714 35.1228 27.7026 32.6416 27.7026V30.9026C33.3555 30.9026 33.9342 31.4814 33.9342 32.1953H37.1342Z" fill="black" mask="url(#path-1-inside-1_5434_737)"/>
<path d="M23.2938 13.3203C23.2938 18.4013 19.1748 22.5203 14.0938 22.5203C9.01273 22.5203 4.89375 18.4013 4.89375 13.3203C4.89375 8.23929 9.01273 4.12031 14.0938 4.12031C19.1748 4.12031 23.2938 8.23929 23.2938 13.3203Z" stroke="black" stroke-width="1.6"/>
<path fill-rule="evenodd" clip-rule="evenodd" d="M13.8514 6.50328C13.7993 6.53351 13.7268 6.60179 13.6903 6.65504L13.6239 6.75183L13.6162 7.61977C13.6119 8.09714 13.6029 8.4877 13.5963 8.4877C13.5896 8.4877 13.3065 8.33009 12.967 8.13747C12.1068 7.64927 11.8363 7.64788 11.7062 8.13094C11.6171 8.46187 11.6974 8.53888 12.7513 9.13331L13.5971 9.61036L13.604 11.0359C13.6078 11.82 13.6018 12.4613 13.5906 12.4609C13.5794 12.4606 13.0214 12.1425 12.3505 11.754L11.1308 11.0477L11.1373 10.0295L11.1438 9.01128L11.0796 8.89045C10.9145 8.57953 10.4565 8.5606 10.2538 8.8563C10.1871 8.95347 10.1871 8.95374 10.1789 9.72429L10.1707 10.4951L9.52104 10.1196C8.64527 9.61342 8.69024 9.63434 8.50696 9.6476C8.23953 9.66693 8.07935 9.84549 8.07935 10.1242C8.07935 10.4016 8.11014 10.429 8.98814 10.9337C9.49889 11.2273 9.65314 11.3277 9.62866 11.3508C9.61091 11.3676 9.35473 11.5229 9.05938 11.696C8.28703 12.1486 8.2673 12.1679 8.2673 12.4701C8.2673 12.7467 8.48199 12.9341 8.77458 12.913C8.91444 12.9029 8.98898 12.8647 9.78125 12.3973C10.4326 12.013 10.6482 11.8979 10.6842 11.9152C10.8018 11.9717 13.1 13.3088 13.1 13.3207C13.1 13.3327 10.802 14.6697 10.6843 14.7262C10.6484 14.7434 10.4289 14.6258 9.76769 14.2347L8.89828 13.7205L8.7179 13.7296C8.43138 13.7439 8.2673 13.9048 8.2673 14.1714C8.2673 14.4736 8.28698 14.4928 9.05938 14.9459C9.35473 15.1191 9.61077 15.2744 9.62836 15.291C9.65245 15.3136 9.48753 15.4205 8.96103 15.7235C8.10254 16.2174 8.05821 16.2608 8.08469 16.58C8.10547 16.8305 8.29246 16.9992 8.54922 16.9992C8.69545 16.9992 8.69365 17.0001 9.52104 16.5219L10.1707 16.1464L10.1789 16.9172C10.1871 17.6877 10.1871 17.688 10.2538 17.7852C10.4565 18.0809 10.9145 18.0619 11.0796 17.751L11.1438 17.6302L11.1373 16.612L11.1308 15.5937L12.3505 14.8874C13.0214 14.499 13.5794 14.1809 13.5906 14.1806C13.6018 14.1802 13.6078 14.8214 13.604 15.6055L13.5971 17.0311L12.7513 17.5082C11.6264 18.1426 11.4996 18.2994 11.7919 18.6948C12.0043 18.9821 12.1753 18.9524 12.9998 18.4849C13.321 18.3028 13.5894 18.1538 13.5961 18.1538C13.6029 18.1538 13.6119 18.5443 13.6162 19.0217L13.6239 19.8896L13.6906 19.9869C13.8825 20.2668 14.3051 20.2668 14.497 19.9869L14.5637 19.8896L14.5714 19.0217C14.5757 18.5443 14.5847 18.1538 14.5915 18.1538C14.5982 18.1538 14.8666 18.3028 15.1878 18.4849C16.0123 18.9524 16.1833 18.9821 16.3957 18.6948C16.688 18.2994 16.5612 18.1426 15.4363 17.5082L14.5905 17.0311L14.5836 15.6055C14.5798 14.8214 14.5858 14.1802 14.597 14.1806C14.6082 14.1809 15.1662 14.499 15.837 14.8874L17.0567 15.5937L17.0503 16.612L17.0438 17.6302L17.108 17.751C17.2731 18.0619 17.7311 18.0809 17.9338 17.7852C18.0005 17.688 18.0005 17.6877 18.0087 16.9172L18.0169 16.1464L18.6665 16.5219C19.4939 17.0001 19.4921 16.9992 19.6384 16.9992C19.9026 16.9992 20.0842 16.8295 20.1034 16.5646C20.126 16.2523 20.0941 16.2221 19.2021 15.7093C18.6921 15.4162 18.5345 15.3137 18.5589 15.291C18.5767 15.2744 18.8329 15.1191 19.1282 14.9459C19.9006 14.4928 19.9203 14.4736 19.9203 14.1714C19.9203 13.9048 19.7562 13.7439 19.4697 13.7296L19.2893 13.7205L18.4199 14.2347C17.7587 14.6258 17.5392 14.7434 17.5033 14.7262C17.3856 14.6697 15.0876 13.3327 15.0876 13.3207C15.0876 13.3088 17.3857 11.9717 17.5034 11.9152C17.5394 11.8979 17.755 12.013 18.4063 12.3973C19.1986 12.8647 19.2731 12.9029 19.413 12.913C19.7056 12.9341 19.9203 12.7467 19.9203 12.4701C19.9203 12.1679 19.9006 12.1486 19.1282 11.696C18.8329 11.5229 18.5767 11.3676 18.5589 11.3508C18.5344 11.3277 18.6887 11.2273 19.1994 10.9337C20.0774 10.429 20.1082 10.4016 20.1082 10.1242C20.1082 9.84549 19.9481 9.66693 19.6806 9.6476C19.4973 9.63434 19.5423 9.61342 18.6665 10.1196L18.0169 10.4951L18.0087 9.72429C18.0005 8.95374 18.0005 8.95347 17.9338 8.8563C17.7311 8.5606 17.2731 8.57953 17.108 8.89045L17.0438 9.01128L17.0503 10.0295L17.0567 11.0477L15.837 11.754C15.1662 12.1425 14.6083 12.4606 14.5972 12.4609C14.5861 12.4613 14.5771 11.8218 14.5771 11.04V9.61842L15.2282 9.25089C16.4915 8.53783 16.4942 8.53565 16.4935 8.24787C16.4919 7.6659 16.1104 7.63118 15.2279 8.13274C14.8844 8.32797 14.598 8.4877 14.5913 8.4877C14.5847 8.4877 14.5757 8.09714 14.5714 7.61977L14.5637 6.75183L14.497 6.65458C14.3584 6.45237 14.0597 6.3824 13.8514 6.50328Z" fill="black"/>
</g>
<defs>
<clipPath id="clip0_5434_737">
<rect width="40" height="40" fill="white" transform="translate(0 0.00415039)"/>
</clipPath>
</defs>
</svg>
