<svg width="40" height="41" viewBox="0 0 40 41" fill="none" xmlns="http://www.w3.org/2000/svg">
<g clip-path="url(#clip0_5434_1098)">
<path fill-rule="evenodd" clip-rule="evenodd" d="M0.0125122 7.6916C0.0125122 7.24977 0.370684 6.8916 0.812512 6.8916H26.3125C26.7543 6.8916 27.1125 7.24977 27.1125 7.6916V11.8291H33.125C33.3861 11.8291 33.6307 11.9565 33.7804 12.1703L35.5059 14.6353L39.8789 20.1971C39.9897 20.3381 40.05 20.5123 40.05 20.6916V28.8791C40.05 29.3209 39.6918 29.6791 39.25 29.6791H37.0945C36.7171 31.7787 34.881 33.3717 32.6728 33.3717C30.4647 33.3717 28.6286 31.7787 28.2512 29.6791H26.3125H14.157C13.7796 31.7787 11.9435 33.3717 9.73534 33.3717C7.52716 33.3717 5.69106 31.7787 5.31371 29.6791H0.812512C0.370684 29.6791 0.0125122 29.3209 0.0125122 28.8791V7.6916ZM28.2512 28.0791C28.6286 25.9796 30.4647 24.3865 32.6728 24.3865C34.881 24.3865 36.7171 25.9796 37.0945 28.0791H38.45V21.4916H29.3125C28.8707 21.4916 28.5125 21.1334 28.5125 20.6916V15.1123C28.5125 14.6705 28.8707 14.3123 29.3125 14.3123H33.3267L32.7085 13.4291H27.1125V28.0791H28.2512ZM25.5125 28.0791H14.157C13.7796 25.9796 11.9435 24.3865 9.73534 24.3865C7.52716 24.3865 5.69106 25.9796 5.31371 28.0791H1.61251V8.4916H25.5125V12.6291V28.0791ZM34.4746 15.9123H30.1125V19.8916H37.6033L34.4746 15.9123ZM9.73534 31.7717C11.3329 31.7717 12.628 30.4767 12.628 28.8791C12.628 27.2815 11.3329 25.9865 9.73534 25.9865C8.13777 25.9865 6.84269 27.2815 6.84269 28.8791C6.84269 30.4767 8.13777 31.7717 9.73534 31.7717ZM35.5655 28.8791C35.5655 30.4767 34.2704 31.7717 32.6728 31.7717C31.0753 31.7717 29.7802 30.4767 29.7802 28.8791C29.7802 27.2815 31.0753 25.9865 32.6728 25.9865C34.2704 25.9865 35.5655 27.2815 35.5655 28.8791Z" fill="white"/>
<path fill-rule="evenodd" clip-rule="evenodd" d="M27.1125 13.4291V28.0791L28.2512 28.0791C28.2575 28.0438 28.2643 28.0087 28.2715 27.9737C28.3598 27.542 28.51 27.1329 28.7125 26.756C29.4703 25.3455 30.9596 24.3865 32.6728 24.3865C34.5688 24.3865 36.1905 25.5609 36.85 27.222C36.9586 27.4956 37.0411 27.7823 37.0945 28.0791L38.45 28.0791V21.4916H29.3125C29.0736 21.4916 28.8591 21.3869 28.7125 21.2208C28.588 21.0797 28.5125 20.8945 28.5125 20.6916V15.1123C28.5125 15.0842 28.514 15.0565 28.5168 15.0291C28.5344 14.859 28.6053 14.7047 28.7125 14.5832C28.8591 14.4171 29.0736 14.3123 29.3125 14.3123H33.3267L32.7085 13.4291L27.1125 13.4291ZM35.5059 14.6353L39.8789 20.1971C39.9897 20.3381 40.05 20.5123 40.05 20.6916V28.8791C40.05 29.3209 39.6918 29.6791 39.25 29.6791H37.0945C37.0881 29.7144 37.0814 29.7495 37.0742 29.7845C36.6553 31.8317 34.8439 33.3717 32.6728 33.3717C30.4647 33.3717 28.6286 31.7786 28.2512 29.6791H14.157C14.1506 29.7144 14.1439 29.7495 14.1367 29.7845C13.7178 31.8317 11.9064 33.3717 9.73534 33.3717C7.52716 33.3717 5.69107 31.7786 5.31371 29.6791H0.812512C0.370684 29.6791 0.0125122 29.3209 0.0125122 28.8791V7.6916C0.0125122 7.24977 0.370684 6.8916 0.812512 6.8916H26.3125C26.7543 6.8916 27.1125 7.24977 27.1125 7.6916V11.8291H33.125C33.3857 11.8294 33.6309 11.9567 33.7804 12.1703L35.5059 14.6353ZM5.31371 28.0791C5.32005 28.0438 5.3268 28.0087 5.33396 27.9737C5.75289 25.9265 7.56427 24.3865 9.73534 24.3865C11.9435 24.3865 13.7796 25.9796 14.157 28.0791L25.5125 28.0791L25.5125 8.4916H1.61251V28.0791L5.31371 28.0791ZM30.8959 31.1618C31.3215 31.4933 31.8421 31.7086 32.4095 31.7599C32.4963 31.7677 32.5841 31.7717 32.6728 31.7717C32.7982 31.7717 32.9217 31.7638 33.0429 31.7483C33.5702 31.6809 34.0535 31.4714 34.4528 31.1594C35.1301 30.63 35.5655 29.8054 35.5655 28.8791C35.5655 27.9528 35.1301 27.1282 34.4528 26.5988C34.0267 26.2659 33.505 26.0497 32.9362 25.9983C32.8494 25.9905 32.7616 25.9865 32.6728 25.9865C32.5476 25.9865 32.4241 25.9944 32.303 26.0099C31.777 26.0771 31.2947 26.2857 30.8959 26.5964C30.2169 27.1258 29.7802 27.9514 29.7802 28.8791C29.7802 29.8068 30.2169 30.6324 30.8959 31.1618ZM37.6033 19.8916H30.1125V15.9123H34.4746L37.6033 19.8916ZM12.628 28.8791C12.628 30.4767 11.3329 31.7717 9.73534 31.7717C8.13777 31.7717 6.84269 30.4767 6.84269 28.8791C6.84269 27.2815 8.13777 25.9865 9.73534 25.9865C11.3329 25.9865 12.628 27.2815 12.628 28.8791Z" fill="white"/>
</g>
<defs>
<clipPath id="clip0_5434_1098">
<rect width="40" height="40" fill="white" transform="translate(0 0.00415039)"/>
</clipPath>
</defs>
</svg>
