<svg width="40" height="41" viewBox="0 0 40 41" fill="none" xmlns="http://www.w3.org/2000/svg">
<g clip-path="url(#clip0_1063_892)">
<path fill-rule="evenodd" clip-rule="evenodd" d="M20 1.8041C18.7448 1.8041 18.3 2.53709 18.3 3.0041V14.0041C18.3 14.2776 18.1603 14.5322 17.9295 14.679L1.80001 24.9433V28.3619L17.2266 22.7523C17.4719 22.6631 17.7452 22.6991 17.959 22.8488C18.1727 22.9986 18.3 23.2431 18.3 23.5041V32.0041C18.3 32.2163 18.2157 32.4198 18.0657 32.5698L14.3 36.3355V37.9985L19.8201 36.7246C19.9385 36.6973 20.0615 36.6973 20.1799 36.7246L25.7 37.9985V36.3355L21.9343 32.5698C21.7843 32.4198 21.7 32.2163 21.7 32.0041V23.5041C21.7 23.2431 21.8273 22.9986 22.0411 22.8488C22.2548 22.6991 22.5281 22.6631 22.7734 22.7523L38.2 28.3619V24.9433L22.0705 14.679C21.8398 14.5322 21.7 14.2776 21.7 14.0041V3.0041C21.7 2.53709 21.2552 1.8041 20 1.8041ZM16.7 3.0041C16.7 1.47111 18.0552 0.204102 20 0.204102C21.9448 0.204102 23.3 1.47111 23.3 3.0041V13.5649L39.4295 23.8292C39.6603 23.976 39.8 24.2306 39.8 24.5041V29.5041C39.8 29.7651 39.6727 30.0096 39.459 30.1594C39.2452 30.3091 38.9719 30.3451 38.7266 30.2559L23.3 24.6463V31.6727L27.0657 35.4384C27.2157 35.5884 27.3 35.7919 27.3 36.0041V39.0041C27.3 39.2479 27.1888 39.4784 26.9981 39.6302C26.8073 39.7819 26.5577 39.8384 26.3201 39.7836L20 38.3251L13.6799 39.7836C13.4423 39.8384 13.1928 39.7819 13.002 39.6302C12.8112 39.4784 12.7 39.2479 12.7 39.0041V36.0041C12.7 35.7919 12.7843 35.5884 12.9343 35.4384L16.7 31.6727V24.6463L1.27341 30.2559C1.02815 30.3451 0.754807 30.3091 0.541054 30.1594C0.327302 30.0096 0.200012 29.7651 0.200012 29.5041L0.200012 24.5041C0.200012 24.2306 0.339753 23.976 0.570512 23.8292L16.7 13.5649V3.0041Z" fill="white"/>
</g>
<defs>
<clipPath id="clip0_1063_892">
<rect width="40" height="40" fill="white" transform="translate(0 0.00415039)"/>
</clipPath>
</defs>
</svg>
