<svg width="40" height="41" viewBox="0 0 40 41" fill="none" xmlns="http://www.w3.org/2000/svg">
<g clip-path="url(#clip0_5434_1070)">
<path d="M4.08203 18.4065H5.62891C6.38672 18.4065 7.01172 18.2815 7.50391 18.0315C8.00391 17.7737 8.375 17.426 8.61719 16.9885C8.86719 16.5432 8.99219 16.0432 8.99219 15.4885C8.99219 14.8323 8.88281 14.2815 8.66406 13.8362C8.44531 13.3909 8.11719 13.0549 7.67969 12.8284C7.24219 12.6018 6.6875 12.4885 6.01562 12.4885C5.40625 12.4885 4.86719 12.6096 4.39844 12.8518C3.9375 13.0862 3.57422 13.4221 3.30859 13.8596C3.05078 14.2971 2.92188 14.8127 2.92188 15.4065H0.753906C0.753906 14.5393 0.972656 13.7502 1.41016 13.0393C1.84766 12.3284 2.46094 11.762 3.25 11.3401C4.04688 10.9182 4.96875 10.7073 6.01562 10.7073C7.04688 10.7073 7.94922 10.8909 8.72266 11.2581C9.49609 11.6174 10.0977 12.1565 10.5273 12.8752C10.957 13.5862 11.1719 14.4729 11.1719 15.5354C11.1719 15.9651 11.0703 16.426 10.8672 16.9182C10.6719 17.4026 10.3633 17.8557 9.94141 18.2776C9.52734 18.6995 8.98828 19.0471 8.32422 19.3206C7.66016 19.5862 6.86328 19.719 5.93359 19.719H4.08203V18.4065ZM4.08203 20.1877V18.887H5.93359C7.01953 18.887 7.91797 19.0159 8.62891 19.2737C9.33984 19.5315 9.89844 19.8752 10.3047 20.3049C10.7188 20.7346 11.0078 21.2073 11.1719 21.7229C11.3438 22.2307 11.4297 22.7385 11.4297 23.2463C11.4297 24.0432 11.293 24.7502 11.0195 25.3674C10.7539 25.9846 10.375 26.5081 9.88281 26.9377C9.39844 27.3674 8.82812 27.6917 8.17188 27.9104C7.51562 28.1292 6.80078 28.2385 6.02734 28.2385C5.28516 28.2385 4.58594 28.1331 3.92969 27.9221C3.28125 27.7112 2.70703 27.4065 2.20703 27.0081C1.70703 26.6018 1.31641 26.1057 1.03516 25.5198C0.753906 24.926 0.613281 24.2502 0.613281 23.4924H2.78125C2.78125 24.0862 2.91016 24.6057 3.16797 25.051C3.43359 25.4963 3.80859 25.844 4.29297 26.094C4.78516 26.3362 5.36328 26.4573 6.02734 26.4573C6.69141 26.4573 7.26172 26.344 7.73828 26.1174C8.22266 25.8831 8.59375 25.5315 8.85156 25.0627C9.11719 24.594 9.25 24.0042 9.25 23.2932C9.25 22.5823 9.10156 22.0002 8.80469 21.5471C8.50781 21.0862 8.08594 20.7463 7.53906 20.5276C7 20.301 6.36328 20.1877 5.62891 20.1877H4.08203ZM21.2734 21.3127H16.7148V19.4729H21.2734C22.1562 19.4729 22.8711 19.3323 23.418 19.051C23.9648 18.7698 24.3633 18.3792 24.6133 17.8792C24.8711 17.3792 25 16.8088 25 16.1682C25 15.5823 24.8711 15.0315 24.6133 14.5159C24.3633 14.0002 23.9648 13.5862 23.418 13.2737C22.8711 12.9534 22.1562 12.7932 21.2734 12.7932H17.2422V28.0042H14.9805V10.9417H21.2734C22.5625 10.9417 23.6523 11.1643 24.543 11.6096C25.4336 12.0549 26.1094 12.6721 26.5703 13.4612C27.0312 14.2424 27.2617 15.137 27.2617 16.1448C27.2617 17.2385 27.0312 18.1721 26.5703 18.9456C26.1094 19.719 25.4336 20.3088 24.543 20.7151C23.6523 21.1135 22.5625 21.3127 21.2734 21.3127ZM40.4688 26.1643V28.0042H31.9375V26.1643H40.4688ZM32.3828 10.9417V28.0042H30.1211V10.9417H32.3828Z" fill="white"/>
</g>
<defs>
<clipPath id="clip0_5434_1070">
<rect width="40" height="40" fill="white" transform="translate(0 0.00415039)"/>
</clipPath>
</defs>
</svg>
