<svg width="40" height="41" viewBox="0 0 40 41" fill="none" xmlns="http://www.w3.org/2000/svg">
<g clip-path="url(#clip0_5434_1125)">
<path fill-rule="evenodd" clip-rule="evenodd" d="M38.9942 0.457779C39.2218 0.605256 39.3591 0.857952 39.3591 1.1291V32.7191C39.3591 33.0191 39.1913 33.2938 38.9244 33.4308L26.9202 39.5909C26.7008 39.7034 26.4417 39.7086 26.2181 39.6047L13.3072 33.6104L1.81001 39.5889C1.56202 39.7178 1.26469 39.708 1.02576 39.5629C0.786824 39.4179 0.64093 39.1586 0.64093 38.8791V6.4994C0.64093 6.18539 0.824629 5.90042 1.11062 5.77077L12.9569 0.400478C13.1564 0.310029 13.3843 0.305355 13.5873 0.387546L26.5393 5.63L38.2324 0.398849C38.4799 0.28812 38.7667 0.310302 38.9942 0.457779ZM25.7549 7.03864L14.0872 2.31596V32.2085L25.7549 37.6257V7.03864ZM27.3549 37.5694L37.7591 32.2304V2.36341L27.3549 7.01791V37.5694ZM12.4872 32.2334V2.37014L2.24093 7.0151V37.5614L12.4872 32.2334Z" fill="white"/>
</g>
<defs>
<clipPath id="clip0_5434_1125">
<rect width="40" height="40" fill="white" transform="translate(0 0.00415039)"/>
</clipPath>
</defs>
</svg>
