<svg width="40" height="41" viewBox="0 0 40 41" fill="none" xmlns="http://www.w3.org/2000/svg">
<g clip-path="url(#clip0_5434_800)">
<path fill-rule="evenodd" clip-rule="evenodd" d="M2.26252 7.69185C2.26252 7.25002 2.6207 6.89185 3.06252 6.89185H26.3125C26.7544 6.89185 27.1125 7.25002 27.1125 7.69185V11.8293H33.125C33.3861 11.8293 33.6307 11.9567 33.7804 12.1706L35.5059 14.6356L39.8789 20.1974C39.9898 20.3384 40.05 20.5125 40.05 20.6918V28.8793C40.05 29.3212 39.6919 29.6793 39.25 29.6793H37.0945C36.7171 31.7789 34.881 33.372 32.6728 33.372C30.4647 33.372 28.6286 31.7789 28.2512 29.6793H26.3125H14.157C13.7796 31.7789 11.9435 33.372 9.73535 33.372C7.52717 33.372 5.69107 31.7789 5.31372 29.6793H3.06252C2.6207 29.6793 2.26252 29.3212 2.26252 28.8793V25.7543C2.26252 25.3125 2.6207 24.9543 3.06252 24.9543C3.50435 24.9543 3.86252 25.3125 3.86252 25.7543V28.0793H5.31372C5.69107 25.9798 7.52717 24.3867 9.73535 24.3867C11.9435 24.3867 13.7796 25.9798 14.157 28.0793H25.5125V12.6293V8.49185H3.86252V11.2543C3.86252 11.6962 3.50435 12.0543 3.06252 12.0543C2.6207 12.0543 2.26252 11.6962 2.26252 11.2543V7.69185ZM28.2512 28.0793C28.6286 25.9798 30.4647 24.3867 32.6728 24.3867C34.881 24.3867 36.7171 25.9798 37.0945 28.0793H38.45V21.4918H29.3125C28.8707 21.4918 28.5125 21.1337 28.5125 20.6918V15.1126C28.5125 14.6707 28.8707 14.3126 29.3125 14.3126H33.3268L32.7085 13.4293H27.1125V28.0793H28.2512ZM34.4746 15.9126H30.1125V19.8918H37.6034L34.4746 15.9126ZM9.73535 31.772C11.3329 31.772 12.628 30.4769 12.628 28.8793C12.628 27.2818 11.3329 25.9867 9.73535 25.9867C8.13778 25.9867 6.8427 27.2818 6.8427 28.8793C6.8427 30.4769 8.13778 31.772 9.73535 31.772ZM35.5655 28.8793C35.5655 30.4769 34.2704 31.772 32.6728 31.772C31.0753 31.772 29.7802 30.4769 29.7802 28.8793C29.7802 27.2818 31.0753 25.9867 32.6728 25.9867C34.2704 25.9867 35.5655 27.2818 35.5655 28.8793ZM0.0750122 15.9418C0.0750122 15.5 0.433184 15.1418 0.875012 15.1418H8.87501C9.31684 15.1418 9.67501 15.5 9.67501 15.9418C9.67501 16.3837 9.31684 16.7418 8.87501 16.7418H0.875012C0.433184 16.7418 0.0750122 16.3837 0.0750122 15.9418ZM4.87501 19.7668C4.43318 19.7668 4.07501 20.125 4.07501 20.5668C4.07501 21.0087 4.43318 21.3668 4.87501 21.3668H12.875C13.3168 21.3668 13.675 21.0087 13.675 20.5668C13.675 20.125 13.3168 19.7668 12.875 19.7668H4.87501Z" fill="white"/>
</g>
<defs>
<clipPath id="clip0_5434_800">
<rect width="40" height="40" fill="white" transform="translate(0 0.00439453)"/>
</clipPath>
</defs>
</svg>
