<svg width="40" height="41" viewBox="0 0 40 41" fill="none" xmlns="http://www.w3.org/2000/svg">
<path d="M11.7922 33.2516H29.071C38.0704 33.2516 37.3505 20.0044 29.071 20.0044H11.2165M11.2165 20.0044H25.9033M11.2165 20.0044C2.21711 20.0044 2.93706 6.75732 11.2165 6.75732H28.2791" stroke="black" stroke-width="1.6" stroke-linecap="round" stroke-linejoin="round"/>
<circle cx="33.3911" cy="6.61329" r="4.52764" stroke="black" stroke-width="1.6"/>
<circle cx="6.60889" cy="33.3955" r="4.52764" stroke="black" stroke-width="1.6"/>
<path fill-rule="evenodd" clip-rule="evenodd" d="M33.3911 10.3409C35.4498 10.3409 37.1188 8.67201 37.1188 6.61329C37.1188 4.55457 35.4498 2.88564 33.3911 2.88564C31.3324 2.88564 29.6635 4.55457 29.6635 6.61329C29.6635 8.67201 31.3324 10.3409 33.3911 10.3409ZM33.3911 11.9409C36.3335 11.9409 38.7188 9.55567 38.7188 6.61329C38.7188 3.67091 36.3335 1.28564 33.3911 1.28564C30.6709 1.28564 28.4268 3.3244 28.1035 5.95728H11.2165C6.53195 5.95728 4.03572 9.73487 3.93724 13.3591C3.88774 15.1806 4.43051 17.0401 5.64919 18.4563C6.88231 19.8894 8.75347 20.8044 11.2165 20.8044H25.9033H29.071C32.6659 20.8044 34.6694 23.6504 34.7509 26.6497C34.7914 28.14 34.3442 29.5922 33.4256 30.6598C32.5213 31.7107 31.1077 32.4515 29.071 32.4515H11.8532C11.4076 29.9594 9.22913 28.0679 6.60889 28.0679C3.66652 28.0679 1.28125 30.4531 1.28125 33.3955C1.28125 36.3379 3.66652 38.7231 6.60889 38.7231C9.32916 38.7231 11.5733 36.6844 11.8966 34.0515H29.071C31.5341 34.0515 33.4052 33.1365 34.6384 31.7035C35.857 30.2872 36.3998 28.4277 36.3503 26.6062C36.2518 22.982 33.7556 19.2044 29.071 19.2044H25.9033H11.2165C9.17985 19.2044 7.76622 18.4635 6.86198 17.4127C5.94331 16.3451 5.49615 14.8929 5.53665 13.4026C5.61815 10.4032 7.62162 7.55728 11.2165 7.55728H28.1469C28.5924 10.0494 30.7709 11.9409 33.3911 11.9409ZM10.3365 33.3955C10.3365 35.4542 8.66762 37.1231 6.60889 37.1231C4.55017 37.1231 2.88125 35.4542 2.88125 33.3955C2.88125 31.3368 4.55017 29.6679 6.60889 29.6679C8.66762 29.6679 10.3365 31.3368 10.3365 33.3955Z" fill="black"/>
</svg>
