<svg width="40" height="41" viewBox="0 0 40 41" fill="none" xmlns="http://www.w3.org/2000/svg">
<g clip-path="url(#clip0_5434_1134)">
<path fill-rule="evenodd" clip-rule="evenodd" d="M28.3295 3.64207C25.4842 3.33896 22.9562 4.5177 20.9997 6.18178C19.1997 7.71278 17.9712 9.58138 17.4797 10.8851C18.7241 10.6117 20.299 10.4029 21.9294 10.3312C24.2516 10.2292 26.8109 10.3992 28.7643 11.1368C31.5139 12.1751 33.4903 13.374 34.7317 14.2261C34.6255 13.1511 34.4171 11.9958 34.0979 10.7171C33.132 6.84851 29.9073 4.41663 28.3295 3.64207ZM34.8111 16.2548C33.8352 15.5257 31.6876 13.951 28.199 12.6336C26.5457 12.0093 24.2413 11.8312 21.9996 11.9297C20.0308 12.0162 18.2069 12.3112 17.0442 12.6417C16.9189 13.3661 16.8415 14.1137 16.7947 14.8771L16.7942 14.8851C16.7264 15.9945 16.7237 17.1229 16.7286 18.2551L16.7307 18.6804C16.7358 19.6661 16.741 20.6549 16.7052 21.6044C16.6495 23.0796 16.4937 24.5247 16.056 25.8116C15.4217 27.6765 13.7873 28.8274 12.181 29.533C10.5574 30.2462 8.80969 30.5738 7.68881 30.7089C7.476 30.7345 7.2618 30.6737 7.09424 30.5401C6.92667 30.4064 6.81975 30.2111 6.79745 29.9979C6.74436 29.4905 6.53358 28.3145 5.66494 27.3116C5.23593 26.8163 4.53359 26.4298 3.75772 26.1716C3.28236 26.0134 2.82051 25.9169 2.4422 25.8689C2.43357 25.9306 2.42583 25.9978 2.41946 26.0707C2.37754 26.5497 2.39595 27.2919 2.66056 28.3243C3.03807 29.7973 4.27138 30.3534 4.73086 30.412C5.16455 30.4672 5.47356 30.8604 5.42474 31.2949C5.37592 31.7293 4.98735 32.0441 4.5522 32.0018C4.46823 31.9936 4.13373 32.0126 3.70319 32.1777C3.29083 32.3359 2.8495 32.6062 2.50252 33.0374C2.16982 33.4508 2.01945 34.0869 2.0293 34.8467C2.03623 35.3814 2.12213 35.9164 2.22978 36.3611C2.76011 36.4007 3.64443 36.3867 4.68265 36.1267C5.20042 35.997 5.69613 35.5809 6.12627 34.9928C6.54806 34.4162 6.83356 33.7729 6.96057 33.3775C7.08012 33.0053 7.45111 32.774 7.8379 32.8305C10.4624 33.214 16.7019 33.8387 20.8171 33.329C22.9825 33.0608 25.2508 31.8967 27.2996 30.2621C29.3416 28.633 31.103 26.5858 32.2594 24.6491C32.531 24.1943 32.7676 23.7483 32.9659 23.3179C33.812 21.4824 34.3703 19.8483 34.6358 18.1796C34.7359 17.5502 34.7949 16.9128 34.8111 16.2548ZM15.1459 15.9795C15.1252 16.7489 15.1254 17.5145 15.1286 18.2621L15.1307 18.6908C15.1339 19.3143 15.1371 19.9227 15.1303 20.5157C14.9932 20.5109 14.8601 20.5148 14.7356 20.5231C14.1588 20.5618 13.513 20.7158 12.887 20.9119C12.2074 21.1248 11.5066 21.4018 10.8727 21.6815C11.1238 20.7621 11.6016 19.5163 12.4594 18.1483C13.3202 16.7755 14.2154 16.2877 14.8609 16.0664C14.9614 16.0319 15.0557 16.0037 15.1459 15.9795ZM15.0789 22.1148C15.014 22.1125 14.9359 22.1133 14.8425 22.1196C14.4466 22.1461 13.9376 22.2594 13.3654 22.4387C12.2274 22.7953 10.9884 23.3644 10.1981 23.7805C9.94846 23.9119 9.64807 23.9021 9.4075 23.7548C9.16694 23.6074 9.02178 23.3442 9.02547 23.0621C9.03759 22.1359 9.49636 19.8619 11.1038 17.2983C12.1694 15.5989 13.3683 14.8868 14.3419 14.5529C14.6856 14.435 15.0045 14.3649 15.2297 14.318C15.2941 13.4944 15.3975 12.6704 15.5634 11.8611C15.6313 11.5295 15.7098 11.1999 15.8006 10.8733C16.2642 9.20493 17.7736 6.82529 19.9631 4.96301C22.1692 3.08657 25.174 1.64531 28.6499 2.06829C28.7329 2.0784 28.8139 2.10148 28.8898 2.13669C30.682 2.96785 34.5031 5.73482 35.6502 10.3295C36.1599 12.371 36.4132 14.1657 36.4157 15.8548C36.4168 16.5661 36.3733 17.2565 36.2867 17.9366C37.5593 18.9272 39.4686 21.144 39.5398 24.2583C39.5771 25.8868 39.4039 27.0558 39.1445 27.871C39.0147 28.2788 38.8592 28.6109 38.6876 28.8706C38.5253 29.116 38.3124 29.3513 38.0424 29.4866C37.7658 29.6252 37.4341 29.5919 37.1906 29.4011L33.1503 26.2354C31.9146 28.0984 30.2212 29.9781 28.2974 31.5129C26.1163 33.253 23.5761 34.5995 21.0137 34.9168C16.9878 35.4155 11.1746 34.8892 8.24019 34.5016C8.04409 34.9468 7.76924 35.4568 7.41766 35.9375C6.88956 36.6594 6.11213 37.4181 5.0713 37.6788C3.39704 38.098 1.99312 37.9938 1.41922 37.8598C1.1456 37.796 0.925535 37.5933 0.839471 37.3258C0.641486 36.7106 0.44159 35.8056 0.429432 34.8674C0.417483 33.9453 0.585835 32.8671 1.25601 32.0343C1.62527 31.5754 2.0541 31.2374 2.48049 30.9925C1.89346 30.4716 1.36919 29.7303 1.11066 28.7216C0.803674 27.5238 0.767017 26.6002 0.825547 25.9312C0.854757 25.5974 0.907288 25.3315 0.959002 25.1313C1.00738 24.944 1.06674 24.7803 1.06362 24.7901C1.16665 24.4664 1.46288 24.243 1.80243 24.2331C2.42506 24.2147 3.34932 24.3494 4.26295 24.6535C5.17218 24.9561 6.17991 25.4623 6.87435 26.264C7.69223 27.2083 8.07148 28.2471 8.24974 29.0113C9.21841 28.8479 10.4241 28.5571 11.5375 28.0681C12.9806 27.4342 14.1201 26.5348 14.5413 25.2964C14.855 24.3739 15.0084 23.3058 15.0789 22.1148ZM33.9831 24.8554L37.5308 27.635C37.5602 27.5619 37.5901 27.4791 37.6198 27.3858C37.8108 26.7856 37.9747 25.8029 37.9403 24.2949C37.8943 22.2843 36.8653 20.7139 35.9447 19.7731C35.6052 21.1609 35.0891 22.5339 34.419 23.9877C34.2869 24.2743 34.1413 24.5639 33.9831 24.8554ZM25.9647 13.8144C26.404 13.7667 26.7987 14.0842 26.8464 14.5234C27.3648 19.2978 25.2584 23.7945 23.0493 26.4759C21.9225 27.8437 20.3773 29.075 18.9608 29.9903C18.2489 30.4504 17.5568 30.8389 16.949 31.1304C16.357 31.4143 15.7942 31.6312 15.3545 31.7097C14.9196 31.7874 14.504 31.4978 14.4263 31.0628C14.3486 30.6279 14.6382 30.2123 15.0732 30.1346C15.2957 30.0949 15.7019 29.954 16.2571 29.6877C16.7964 29.429 17.4296 29.0748 18.0924 28.6465C19.4253 27.7852 20.8268 26.6573 21.8144 25.4586C23.8339 23.0072 25.715 18.9259 25.2558 14.6961C25.2081 14.2569 25.5255 13.8621 25.9647 13.8144ZM23.8149 8.45164C23.3665 8.75949 22.7534 8.64551 22.4455 8.19704C22.1376 7.74857 22.2516 7.13545 22.7001 6.82759C23.1486 6.51973 23.7617 6.63372 24.0695 7.08219C24.3774 7.53066 24.2634 8.14378 23.8149 8.45164ZM29.6996 9.48274C30.0074 9.93121 30.6206 10.0452 31.069 9.73734C31.5175 9.42948 31.6315 8.81636 31.3236 8.36789C31.0158 7.91942 30.4027 7.80544 29.9542 8.11329C29.5057 8.42115 29.3917 9.03427 29.6996 9.48274Z" fill="black"/>
</g>
<defs>
<clipPath id="clip0_5434_1134">
<rect width="40" height="40" fill="white" transform="translate(0 0.00439453)"/>
</clipPath>
</defs>
</svg>
