<svg width="50" height="51" viewBox="0 0 50 51" fill="none" xmlns="http://www.w3.org/2000/svg">
<path fill-rule="evenodd" clip-rule="evenodd" d="M31.6249 13.1873V13.1873C31.766 13.306 31.8475 13.481 31.8475 13.6654V15.4297V17.4848H34.8333C37.4117 17.4848 37.9275 17.4848 37.9275 17.4848C38.0155 17.5465 38.9976 18.9361 40.047 20.436C41.0964 21.936 42.4151 23.8107 42.9775 24.602L44 26.0408V29.5711V32.8338C44 33.0065 43.9382 33.1734 43.8257 33.3044V33.3044V33.3044C43.715 33.4332 43.5535 33.5073 43.3837 33.5073H41.297L41.1821 34.0515C40.9936 34.8258 40.7026 35.3331 40.0996 35.9387C39.3102 36.7315 38.6185 37.0524 37.5197 37.1358C36.3338 37.2257 35.2748 36.8286 34.416 35.9719C33.8391 35.3963 33.5099 34.832 33.3133 34.0813L33.1819 33.5797H26.6069H20.032L19.9357 34.0037C19.6777 35.1393 18.8577 36.1943 17.8229 36.722C17.3235 36.9766 16.8862 37.0892 16.2229 37.1341C14.2578 37.2671 12.444 35.8962 12.0225 33.9594L11.932 33.5435H9.66899H7.67365C7.50093 33.5435 7.33393 33.4816 7.20298 33.369V33.369V33.369C7.07412 33.2581 7 33.0966 7 32.9266V23.2717V13.6169C7 13.4469 7.07412 13.2854 7.20298 13.1745V13.1745V13.1745C7.33393 13.0619 7.50093 13 7.67365 13H19.4042H31.1116C31.2994 13 31.4812 13.0663 31.6249 13.1873V13.1873ZM8.33822 20.4506V26.5269V27.9034V30.0724V32.2414H10.1415H11.9448L12.0283 31.8391C12.4302 29.903 14.2529 28.5176 16.2229 28.6508C17.3096 28.7244 18.1477 29.0997 18.8818 29.8417C19.3482 30.3131 19.845 31.1959 19.9472 31.7351C19.9736 31.8743 20.0113 32.0454 20.0309 32.1154C20.0647 32.2352 20.3607 32.2414 25.288 32.2239L30.5093 32.2053V24.827V17.4487V16.0743L30.5297 15.2243L30.55 14.3744H19.4442H8.33822V20.4506ZM31.8475 25.5531V32.2469H33.1819L33.3135 31.7036C33.5098 30.9531 33.8389 30.3888 34.416 29.813C35.2748 28.9564 36.3338 28.5592 37.5197 28.6492C38.6185 28.7326 39.3102 29.0534 40.0996 29.8462C40.7026 30.4518 40.9936 30.9591 41.1821 31.7334L41.297 32.2053H42.6233V29.3327C42.6215 27.024 42.601 26.392 42.5249 26.2918C42.4353 26.1737 42.1407 26.1652 38.1607 26.1652H34.1624C33.9897 26.1652 33.8241 26.0966 33.7019 25.9745V25.9745V25.9745C33.5798 25.8524 33.5112 25.6868 33.5112 25.5141V23.0127V20.5094C33.5112 20.3367 33.5731 20.1697 33.6857 20.0388V20.0388V20.0388C33.7967 19.9096 33.9576 19.834 34.1278 19.831L35.8939 19.7996L37.9275 19.7634L37.6182 19.3135L37.3089 18.8636L34.5782 18.8614L31.8475 18.8592V25.5531ZM34.8301 23.0005L34.8495 24.827L38.1588 24.8458C39.979 24.8561 41.4682 24.8472 41.4682 24.826C41.4682 24.8048 40.8935 23.9744 40.1911 22.9807L38.9139 21.174H36.8624H34.8108L34.8301 23.0005ZM36.0736 30.4688C34.2091 31.381 34.0475 34.0114 35.7851 35.1648C36.33 35.5265 36.9007 35.6626 37.5101 35.5763C38.5262 35.4324 39.3068 34.873 39.7191 33.9933C39.8867 33.6357 39.913 33.4866 39.913 32.8925C39.913 32.291 39.8875 32.1502 39.7087 31.7633C39.4945 31.2998 39.0145 30.7781 38.5748 30.5308C37.8403 30.1177 36.8417 30.093 36.0736 30.4688ZM15.1378 30.3317C14.3989 30.5672 13.7073 31.2549 13.4354 32.0244C13.2674 32.5001 13.2833 33.3425 13.4698 33.841C13.8647 34.8964 14.8395 35.5954 15.9072 35.5888C17.5051 35.5789 18.6801 34.4363 18.6801 32.8925C18.6801 32.0992 18.4077 31.4648 17.8392 30.9343C17.0884 30.2335 16.1221 30.018 15.1378 30.3317Z" fill="white"/>
</svg>
