<svg width="50" height="50" viewBox="0 0 50 50" fill="none" xmlns="http://www.w3.org/2000/svg">
<path d="M32.8429 43.9995C32.7696 43.9995 32.6964 43.9995 32.6231 43.9995C32.2838 43.8629 32.1213 43.5908 31.994 43.2704C31.5043 42.0429 30.9926 40.8234 30.5106 39.5932C30.4247 39.3739 30.3162 39.3201 30.0953 39.3206C26.3699 39.326 22.6445 39.3282 18.9191 39.3174C18.6586 39.3169 18.5434 39.4088 18.4575 39.625C17.9981 40.7777 17.5304 41.9273 17.0677 43.079C16.9179 43.4521 16.8027 43.8489 16.3538 43.9995C16.2805 43.9995 16.2073 43.9995 16.134 43.9995C15.5259 43.7441 15.5 43.401 15.6674 42.9247C15.7561 42.672 15.8735 42.4289 15.9748 42.1805C16.4315 41.0638 16.8892 39.947 17.3431 38.8292C17.7469 37.8356 18.1468 36.8414 18.5473 35.8467C18.6183 35.6698 18.6828 35.4897 18.7494 35.3144C18.2559 35.2349 17.8064 35.1741 17.3624 35.0875C16.5152 34.9225 15.7925 34.5251 15.1954 33.9159C14.3889 33.0933 14.0254 32.0739 14.0193 30.97C13.9923 25.8525 13.9978 20.7343 14.0105 15.6162C14.0116 15.113 14.086 14.5957 14.2198 14.1097C14.5982 12.7348 15.5242 11.8337 16.8854 11.3519C17.1382 11.2627 17.3999 11.1966 17.6769 11.1137C17.3574 10.5164 17.2054 9.92119 17.3227 9.26146C17.4412 8.59421 17.7645 8.05815 18.2895 7.64092C19.1945 6.92151 20.4863 6.86667 21.4629 7.48983C21.9097 7.7748 22.2435 8.15601 22.4583 8.63615C22.8103 9.42384 22.7436 10.1976 22.3525 10.9734C23.7985 10.9734 25.2087 10.9734 26.6591 10.9734C26.3049 10.3368 26.2454 9.68784 26.3919 9.0265C26.5417 8.35172 26.9455 7.83233 27.5256 7.45004C28.5287 6.78978 29.7857 6.85806 30.7827 7.64145C31.219 7.98449 31.4966 8.44958 31.6448 8.9765C31.8563 9.72978 31.7071 10.4384 31.2972 11.1137C31.4454 11.1471 31.5699 11.1702 31.6922 11.203C32.6815 11.4659 33.5232 11.9531 34.1357 12.7725C34.8012 13.6629 34.9967 14.6866 34.9973 15.7609C34.9984 20.6553 35.0072 25.5497 34.9863 30.4436C34.9835 31.0609 34.8915 31.698 34.7147 32.29C34.1738 34.1025 32.6644 35.0902 30.7959 35.2418C30.618 35.2564 30.4395 35.2623 30.2236 35.2746C30.2726 35.4048 30.3013 35.4865 30.3338 35.5666C30.7073 36.4855 31.0824 37.4038 31.4542 38.3233C32.064 39.8303 32.6589 41.3434 33.2863 42.8435C33.5083 43.3768 33.4483 43.7602 32.8429 43.9995ZM15.3612 23.1485C15.3612 25.5465 15.365 27.9445 15.3584 30.3426C15.3568 30.9093 15.3838 31.4674 15.5859 32.005C15.8244 32.639 16.2227 33.1336 16.8402 33.4664C17.5056 33.8251 18.2201 33.9127 18.9593 33.9127C22.5222 33.9133 26.0851 33.9149 29.648 33.9106C30.0683 33.91 30.4924 33.9014 30.9089 33.8509C31.9962 33.7186 32.8313 33.2261 33.2946 32.2094C33.5645 31.6168 33.6609 30.9964 33.6615 30.3587C33.6648 25.5535 33.6653 20.7483 33.6593 15.9437C33.6587 15.5786 33.6257 15.2103 33.5678 14.849C33.4103 13.8618 32.909 13.1064 31.9637 12.666C31.3628 12.3859 30.7205 12.3063 30.0672 12.3052C26.3578 12.3009 22.6483 12.2918 18.9389 12.3154C18.3826 12.3192 17.8064 12.4224 17.2765 12.5918C16.4001 12.8714 15.7963 13.4779 15.5777 14.3699C15.4576 14.8597 15.3755 15.3716 15.3711 15.8738C15.3496 18.2987 15.3612 20.7236 15.3612 23.1485ZM29.8325 37.9458C29.8265 37.8786 29.8336 37.8318 29.8176 37.7942C29.4789 36.9769 29.1401 36.1597 28.7903 35.3472C28.7661 35.2913 28.6543 35.2413 28.5821 35.2392C28.2163 35.2284 27.8495 35.2338 27.4831 35.2338C25.1569 35.2338 22.8307 35.2343 20.5044 35.2327C20.353 35.2327 20.2219 35.2289 20.1536 35.4074C19.9486 35.9408 19.7272 36.4683 19.5162 36.9995C19.3961 37.3022 19.2832 37.6081 19.1549 37.9458C22.7387 37.9458 26.2685 37.9458 29.8325 37.9458ZM27.6666 9.69053C27.666 10.4314 28.2626 11.01 29.0244 11.0084C29.7747 11.0068 30.3624 10.4395 30.3746 9.70504C30.3867 8.97005 29.7884 8.38183 29.0261 8.37807C28.2593 8.3743 27.6671 8.94585 27.6666 9.69053ZM19.9822 10.9826C20.7507 10.9826 21.3296 10.4142 21.328 9.66096C21.3269 8.92542 20.743 8.34742 19.9949 8.34204C19.254 8.33667 18.625 8.93832 18.6172 9.66042C18.6101 10.3831 19.2287 10.9826 19.9822 10.9826Z" fill="black"/>
<path d="M24.517 16.1647C26.3943 16.1647 28.2716 16.1663 30.1489 16.1636C30.5901 16.163 30.9983 16.2254 31.3343 16.5459C31.6653 16.8615 31.7904 17.2486 31.7909 17.682C31.7942 19.3998 31.7948 21.1177 31.7909 22.8356C31.7893 23.4781 31.5304 23.9873 30.9041 24.2459C30.6843 24.3362 30.4248 24.3696 30.1836 24.3701C26.3921 24.3776 22.6006 24.3696 18.8096 24.3787C17.757 24.3814 17.1885 23.6512 17.1929 22.777C17.2006 21.086 17.1929 19.395 17.1962 17.704C17.1979 16.9744 17.6308 16.3609 18.2577 16.2163C18.4681 16.1679 18.6934 16.1673 18.9121 16.1668C20.7806 16.163 22.6485 16.1647 24.517 16.1647ZM24.5197 17.4647C22.6513 17.4647 20.7828 17.4717 18.9148 17.4578C18.6218 17.4556 18.5629 17.5562 18.5645 17.8115C18.5728 19.4488 18.5733 21.0865 18.564 22.7237C18.5623 22.9834 18.6504 23.0582 18.9121 23.0576C22.6397 23.0506 26.3673 23.0506 30.0949 23.0576C30.3527 23.0582 30.443 22.992 30.4414 22.7275C30.4298 21.0811 30.4298 19.4348 30.4414 17.7884C30.443 17.525 30.3582 17.4588 30.0976 17.4599C28.238 17.4696 26.3788 17.4647 24.5197 17.4647Z" fill="black"/>
<path d="M29.2205 26.9095C30.6306 26.9122 31.7791 28.0344 31.7847 29.4146C31.7902 30.8034 30.6323 31.9169 29.1968 31.9191C27.7949 31.9212 26.6359 30.7872 26.6485 29.4027C26.6612 28.0107 27.7927 26.9171 29.2205 26.9095ZM30.4312 29.4162C30.4312 28.7554 29.8875 28.2231 29.2155 28.2258C28.5429 28.2285 27.9965 28.7624 27.997 29.4162C27.9976 30.0657 28.5534 30.6114 29.2155 30.6125C29.8815 30.6136 30.4318 30.0721 30.4312 29.4162Z" fill="black"/>
<path d="M19.7574 31.9169C18.3378 31.9072 17.2058 30.7942 17.2223 29.4C17.2394 27.9607 18.3791 26.9154 19.7904 26.9127C21.2083 26.91 22.3634 27.9913 22.3541 29.429C22.3441 30.9066 21.1146 31.9464 19.7574 31.9169ZM18.5857 29.3855C18.5554 30.035 19.0589 30.5748 19.7287 30.6108C20.3903 30.6469 20.9885 30.107 21.0166 29.4484C21.043 28.8215 20.5032 28.2553 19.8515 28.2273C19.1564 28.1972 18.6182 28.6897 18.5857 29.3855Z" fill="black"/>
</svg>
