<svg width="50" height="50" viewBox="0 0 50 50" fill="none" xmlns="http://www.w3.org/2000/svg">
<path d="M7 35.9702C7.23654 35.7771 7.4487 35.5406 7.71357 35.3972C8.77436 34.8229 9.89907 34.4095 11.1002 34.217C11.9627 34.0787 12.8232 34.091 13.6791 34.2687C13.7944 34.2926 13.9097 34.3152 14.0895 34.3514C13.8438 33.7306 13.6191 33.1563 13.3898 32.5839C12.5115 30.3862 11.6326 28.1892 10.7517 25.9922C10.2272 24.684 9.7047 23.3753 9.17232 22.071C8.87319 21.3384 9.08206 20.9483 9.87601 20.8081C11.0719 20.5968 12.2671 20.3811 13.4656 20.1853C13.6975 20.1472 13.7449 20.051 13.7436 19.8468C13.737 18.5678 13.7548 17.2887 13.7337 16.0103C13.7252 15.4734 13.8991 15.1317 14.4348 14.9166C15.964 14.3023 17.4722 13.6388 18.9969 13.0135C19.2782 12.8979 19.3889 12.7661 19.3843 12.4541C19.3652 10.9605 19.3751 9.46634 19.3757 7.9728C19.3764 7.25768 19.6353 7.00122 20.3654 7.00122C23.7961 6.99993 27.2276 6.99929 30.659 7.00122C31.3746 7.00122 31.6309 7.24993 31.6322 7.95019C31.6355 9.47603 31.6388 11.0025 31.6276 12.5284C31.6256 12.7796 31.6987 12.9121 31.9419 13.0122C33.5456 13.675 35.142 14.3539 36.7424 15.0245C37.1088 15.1782 37.2682 15.4366 37.2649 15.8307C37.2544 17.142 37.2669 18.4528 37.2557 19.7641C37.2537 20.0284 37.3005 20.1485 37.6089 20.1983C38.7968 20.3901 39.9782 20.6207 41.1609 20.8436C41.9515 20.9922 42.1604 21.3895 41.8698 22.1175C40.6839 25.0846 39.5051 28.0542 38.3231 31.0232C37.6471 32.7222 36.9704 34.4211 36.2944 36.1201C36.2555 36.2183 36.2219 36.3184 36.1771 36.4411C36.8452 36.7777 37.543 36.9134 38.2678 36.9521C39.6534 37.0271 40.925 36.6162 42.167 36.0794C42.4371 35.9625 42.6981 35.8242 42.9675 35.7041C43.2686 35.5697 43.5638 35.5665 43.8254 35.7939C44.1285 36.0568 44.0211 36.7971 43.6152 37.0064C43.0842 37.2809 42.5373 37.5329 41.9766 37.7428C40.7583 38.1983 39.4939 38.436 38.1847 38.3636C36.6884 38.2809 35.3212 37.8035 34.0457 37.0419C33.118 36.4877 32.156 35.9986 31.084 35.7603C29.9738 35.5135 28.8945 35.6944 27.8555 36.0645C27.0978 36.3346 26.3671 36.6866 25.6469 37.0464C24.2857 37.7273 22.8658 38.184 21.3332 38.2964C19.4805 38.4321 17.8254 37.8875 16.2368 37.0025C15.4139 36.5439 14.5481 36.1349 13.6586 35.8191C12.4173 35.3785 11.1681 35.6059 9.95968 36.0322C9.45696 36.2099 8.97664 36.4489 8.48445 36.6556C8.27427 36.7441 8.06409 36.843 7.84402 36.8972C7.45858 36.9922 7.14957 36.7764 7.07775 36.3979C7.0593 36.2971 7.02636 36.1989 7 36.0994C7 36.0561 7 36.0135 7 35.9702ZM26.2202 19.7034C26.2202 19.8862 26.2202 20.0129 26.2202 20.1395C26.2202 22.4392 26.2208 24.739 26.2188 27.0387C26.2188 27.1886 26.2169 27.341 26.1912 27.4877C26.1378 27.7945 25.9342 27.9851 25.6377 28.0613C25.3293 28.1408 25.0493 28.0387 24.9024 27.77C24.7943 27.5729 24.7344 27.3262 24.7331 27.1007C24.7212 24.7687 24.7258 22.4366 24.7258 20.1046C24.7258 19.9806 24.7258 19.8559 24.7258 19.6957C20.0366 20.4915 15.406 21.2777 10.7372 22.0697C10.8762 22.3992 11.0027 22.6827 11.1173 22.9709C12.6894 26.9179 14.2615 30.8656 15.8296 34.8145C15.9285 35.0639 16.0635 35.2538 16.3238 35.3765C16.7969 35.5994 17.2482 35.8669 17.7186 36.0949C18.7933 36.6162 19.914 36.9612 21.1336 36.8572C22.1812 36.768 23.1722 36.4631 24.1276 36.0484C25.1475 35.6059 26.1411 35.1014 27.1749 34.6937C29.4487 33.7977 31.6546 34.0212 33.7788 35.1873C34.0977 35.3623 34.4265 35.5212 34.7744 35.6995C36.5935 31.1408 38.3916 26.6311 40.2075 22.0775C35.5314 21.2842 30.9101 20.4993 26.2202 19.7034ZM35.8207 19.8442C35.8207 18.6821 35.8134 17.5658 35.8266 16.4495C35.8292 16.2286 35.7528 16.1337 35.5512 16.0503C34.0074 15.414 32.4703 14.7622 30.9285 14.1233C30.7921 14.0671 30.6327 14.0413 30.4838 14.0413C27.1841 14.0368 23.8838 14.0368 20.5841 14.0406C20.4345 14.0406 20.2725 14.0581 20.1367 14.1143C18.5844 14.759 17.038 15.416 15.485 16.0587C15.2926 16.1382 15.2235 16.2344 15.2261 16.4379C15.2393 17.4806 15.2373 18.5232 15.2426 19.5652C15.2432 19.6479 15.2584 19.7299 15.267 19.8178C15.3526 19.8178 15.4185 19.8268 15.4804 19.8165C18.6299 19.2784 21.7787 18.7377 24.9288 18.2028C25.1963 18.1576 25.4809 18.0968 25.7411 18.1395C28.2996 18.5619 30.854 19.0064 33.4098 19.4418C34.1972 19.5768 34.9846 19.7054 35.8207 19.8442ZM20.8589 12.5516C23.9925 12.5516 27.0648 12.5516 30.1372 12.5516C30.1372 11.1808 30.1372 9.83391 30.1372 8.49283C30.0917 8.48184 30.0706 8.47215 30.0489 8.47215C27.0681 8.46957 24.0874 8.47022 21.1073 8.46311C20.8931 8.46246 20.8556 8.55678 20.8562 8.73701C20.8622 9.63947 20.8589 10.5419 20.8589 11.4444C20.8589 11.8068 20.8589 12.1692 20.8589 12.5516Z" fill="black"/>
<path d="M20.6838 42.9997C20.2404 42.9383 19.795 42.8886 19.3542 42.8143C18.0608 42.5953 16.9005 42.0572 15.7804 41.4047C14.9417 40.9164 14.0647 40.5003 13.0856 40.344C12.0083 40.1722 10.9633 40.313 9.96316 40.7109C9.59946 40.8556 9.36556 40.8363 9.13891 40.5113C8.95047 40.2413 8.71327 40.0029 8.47607 39.7258C9.47296 39.2471 10.4758 38.9823 11.5267 38.8679C13.2088 38.6857 14.7249 39.1754 16.1843 39.9306C16.9578 40.3311 17.7294 40.7426 18.5306 41.0837C20.0005 41.7096 21.514 41.6457 22.9918 41.1321C23.9373 40.804 24.8453 40.3679 25.7545 39.9461C27.0215 39.3582 28.3215 38.908 29.7368 38.8369C31.3148 38.7581 32.7215 39.2762 34.0867 39.9816C34.9083 40.406 35.7332 40.8356 36.5931 41.1741C38.0373 41.7426 39.4968 41.5585 40.9384 41.1043C41.0629 41.0649 41.1874 41.0268 41.3133 40.9907C41.3278 40.9868 41.3482 41.0036 41.3897 41.0204C40.3731 41.9209 39.2266 42.5811 37.8983 42.846C37.4569 42.9338 36.9502 42.7633 36.4844 42.6625C35.2555 42.397 34.2092 41.7342 33.1247 41.1515C31.8676 40.4758 30.5446 40.0895 29.0884 40.3485C28.0547 40.5326 27.0848 40.895 26.1676 41.3834C24.9079 42.0546 23.6006 42.5876 22.1775 42.8111C21.7031 42.8854 21.2254 42.937 20.749 42.9991C20.7279 42.9997 20.7055 42.9997 20.6838 42.9997Z" fill="black"/>
<path d="M18.2972 24.8137C18.2952 26.1728 17.1415 27.2949 15.7611 27.2814C14.4065 27.2678 13.2871 26.1483 13.295 24.8156C13.3029 23.4894 14.4414 22.3796 15.7941 22.3789C17.1487 22.3783 18.2998 23.4984 18.2972 24.8137ZM14.8137 24.8447C14.8183 25.3996 15.2446 25.8169 15.8125 25.8221C16.3818 25.8266 16.8298 25.3847 16.8246 24.8221C16.8193 24.2736 16.3805 23.8447 15.8224 23.8421C15.2466 23.8389 14.8091 24.2743 14.8137 24.8447Z" fill="black"/>
<path d="M37.7157 24.8433C37.7091 26.1779 36.5738 27.2845 35.2152 27.2806C33.8579 27.2768 32.7227 26.1644 32.7207 24.8356C32.7187 23.4951 33.883 22.3588 35.2403 22.3775C36.6035 22.3969 37.7223 23.5106 37.7157 24.8433ZM35.2198 23.8524C34.6532 23.8511 34.2236 24.2664 34.2164 24.8233C34.2091 25.3931 34.6427 25.8297 35.2172 25.8317C35.7799 25.8336 36.2424 25.3756 36.2332 24.8265C36.2233 24.2852 35.7746 23.8536 35.2198 23.8524Z" fill="black"/>
</svg>
