<svg width="50" height="50" viewBox="0 0 50 50" fill="none" xmlns="http://www.w3.org/2000/svg">
<path d="M25.9386 43.0002C25.0478 43.0002 24.157 43.0002 23.2655 43.0002C23.1743 42.9771 23.0853 42.9452 22.9926 42.9322C22.3862 42.8488 21.7733 42.8025 21.1741 42.6837C17.8866 42.0317 14.9247 40.6706 12.3514 38.5104C8.92208 35.6317 6.89081 31.9597 6.21782 27.5337C6.13749 27.0027 6.07236 26.4695 6 25.9371C6 24.9729 6 24.0087 6 23.0446C6.0948 22.3694 6.17512 21.6914 6.28801 21.0184C6.8691 17.5551 8.30626 14.4873 10.7652 11.9816C14.9812 7.68446 20.1118 5.64891 26.155 6.0495C28.4084 6.19873 30.5613 6.76231 32.5933 7.74459C36.637 9.69974 39.5243 12.7893 41.3494 16.8713C42.7583 20.0231 43.322 23.3264 42.8198 26.7629C42.3285 30.1255 41.1098 33.2144 39.0952 35.9613C36.2375 39.8585 32.3827 42.0984 27.6138 42.7844C27.0566 42.8648 26.4973 42.9293 25.9386 43.0002ZM11.1791 35.5209C11.2971 35.4086 11.376 35.3354 11.4519 35.2601C12.5208 34.1923 13.7003 33.2644 15.0043 32.5023C15.2496 32.3589 15.2858 32.2162 15.2221 31.9561C14.7047 29.8481 14.4225 27.7075 14.3784 25.5358C14.3755 25.3974 14.3603 25.2591 14.3501 25.1185C11.9534 25.1185 9.60086 25.1185 7.21428 25.1185C7.40098 29.0281 8.69847 32.4769 11.1791 35.5209ZM14.348 23.8675C14.3596 23.7653 14.3719 23.7059 14.3726 23.6465C14.4102 21.3785 14.6917 19.1415 15.2453 16.9408C15.3046 16.7054 15.2084 16.6032 15.0195 16.4931C13.7032 15.7267 12.515 14.7915 11.4411 13.7114C11.3608 13.631 11.2761 13.5542 11.1777 13.4608C8.70209 16.5178 7.39591 19.9615 7.21645 23.8675C9.61461 23.8675 11.9672 23.8675 14.348 23.8675ZM41.7756 23.8878C41.5817 19.9528 40.2834 16.5033 37.8339 13.4941C37.7825 13.5115 37.7536 13.513 37.7391 13.5282C36.5769 14.7104 35.2823 15.7216 33.8669 16.583C33.7865 16.6322 33.7352 16.8307 33.7612 16.9379C34.2859 19.0966 34.5789 21.2843 34.6101 23.5053C34.6144 23.8363 34.7367 23.8972 35.037 23.895C37.0589 23.8827 39.0807 23.8885 41.1026 23.8885C41.3052 23.8878 41.5078 23.8878 41.7756 23.8878ZM41.7705 25.1142C41.6193 25.1055 41.5136 25.0939 41.4073 25.0939C39.2768 25.0932 37.1472 25.1004 35.0167 25.0852C34.6875 25.083 34.6151 25.1953 34.6101 25.4967C34.5746 27.7053 34.2888 29.8821 33.7525 32.0249C33.6946 32.256 33.7858 32.3545 33.9646 32.4827C34.9219 33.1673 35.8743 33.8598 36.8092 34.5748C37.166 34.8479 37.4706 35.1898 37.8136 35.5143C40.2849 32.4653 41.5896 29.0201 41.7705 25.1142ZM23.8712 7.25417C23.7641 7.26359 23.6931 7.26649 23.6237 7.27735C23.5527 7.28749 23.4826 7.30271 23.4124 7.31937C22.049 7.64752 20.9831 8.44436 20.0655 9.46503C18.7839 10.8906 17.9293 12.5669 17.2621 14.3467C17.0537 14.9031 16.8771 15.4717 16.6839 16.0411C18.9735 17.1893 21.3442 17.7978 23.8712 17.8992C23.8712 14.3489 23.8712 10.824 23.8712 7.25417ZM25.1144 41.7376C26.2483 41.5906 27.1753 41.1052 27.9909 40.4076C30.2971 38.4329 31.4058 35.7628 32.3031 32.9398C30.0279 31.7931 27.65 31.1832 25.1151 31.0817C25.1144 34.64 25.1144 38.1642 25.1144 41.7376ZM32.2929 16.0469C31.7292 14.1497 31.0092 12.3757 29.9266 10.7646C29.0973 9.53095 28.1153 8.45377 26.7708 7.76197C26.2577 7.49829 25.7237 7.29619 25.1223 7.25417C25.1223 10.816 25.1223 14.3496 25.1223 17.8985C27.6536 17.7883 30.0279 17.1864 32.2929 16.0469ZM23.8603 41.7362C23.8603 38.1584 23.8603 34.6269 23.8603 31.0803C21.3261 31.1991 18.9518 31.7938 16.6304 32.9703C17.0841 34.096 17.4886 35.2246 17.9872 36.3104C18.7116 37.8875 19.666 39.3145 21.0236 40.4315C21.8428 41.1052 22.7517 41.592 23.8603 41.7362ZM23.8675 19.2103C22.557 18.9887 21.274 18.8503 20.0344 18.541C18.7977 18.2331 17.6029 17.7543 16.3604 17.3414C15.8684 19.445 15.5934 21.6342 15.5789 23.8653C18.3657 23.8653 21.1054 23.8653 23.8683 23.8653C23.8675 22.2818 23.8675 20.7214 23.8675 19.2103ZM16.3829 31.7381C18.7036 30.6348 21.0902 30.0009 23.6085 29.8959C23.8567 29.8858 23.8958 29.767 23.895 29.5525C23.8878 28.1907 23.8827 26.8295 23.8979 25.4677C23.9015 25.1613 23.8053 25.0859 23.5101 25.0874C20.9816 25.0982 18.4539 25.0932 15.9255 25.0946C15.8119 25.0946 15.6983 25.1069 15.5731 25.1142C15.6021 27.367 15.8676 29.5424 16.3829 31.7381ZM32.6027 17.2429C30.2168 18.3881 27.7333 19.0082 25.0963 19.1082C25.0963 19.2748 25.0963 19.3929 25.0963 19.511C25.0963 20.8366 25.1057 22.1623 25.0891 23.4872C25.0854 23.7987 25.16 23.8972 25.4871 23.8957C28.0032 23.882 30.5193 23.8885 33.0354 23.887C33.1526 23.887 33.2691 23.8776 33.4146 23.8711C33.3828 21.6262 33.1222 19.4421 32.6027 17.2429ZM33.4131 25.1149C33.3169 25.1055 33.259 25.0946 33.2011 25.0946C30.6003 25.0939 28.0003 25.0975 25.3995 25.0881C25.1216 25.0874 25.0912 25.2098 25.0927 25.4365C25.0999 26.7499 25.0963 28.0632 25.0963 29.3765C25.0963 29.8778 25.0963 29.8807 25.6007 29.9061C27.8838 30.0212 30.0562 30.5834 32.1366 31.5193C32.2843 31.5859 32.4312 31.654 32.6056 31.7344C33.1186 29.5388 33.3849 27.3634 33.4131 25.1149ZM33.3581 33.5273C32.4225 36.4111 31.1698 39.0733 28.9439 41.1784C32.0664 40.3511 34.7352 38.7654 36.9952 36.4314C35.9054 35.2883 34.7157 34.3314 33.3581 33.5273ZM11.9932 12.5495C13.0845 13.6897 14.2749 14.6568 15.5377 15.3935C16.1549 14.0164 16.7129 12.6509 17.3714 11.3369C18.0378 10.0076 18.9525 8.8406 20.0373 7.80906C16.914 8.63487 14.251 10.217 11.9932 12.5495ZM28.9548 7.80254C31.1677 9.91053 32.4232 12.5669 33.3581 15.4485C34.72 14.6365 35.9119 13.6796 36.9945 12.5408C34.7352 10.217 32.073 8.63197 28.9548 7.80254ZM15.631 33.5382C14.2669 34.3379 13.0715 35.3028 11.9932 36.4423C14.2582 38.7647 16.9169 40.3511 20.0286 41.1755C17.8179 39.0704 16.566 36.4198 15.631 33.5382Z" fill="white"/>
</svg>
