<svg width="50" height="50" viewBox="0 0 50 50" fill="none" xmlns="http://www.w3.org/2000/svg">
<path d="M25.7438 7C26.6433 7.4587 27.5413 7.92037 28.4431 8.37535C29.7284 9.02363 31.016 9.66819 32.3035 10.3113C33.6349 10.9759 34.9678 11.6361 36.2992 12.3007C37.502 12.9006 38.7041 13.5013 39.9062 14.1035C41.1342 14.7191 42.3593 15.3384 43.5882 15.9524C43.8654 16.0907 43.9978 16.3115 43.9978 16.6148C43.9985 22.3861 43.9978 28.1574 43.9993 33.9287C43.9993 34.2848 43.8268 34.5301 43.5265 34.6885C42.0731 35.4512 40.6168 36.2081 39.1628 36.9679C37.4634 37.8563 35.7655 38.7469 34.0653 39.6331C32.6864 40.352 31.3051 41.0649 29.9261 41.7846C28.5977 42.4774 27.27 43.1726 25.946 43.8736C25.6702 44.0193 25.3878 44.0468 25.1238 43.9115C23.9865 43.3272 22.8587 42.7235 21.7251 42.1303C20.3728 41.4225 19.0176 40.72 17.6647 40.0137C16.3615 39.3327 15.0606 38.6488 13.7574 37.9678C12.2179 37.1634 10.6776 36.3605 9.13725 35.5583C8.57079 35.2632 7.99763 34.9784 7.43712 34.6729C7.12712 34.5041 7 34.2261 7.00149 33.864C7.00967 31.7014 7.00521 29.538 7.00521 27.3746C7.00521 23.8336 7.00892 20.2919 7 16.7509C6.99926 16.3256 7.15611 16.0625 7.54193 15.8736C9.58997 14.8685 11.6298 13.8485 13.6712 12.83C16.1132 11.6115 18.5553 10.393 20.9951 9.17009C22.4261 8.45044 23.8541 7.72336 25.2844 7C25.4376 7 25.5907 7 25.7438 7ZM8.58714 17.9077C8.57896 18.0467 8.5693 18.1381 8.5693 18.2303C8.56856 23.2255 8.57004 28.2213 8.56409 33.2165C8.56409 33.4298 8.63843 33.5414 8.82428 33.6358C9.98843 34.229 11.1496 34.8305 12.3078 35.4356C14.1678 36.408 16.024 37.3871 17.884 38.3603C19.8361 39.3818 21.7897 40.3995 23.7441 41.4173C24.0496 41.5764 24.3604 41.7251 24.6934 41.8916C24.6994 41.7823 24.7038 41.7355 24.7038 41.6879C24.7046 36.53 24.7031 31.372 24.709 26.2133C24.709 26.0304 24.6429 25.9353 24.4897 25.8617C23.9478 25.6015 23.4074 25.339 22.8699 25.0699C21.0694 24.1681 19.2711 23.2619 17.4706 22.3601C15.943 21.5951 14.4123 20.8361 12.8847 20.0703C11.4685 19.3626 10.0553 18.6474 8.58714 17.9077ZM26.3014 41.8953C26.4813 41.8098 26.6017 41.7578 26.7184 41.6968C28.2401 40.8991 29.7604 40.0977 31.2836 39.303C33.1703 38.3187 35.0607 37.3411 36.9482 36.3575C38.6736 35.4587 40.3953 34.5502 42.1259 33.6603C42.3556 33.5421 42.4344 33.4142 42.4337 33.157C42.4255 28.1909 42.4277 23.2247 42.4277 18.2578C42.4277 18.156 42.4277 18.0541 42.4277 17.9211C42.3437 17.953 42.2991 17.9649 42.2597 17.985C40.1269 19.0533 37.9971 20.1276 35.8584 21.1832C35.6012 21.3104 35.5268 21.4539 35.5283 21.7282C35.5387 24.1875 35.5365 26.6467 35.5298 29.106C35.5291 29.3016 35.5023 29.5127 35.4243 29.6889C35.1871 30.2264 34.4222 30.2918 34.1129 29.7944C34.0051 29.6205 33.9657 29.3789 33.9642 29.1685C33.9538 26.9486 33.9575 24.7287 33.9575 22.5088C33.9575 22.401 33.9575 22.2925 33.9575 22.169C33.8788 22.1891 33.8498 22.1913 33.8252 22.2032C32.8194 22.711 31.8166 23.2232 30.8085 23.7265C29.3991 24.4313 27.9889 25.1331 26.5742 25.826C26.3653 25.9278 26.2947 26.0535 26.2947 26.2869C26.3021 31.3683 26.2999 36.4489 26.2999 41.5303C26.3014 41.6351 26.3014 41.7392 26.3014 41.8953ZM32.9488 20.8844C32.8737 20.8264 32.8335 20.7848 32.7852 20.7602C32.2314 20.4814 31.6768 20.2056 31.1223 19.9283C28.6906 18.7106 26.2605 17.4906 23.8281 16.2751C21.6255 15.1748 19.4213 14.0797 17.2142 12.9884C17.1257 12.9445 16.9845 12.9281 16.8997 12.9675C16.3295 13.233 15.7668 13.5155 15.2033 13.7965C13.7515 14.5198 12.3004 15.2439 10.85 15.9703C10.436 16.1777 10.0256 16.394 9.5699 16.629C9.69107 16.7011 9.7669 16.7531 9.84793 16.7933C10.6671 17.2022 11.4886 17.6066 12.3071 18.017C14.089 18.9106 15.8672 19.8101 17.6498 20.7022C20.2086 21.9832 22.7688 23.2611 25.3327 24.5324C25.4227 24.577 25.5736 24.5741 25.6643 24.5287C27.8365 23.4544 30.0049 22.3713 32.1727 21.2881C32.4247 21.1624 32.6737 21.0279 32.9488 20.8844ZM41.4137 16.6476C41.3528 16.5948 41.3283 16.5635 41.2963 16.5479C40.1626 15.9785 39.029 15.409 37.8938 14.841C35.3336 13.5608 32.7718 12.2828 30.2124 11.0027C28.6936 10.2429 27.1771 9.47935 25.6554 8.72551C25.5773 8.68685 25.4524 8.69057 25.3684 8.72328C25.1655 8.80357 24.9737 8.9136 24.7774 9.01173C23.3189 9.7403 21.8589 10.4674 20.4011 11.1982C19.8763 11.4614 19.3566 11.7327 18.8035 12.016C20.0896 12.6598 21.3355 13.282 22.5807 13.9058C23.9381 14.586 25.2941 15.2685 26.6508 15.948C27.8878 16.5673 29.1255 17.1851 30.3633 17.8036C31.7631 18.5032 33.1614 19.2072 34.5656 19.8971C34.666 19.9462 34.8295 19.9387 34.9351 19.8919C35.3269 19.7179 35.7075 19.5172 36.0911 19.3254C37.6358 18.5537 39.1799 17.782 40.7239 17.0096C40.9484 16.8973 41.1699 16.7762 41.4137 16.6476Z" fill="black"/>
</svg>
