<svg width="40" height="41" viewBox="0 0 40 41" fill="none" xmlns="http://www.w3.org/2000/svg">
<g clip-path="url(#clip0_5434_1084)">
<path d="M18.4507 10.6459C18.4507 12.4272 17.9081 14.0092 17.0692 15.1278C16.2305 16.2461 15.1328 16.8631 13.9878 16.8631C12.8427 16.8631 11.7451 16.2461 10.9064 15.1278C10.0674 14.0092 9.52488 12.4272 9.52488 10.6459C9.52488 8.86447 10.0674 7.28252 10.9064 6.16395C11.7451 5.04563 12.8427 4.42866 13.9878 4.42866C15.1328 4.42866 16.2305 5.04563 17.0692 6.16395C17.9081 7.28252 18.4507 8.86447 18.4507 10.6459Z" stroke="white" stroke-width="1.6"/>
<path d="M30.4384 10.6459C30.4384 12.4272 29.8958 14.0092 29.0569 15.1278C28.2182 16.2461 27.1205 16.8631 25.9755 16.8631C24.8304 16.8631 23.7328 16.2461 22.8941 15.1278C22.0551 14.0092 21.5126 12.4272 21.5126 10.6459C21.5126 8.86447 22.0551 7.28252 22.8941 6.16395C23.7328 5.04563 24.8304 4.42866 25.9755 4.42866C27.1205 4.42866 28.2182 5.04563 29.0569 6.16395C29.8958 7.28252 30.4384 8.86447 30.4384 10.6459Z" stroke="white" stroke-width="1.6"/>
<path d="M38.4256 20.7399C37.9014 21.9862 37.059 22.9263 36.1556 23.4546C35.2525 23.9827 34.3377 24.0785 33.5791 23.7594C32.8205 23.4403 32.2491 22.7194 31.995 21.7046C31.7408 20.6895 31.8237 19.4298 32.3479 18.1836C32.8721 16.9373 33.7145 15.9972 34.6179 15.4689C35.521 14.9408 36.4357 14.8451 37.1944 15.1642C37.953 15.4833 38.5243 16.2041 38.7784 17.2189C39.0326 18.2341 38.9498 19.4937 38.4256 20.7399Z" stroke="white" stroke-width="1.6"/>
<path d="M1.57461 20.7399C2.09881 21.9862 2.94122 22.9263 3.84458 23.4546C4.74768 23.9827 5.66246 24.0785 6.42109 23.7594C7.17973 23.4403 7.75104 22.7194 8.00516 21.7046C8.25934 20.6895 8.17649 19.4298 7.6523 18.1836C7.1281 16.9373 6.28569 15.9972 5.38233 15.4689C4.47923 14.9408 3.56445 14.8451 2.80582 15.1642C2.04718 15.4833 1.47586 16.2041 1.22175 17.2189C0.967568 18.2341 1.05042 19.4937 1.57461 20.7399Z" stroke="white" stroke-width="1.6"/>
<path d="M19.9451 19.4905C12.2335 19.4905 7.26299 28.5544 7.70149 33.598C8.6085 38.7147 16.2418 35.2061 19.9451 35.2061C23.6484 35.2061 31.2817 38.7147 32.1887 33.598C32.5542 27.6772 26.7796 19.4905 19.9451 19.4905Z" stroke="white" stroke-width="1.6" stroke-linejoin="round"/>
<path fill-rule="evenodd" clip-rule="evenodd" d="M16.4292 14.6478C17.1546 13.6805 17.6506 12.2709 17.6506 10.6459C17.6506 9.02083 17.1546 7.61123 16.4292 6.64395C15.7041 5.67717 14.8245 5.22866 13.9877 5.22866C13.151 5.22866 12.2714 5.67717 11.5463 6.64395C10.8209 7.61123 10.3248 9.02083 10.3248 10.6459C10.3248 12.2709 10.8209 13.6805 11.5463 14.6478C12.2714 15.6146 13.151 16.0631 13.9877 16.0631C14.8245 16.0631 15.7041 15.6146 16.4292 14.6478ZM13.9877 17.6631C16.8944 17.6631 19.2506 14.5214 19.2506 10.6459C19.2506 6.77037 16.8944 3.62866 13.9877 3.62866C11.0811 3.62866 8.72484 6.77037 8.72484 10.6459C8.72484 14.5214 11.0811 17.6631 13.9877 17.6631ZM28.4169 14.6478C29.1424 13.6805 29.6384 12.2709 29.6384 10.6459C29.6384 9.02083 29.1424 7.61123 28.4169 6.64395C27.6918 5.67717 26.8123 5.22866 25.9755 5.22866C25.1387 5.22866 24.2591 5.67717 23.534 6.64395C22.8086 7.61123 22.3126 9.02083 22.3126 10.6459C22.3126 12.2709 22.8086 13.6805 23.534 14.6478C24.2591 15.6146 25.1387 16.0631 25.9755 16.0631C26.8123 16.0631 27.6918 15.6146 28.4169 14.6478ZM25.9755 17.6631C28.8821 17.6631 31.2384 14.5214 31.2384 10.6459C31.2384 6.77037 28.8821 3.62866 25.9755 3.62866C23.0689 3.62866 20.7126 6.77037 20.7126 10.6459C20.7126 14.5214 23.0689 17.6631 25.9755 17.6631ZM37.6881 20.4298C37.2246 21.532 36.4919 22.3313 35.7517 22.7641C35.0122 23.1966 34.3637 23.2216 33.8892 23.022C33.4148 22.8224 32.9792 22.3414 32.7711 21.5104C32.5628 20.6787 32.6217 19.5959 33.0853 18.4938C33.5489 17.3917 34.2816 16.5924 35.0217 16.1596C35.7613 15.7271 36.4097 15.7021 36.8842 15.9016C37.3587 16.1012 37.7943 16.5822 38.0024 17.4133C38.2106 18.245 38.1517 19.3277 37.6881 20.4298ZM39.163 21.0502C37.9933 23.8309 35.3545 25.3741 33.2689 24.4968C31.1833 23.6196 30.4408 20.6542 31.6104 17.8735C32.7801 15.0927 35.4189 13.5496 37.5045 14.4268C39.5901 15.304 40.3326 18.2694 39.163 21.0502ZM4.24841 22.7641C3.5083 22.3313 2.77559 21.532 2.31202 20.4298C1.84845 19.3277 1.78953 18.245 1.99778 17.4133C2.20588 16.5822 2.64149 16.1012 3.11597 15.9016C3.59046 15.7021 4.2389 15.7271 4.97848 16.1596C5.71859 16.5924 6.45129 17.3917 6.91486 18.4938C7.37843 19.5959 7.43735 20.6787 7.2291 21.5104C7.021 22.3414 6.5854 22.8224 6.11091 23.022C5.63642 23.2216 4.98799 23.1966 4.24841 22.7641ZM6.73125 24.4968C4.64568 25.3741 2.00681 23.8309 0.837173 21.0502C-0.332462 18.2694 0.410055 15.304 2.49563 14.4268C4.5812 13.5496 7.22007 15.0927 8.38971 17.8735C9.55934 20.6542 8.81683 23.6196 6.73125 24.4968ZM9.79458 35.2738C9.16144 34.9994 8.68273 34.5003 8.49545 33.4928C8.31154 31.2186 9.34973 27.9021 11.4092 25.1299C13.4678 22.3588 16.4258 20.2905 19.945 20.2905C23.0381 20.2905 25.9834 22.1526 28.1446 24.8268C30.2955 27.4881 31.5432 30.8013 31.3929 33.5023C31.2044 34.5034 30.7267 35.0002 30.0955 35.2738C29.385 35.5818 28.397 35.6397 27.1916 35.5244C26.1026 35.4203 24.9384 35.1875 23.7789 34.9556L23.4491 34.8897C22.2173 34.6445 20.9647 34.4061 19.945 34.4061C18.9254 34.4061 17.6728 34.6445 16.441 34.8897L16.1112 34.9556L16.1112 34.9556C14.9517 35.1875 13.7874 35.4203 12.6985 35.5244C11.4931 35.6397 10.5051 35.5818 9.79458 35.2738ZM19.945 18.6905C15.7527 18.6905 12.3696 21.1541 10.1248 24.1758C7.89153 27.1819 6.66377 30.8988 6.90447 33.6672C6.90652 33.6908 6.90961 33.7143 6.91374 33.7376C7.18455 35.2653 7.99647 36.2382 9.15819 36.7418C10.2498 37.215 11.5716 37.2394 12.8508 37.1171C14.0261 37.0048 15.2714 36.7555 16.4151 36.5265L16.7534 36.4589C18.0227 36.2062 19.113 36.0061 19.945 36.0061C20.7771 36.0061 21.8673 36.2062 23.1367 36.4589L23.475 36.5265C24.6187 36.7555 25.864 37.0048 27.0393 37.1171C28.3185 37.2394 29.6403 37.215 30.7319 36.7418C31.8936 36.2382 32.7056 35.2653 32.9764 33.7376C32.9817 33.7077 32.9853 33.6775 32.9871 33.6472C33.1854 30.4359 31.7304 26.7181 29.389 23.8211C27.0458 20.9217 23.6865 18.6905 19.945 18.6905Z" fill="white"/>
</g>
<defs>
<clipPath id="clip0_5434_1084">
<rect width="40" height="40" fill="white" transform="translate(0 0.00415039)"/>
</clipPath>
</defs>
</svg>
