<svg width="40" height="41" viewBox="0 0 40 41" fill="none" xmlns="http://www.w3.org/2000/svg">
<path fill-rule="evenodd" clip-rule="evenodd" d="M19.893 1.41707C19.9427 1.41241 19.9927 1.41241 20.0424 1.41707C21.6978 1.57227 24.9539 3.19772 26.6606 8.00746C27.2088 9.55231 27.0742 11.1898 26.5832 12.7592C28.0404 11.7542 29.6881 11.0938 31.4422 11.2193C36.5328 11.5834 38.9667 14.2889 39.5572 15.8433C39.5749 15.8899 39.5882 15.9381 39.597 15.9872C39.8883 17.6242 39.1887 21.1956 35.0072 24.1216C33.8132 24.9572 32.4048 25.2921 30.952 25.3173C32.2722 26.3766 33.3273 27.701 33.7251 29.3384C34.9299 34.2977 33.0948 37.4404 31.7944 38.4766C31.7554 38.5076 31.7135 38.535 31.6694 38.5583C30.1991 39.3347 26.5844 39.7569 22.5232 36.6662C21.2316 35.6833 20.4505 34.258 20 32.6942C19.5496 34.258 18.7685 35.6833 17.4769 36.6662C13.4157 39.7569 9.80099 39.3347 8.33065 38.5583C8.28654 38.535 8.24469 38.5076 8.20567 38.4766C6.90526 37.4404 5.07022 34.2977 6.275 29.3384C6.67277 27.701 7.72783 26.3766 9.04805 25.3173C7.59524 25.2921 6.18682 24.9572 4.99271 24.1216C0.811224 21.1956 0.111668 17.6242 0.402971 15.9872C0.411712 15.9381 0.425028 15.8899 0.442746 15.8433C1.03324 14.2889 3.46717 11.5834 8.55773 11.2193C10.2791 11.0962 11.8979 11.7298 13.3348 12.7033C12.8581 11.1509 12.7331 9.53396 13.2748 8.00746C14.9815 3.19772 18.2376 1.57227 19.893 1.41707ZM16.1543 23.6366C15.2448 24.031 14.2568 24.4006 13.2403 24.6921C13.019 24.7899 12.799 24.8919 12.5813 24.9982C10.1986 26.1616 8.31196 27.7312 7.82978 29.7161C6.77928 34.0403 8.36836 36.502 9.14498 37.1771C10.0746 37.6182 12.9668 38.0879 16.508 35.393C18.1334 34.1559 18.8157 31.7985 18.927 29.1493C19.0002 27.4091 18.8218 25.6488 18.5774 24.2192L15.0716 29.5785C14.8297 29.9482 14.3339 30.0519 13.9642 29.81C13.5944 29.5681 13.4908 29.0723 13.7326 28.7026L17.2384 23.3434C16.8918 23.4293 16.5285 23.5269 16.1543 23.6366ZM17.1829 21.3762C16.6996 21.6272 16.1691 21.8835 15.6061 22.1302C14.6723 22.4076 13.6775 22.7561 12.698 23.1829C12.6633 23.1926 12.6286 23.2022 12.5939 23.2117C10.0368 23.9131 7.5836 23.9818 5.91004 22.8107C2.26399 20.2594 1.82989 17.3617 1.9667 16.3418C2.37291 15.3964 4.23316 13.1327 8.67187 12.8152C10.7093 12.6695 12.7792 13.988 14.6134 15.9027C14.8073 16.1051 14.9966 16.3122 15.181 16.5223C15.8376 17.5416 16.5705 18.4902 17.2812 19.3161C17.3953 19.4919 17.5046 19.6648 17.6089 19.8339L11.4362 18.1283C11.0103 18.0107 10.5697 18.2605 10.452 18.6864C10.3343 19.1123 10.5842 19.5529 11.01 19.6706L17.1829 21.3762ZM18.5626 18.3519C17.9719 17.4496 17.2644 16.4816 16.4646 15.5598C16.3663 15.4053 16.2701 15.2492 16.1763 15.0918C14.8192 12.8138 14.0996 10.4675 14.7827 8.54252C16.2708 4.34866 18.9482 3.15851 19.9677 3.01875C20.9871 3.15851 23.6646 4.34866 25.1527 8.54252C25.8358 10.4675 25.1162 12.8138 23.7592 15.0918C23.6003 15.3584 23.4344 15.6212 23.2635 15.8791C22.6727 16.5857 22.1368 17.3116 21.6663 18.0077C21.3618 18.3712 21.0593 18.7123 20.7677 19.0261V12.6221C20.7677 12.1802 20.4095 11.8221 19.9677 11.8221C19.5259 11.8221 19.1677 12.1802 19.1677 12.6221V19.0261C18.9701 18.8134 18.7675 18.5881 18.5626 18.3519ZM26.76 24.6922C25.7433 24.4006 24.755 24.0309 23.8454 23.6365C23.4714 23.5268 23.1082 23.4293 22.7617 23.3434L26.2674 28.7026C26.5093 29.0723 26.4056 29.5681 26.0359 29.81C25.6662 30.0519 25.1703 29.9482 24.9285 29.5785L21.4227 24.2192C21.1783 25.6488 20.9999 27.4091 21.073 29.1493C21.1844 31.7985 21.8667 34.1559 23.4921 35.393C27.0333 38.0879 29.9255 37.6182 30.8551 37.1771C31.6317 36.502 33.2208 34.0403 32.1703 29.7161C31.6881 27.7312 29.8015 26.1616 27.4188 24.9982C27.2011 24.8919 26.9812 24.79 26.76 24.6922ZM27.406 23.2117C27.3714 23.2022 27.3368 23.1927 27.3023 23.183C26.3226 22.7561 25.3276 22.4076 24.3936 22.1301C23.8307 21.8834 23.3003 21.6271 22.8171 21.3762L28.9899 19.6706C29.4158 19.5529 29.6656 19.1123 29.548 18.6864C29.4303 18.2605 28.9897 18.0107 28.5638 18.1284L22.3911 19.8339C22.5631 19.5549 22.7489 19.2655 22.9472 18.9701C23.4895 18.3189 24.0368 17.6012 24.5461 16.8397C24.8151 16.5205 25.0957 16.2063 25.3865 15.9027C27.2208 13.988 29.2907 12.6695 31.3281 12.8152C35.7668 13.1327 37.6271 15.3964 38.0333 16.3418C38.1701 17.3617 37.736 20.2594 34.0899 22.8107C32.4164 23.9818 29.9632 23.9131 27.406 23.2117ZM19.9678 23.2272C20.7932 23.2272 21.4624 22.558 21.4624 21.7326C21.4624 20.9071 20.7932 20.2379 19.9678 20.2379C19.1423 20.2379 18.4731 20.9071 18.4731 21.7326C18.4731 22.558 19.1423 23.2272 19.9678 23.2272Z" fill="black"/>
</svg>
