<svg width="40" height="41" viewBox="0 0 40 41" fill="none" xmlns="http://www.w3.org/2000/svg">
<g clip-path="url(#clip0_5434_836)">
<path fill-rule="evenodd" clip-rule="evenodd" d="M5.80836 6.60076C2.626 8.42401 0.0122425 9.9617 4.47737e-05 10.0178C-0.0180173 10.1009 3.21962 19.1224 3.2943 19.1971C3.30665 19.2095 4.42212 18.8507 5.7731 18.3999C7.12408 17.949 8.23892 17.5801 8.25041 17.5801C8.26191 17.5801 8.27137 21.8904 8.27137 27.1585V36.7369H20H31.7286V27.1585C31.7286 21.8904 31.738 17.5801 31.7495 17.5801C31.761 17.5801 32.8759 17.949 34.2268 18.3999C35.5778 18.8507 36.6933 19.2095 36.7056 19.1971C36.7803 19.1224 40.018 10.1009 39.9999 10.0178C39.9877 9.96178 37.3608 8.4208 34.1623 6.59356L28.3469 3.27124H26.2595H24.1721L24.0802 3.87722C24.0183 4.2849 23.8878 4.6879 23.6811 5.10872C21.9024 8.73036 16.5264 7.87737 15.9197 3.87722L15.8278 3.27124L13.7112 3.27843L11.5945 3.28571L5.80836 6.60076ZM14.5238 5.43188C16.3837 10.4028 23.6163 10.4028 25.4761 5.43188L25.641 4.99144H26.7205H27.8002L32.7552 7.81756C35.4804 9.37199 37.7516 10.6826 37.8022 10.7302C37.8825 10.8055 36.9717 13.4562 35.7531 16.6931L35.6308 17.0181L32.8404 16.0872C31.3056 15.5752 30.0406 15.1562 30.0292 15.1562C30.0178 15.1562 30.0084 19.6248 30.0084 25.0864V35.0167H20H9.99156V25.0864C9.99156 19.6248 9.98218 15.1562 9.97077 15.1562C9.95935 15.1562 8.6943 15.5752 7.15957 16.0872L4.36918 17.0181L4.24682 16.6931C3.31682 14.2225 2.12042 10.8023 2.16874 10.7522C2.20299 10.7168 4.4609 9.40936 7.18639 7.84688L12.1418 5.0059L13.2504 4.99871L14.359 4.99144L14.5238 5.43188Z" fill="white"/>
</g>
<defs>
<clipPath id="clip0_5434_836">
<rect width="40" height="40" fill="white" transform="translate(0 0.00415039)"/>
</clipPath>
</defs>
</svg>
