<svg width="41" height="40" viewBox="0 0 41 40" fill="none" xmlns="http://www.w3.org/2000/svg">
<path fill-rule="evenodd" clip-rule="evenodd" d="M18.6938 0.146171C2.33794 2.14747 -4.82116 21.9188 6.51227 33.788C17.7281 45.534 37.5203 39.7418 40.6311 23.8031C43.1973 10.6545 31.9488 -1.47563 18.6938 0.146171ZM23.9176 2.00221C45.7643 5.87156 43.1528 38.2281 20.9938 38.2281C-1.97907 38.2281 -3.49258 4.57569 19.3565 1.82318C20.1362 1.72922 23.0143 1.8422 23.9176 2.00221ZM20.4012 6.95268L20.1362 7.21779V13.7638V20.3098L20.3614 20.6139C20.4853 20.7811 22.6361 22.9619 25.1411 25.46L29.6955 30.0021H30.1067C30.6937 30.0021 30.9737 29.722 30.9737 29.135V28.7237L26.4126 24.1559L21.8515 19.5882V13.403V7.21779L21.5864 6.95268C21.3691 6.73536 21.2622 6.68756 20.9938 6.68756C20.7254 6.68756 20.6185 6.73536 20.4012 6.95268Z" fill="black"/>
</svg>
