<svg width="26" height="24" viewBox="0 0 26 24" fill="none" xmlns="http://www.w3.org/2000/svg">
<path fill-rule="evenodd" clip-rule="evenodd" d="M9.64468 1.27952C7.88395 1.42493 6.24321 2.14752 4.94034 3.35136C3.79037 4.4139 3.03587 5.71873 2.66841 7.28036C2.55279 7.7718 2.54782 7.90033 2.54782 10.4047C2.54782 12.9456 2.55126 13.0313 2.67469 13.5642C3.02844 15.0912 3.71122 16.308 4.81123 17.3718C5.37669 17.9186 6.16193 18.4792 6.7377 18.7471L6.99701 18.8678V20.7486C6.99701 22.8049 6.98576 22.7318 7.31697 22.8295C7.4315 22.8633 7.63463 22.6854 9.14687 21.2265L10.848 19.5854L13.1397 19.5851C15.62 19.5848 16.038 19.553 16.9599 19.2951C18.2765 18.9266 19.3623 18.3005 20.3446 17.3429C21.428 16.2868 22.1066 15.0724 22.4559 13.5642C22.5794 13.0312 22.5828 12.946 22.5826 10.4047C22.5824 7.91748 22.5768 7.76895 22.4643 7.29097C22.1233 5.84146 21.4598 4.62475 20.4569 3.60937C19.099 2.23463 17.3814 1.43807 15.4314 1.27857C14.6848 1.21752 10.387 1.2182 9.64468 1.27952ZM14.8003 4.34099C15.3426 4.46366 16.152 4.82145 16.6245 5.14736C17.5344 5.77487 18.2733 6.78655 18.6033 7.85638C18.8579 8.6817 18.8409 10.2531 18.5739 10.5718C18.4397 10.7321 18.1502 10.7262 18.0113 10.5604C17.9323 10.4661 17.9144 10.3882 17.9394 10.2482C17.9577 10.1457 17.9869 9.76492 18.0042 9.40217C18.0309 8.8451 18.0182 8.67125 17.9225 8.28312C17.4395 6.32424 15.7648 5.01941 13.638 4.94486C13.176 4.92866 13.0228 4.90413 12.942 4.83337C12.7332 4.65076 12.8655 4.26137 13.1528 4.21325C13.433 4.16634 14.3384 4.23652 14.8003 4.34099ZM9.15336 5.49233C9.43877 5.62017 11.2236 7.36404 11.3366 7.62548C11.499 8.00126 11.4084 8.52214 11.1297 8.81461C11.0636 8.88399 10.8616 9.0055 10.6809 9.08465C9.8964 9.42819 9.74923 9.98763 10.2053 10.893C10.6438 11.7633 11.5608 12.6528 12.4834 13.1027C12.8856 13.2987 12.9487 13.3141 13.2811 13.2966C13.7896 13.2699 14.0316 13.107 14.2849 12.6207C14.5271 12.156 14.7787 11.9773 15.2359 11.9453C15.4746 11.9286 15.6002 11.9486 15.7638 12.0292C16.0287 12.1599 17.7936 13.872 17.9398 14.1403C18.0833 14.4035 18.0782 14.8473 17.9285 15.127C17.7547 15.4515 16.5169 16.6042 16.1923 16.7438C13.793 17.7752 8.00012 13.2722 6.57797 9.27027C6.38122 8.71657 6.37167 8.65832 6.37046 8.00395C6.36937 7.39765 6.38302 7.29355 6.48816 7.10698C6.64686 6.82528 7.95656 5.57569 8.19802 5.47555C8.46033 5.36675 8.88996 5.3743 9.15336 5.49233ZM14.4974 5.76005C16.1826 6.17666 17.3833 7.71365 17.3062 9.35569C17.2888 9.72656 17.2695 9.79489 17.1579 9.88221C16.9946 10.01 16.8199 10.01 16.6779 9.88216C16.5832 9.7969 16.562 9.69559 16.5369 9.20943C16.5153 8.79123 16.4721 8.54456 16.3766 8.29336C15.9263 7.10983 14.8528 6.39468 13.5265 6.39468C13.1294 6.39468 13.0397 6.37832 12.9475 6.28916C12.8045 6.15102 12.8086 5.93074 12.957 5.77809C13.0643 5.66771 13.1236 5.656 13.576 5.656C13.8953 5.656 14.2287 5.69367 14.4974 5.76005ZM14.5673 7.31777C15.1802 7.60992 15.5815 8.09281 15.7592 8.75213C15.8741 9.17851 15.8631 9.33269 15.7068 9.48369C15.4228 9.75817 15.1172 9.59592 15.0542 9.13736C15.0013 8.75213 14.9054 8.55232 14.6389 8.27289C14.3913 8.01335 13.9588 7.81928 13.6278 7.81928C13.2625 7.81928 13.083 7.42446 13.3368 7.17916C13.5121 7.00969 14.0473 7.06994 14.5673 7.31777Z" fill="#665CAC"/>
</svg>
