<svg width="60" height="60" viewBox="0 0 60 60" fill="none" xmlns="http://www.w3.org/2000/svg">
<rect width="60" height="60" rx="10" fill="#2386C3"/>
<g clip-path="url(#clip0_149_283)">
<path fill-rule="evenodd" clip-rule="evenodd" d="M45.2667 21.9305C45.488 21.2025 45.2667 20.6665 44.2067 20.6665H40.7067C39.816 20.6665 39.4053 21.1292 39.1827 21.6398C39.1827 21.6398 37.4027 25.9012 34.8813 28.6692C34.0653 29.4718 33.6947 29.7265 33.2493 29.7265C33.0267 29.7265 32.692 29.4718 32.692 28.7425V21.9305C32.692 21.0558 32.4467 20.6665 31.7053 20.6665H26.2013C25.6453 20.6665 25.3107 21.0718 25.3107 21.4572C25.3107 22.2852 26.572 22.4772 26.7013 24.8078V29.8718C26.7013 30.9825 26.4973 31.1838 26.052 31.1838C24.8653 31.1838 21.9787 26.9025 20.2653 22.0038C19.9333 21.0505 19.5973 20.6665 18.7027 20.6665H15.2C14.2 20.6665 14 21.1292 14 21.6398C14 22.5492 15.1867 27.0665 19.5267 33.0412C22.42 37.1212 26.4933 39.3332 30.204 39.3332C32.4293 39.3332 32.704 38.8425 32.704 37.9958V34.9118C32.704 33.9292 32.9147 33.7332 33.62 33.7332C34.14 33.7332 35.0293 33.9892 37.1067 35.9558C39.48 38.2878 39.8707 39.3332 41.2067 39.3332H44.7067C45.7067 39.3332 46.208 38.8425 45.92 37.8718C45.6027 36.9065 44.4693 35.5052 42.9667 33.8425C42.1507 32.8958 40.9267 31.8758 40.5547 31.3652C40.036 30.7105 40.184 30.4185 40.5547 29.8358C40.5547 29.8358 44.8213 23.9345 45.2653 21.9305H45.2667Z" fill="white"/>
</g>
<defs>
<clipPath id="clip0_149_283">
<rect width="32" height="32" fill="white" transform="translate(14 14)"/>
</clipPath>
</defs>
</svg>
