<svg width="26" height="24" viewBox="0 0 26 24" fill="none" xmlns="http://www.w3.org/2000/svg">
<path d="M21.7298 6.51743C18.5455 1.79989 12.0443 0.397382 7.00253 3.32991C2.09345 6.26243 0.501317 12.6375 3.68559 17.355L3.95094 17.7375L2.88952 21.5625L6.86985 20.5425L7.26789 20.7975C8.9927 21.69 10.8502 22.2001 12.7077 22.2001C14.6978 22.2001 16.688 21.69 18.4128 20.67C23.3219 17.61 24.7814 11.3625 21.7298 6.51743ZM18.9435 16.335C18.4128 17.1 17.7494 17.61 16.8207 17.7375C16.29 17.7375 15.6266 17.9925 12.973 16.9725C10.7175 15.9525 8.86002 14.295 7.53324 12.3825C6.73718 11.49 6.33914 10.3425 6.20646 9.19495C6.20646 8.17494 6.6045 7.28244 7.26789 6.64493C7.53324 6.38993 7.7986 6.26243 8.06396 6.26243H8.72734C8.9927 6.26243 9.25806 6.26243 9.39073 6.77243C9.65609 7.40994 10.3195 8.93995 10.3195 9.06745C10.4522 9.19495 10.4522 9.44995 10.3195 9.57745C10.4522 9.83246 10.3195 10.0875 10.1868 10.215C10.0541 10.3425 9.92145 10.5975 9.78877 10.725C9.52341 10.8525 9.39073 11.1075 9.52341 11.3625C10.0541 12.1275 10.7175 12.8925 11.3809 13.53C12.177 14.1675 12.973 14.6775 13.9018 15.06C14.1671 15.1875 14.4325 15.1875 14.5652 14.9325C14.6978 14.6775 15.3612 14.04 15.6266 13.785C15.8919 13.53 16.0246 13.53 16.29 13.6575L18.4128 14.6775C18.6782 14.805 18.9435 14.9325 19.0762 15.06C19.2089 15.4425 19.2089 15.9525 18.9435 16.335Z" fill="#29A71A"/>
</svg>
